<?xml version="1.0" encoding="UTF-8"?>
<svg width="94px" height="80px" viewBox="0 0 94 80" version="1.1" xmlns="http://www.w3.org/2000/svg" xmlns:xlink="http://www.w3.org/1999/xlink">
    <!-- Generator: Sketch 57.1 (83088) - https://sketch.com -->
    <title>Fill 106</title>
    <desc>Created with Sketch.</desc>
    <g id="Page-1" stroke="none" stroke-width="1" fill="none" fill-rule="evenodd">
        <g id="Main-Page---Values" transform="translate(-836.000000, -431.000000)" fill="#000000">
            <g id="Menu" transform="translate(416.000000, 385.000000)">
                <path d="M470.936204,39.9136322 C472.952204,41.9786322 474.867204,44.1596322 476.214204,46.7136322 C480.408204,54.6676322 483.769204,62.9236322 484.897204,71.9446322 C485.293204,75.1186322 485.744204,78.2846322 485.637204,81.4986322 C485.581204,88.7426322 484.356204,95.7956322 482.156204,102.695632 C479.578204,110.773632 476.491204,118.655632 472.914204,126.336632 C471.705204,128.934632 470.156204,131.378632 468.665204,133.834632 C468.277204,134.476632 467.576204,134.972632 466.931204,135.400632 C466.366204,135.775632 465.702204,135.652632 465.146204,135.236632 C464.551204,134.792632 464.467204,134.135632 464.692204,133.526632 C464.965204,132.784632 465.384204,132.094632 465.773204,131.398632 C466.784204,129.585632 467.932204,127.837632 468.817204,125.965632 C472.849204,117.432632 476.411204,108.703632 478.919204,99.5926322 C482.373204,87.0436322 481.764204,74.6066322 477.442204,62.3576322 C476.539204,59.8016322 475.370204,57.3386322 474.317204,54.8366322 C473.067204,51.8666322 471.382204,49.1636322 469.313204,46.6966322 C468.697204,45.9626322 468.053204,45.2456322 467.493204,44.4696322 C466.512204,43.1076322 466.715204,41.5196322 467.984204,40.1146322 C468.838204,39.1686322 470.096204,39.0546322 470.936204,39.9136322 Z M456.297404,18.4469322 C456.967404,18.8709322 457.657404,19.3159322 458.197404,19.8849322 C460.440404,22.2459322 463.218404,23.8029322 466.039404,25.3159322 C472.090404,28.5609322 478.145404,31.7989322 484.172404,35.0879322 C486.273404,36.2329322 488.334404,37.4609322 490.349404,38.7519322 C492.154404,39.9089322 492.406404,41.3809322 491.249404,43.2629322 C491.003404,43.6639322 490.668404,44.0279322 490.313404,44.3389322 C489.675404,44.8999322 488.896404,45.1419322 488.103404,44.7829322 C487.233404,44.3899322 486.427404,43.8599322 485.589404,43.3979322 C477.481404,38.9239322 469.372404,34.4499322 461.258404,29.9849322 C460.843404,29.7559322 460.383404,29.6039322 459.935404,29.4389322 C459.790404,29.3859322 459.524404,29.3399322 459.476404,29.4089322 C459.306404,29.6449322 459.045404,29.9759322 459.105404,30.1929322 C459.817404,32.8059322 460.528404,35.4219322 461.343404,38.0059322 C463.168404,43.7909322 465.006404,49.5719322 466.936404,55.3229322 C467.645404,57.4369322 467.096404,59.0469322 465.544404,60.4809322 C464.582404,61.3689322 463.253404,61.2139322 462.749404,60.0899322 C462.359404,59.2179322 462.000404,58.3269322 461.705404,57.4189322 C459.541404,50.7379322 457.420404,44.0429322 455.233404,37.3699322 C454.290404,34.4899322 453.191404,31.6599322 452.223404,28.7879322 C451.663404,27.1309322 450.953404,25.4999322 451.002404,23.6929322 C451.005404,22.0419322 451.498404,20.5559322 452.486404,19.2299322 C453.422404,17.9729322 454.990404,17.6209322 456.297404,18.4469322 Z" id="Fill-106" transform="translate(471.476146, 76.812436) scale(-1, 1) rotate(-125.000000) translate(-471.476146, -76.812436) "></path>
            </g>
        </g>
    </g>
</svg>