<?xml version="1.0" encoding="UTF-8"?>
<svg width="94px" height="80px" viewBox="0 0 94 80" version="1.1" xmlns="http://www.w3.org/2000/svg" xmlns:xlink="http://www.w3.org/1999/xlink">
    <!-- Generator: Sketch 57.1 (83088) - https://sketch.com -->
    <title>Fill 106</title>
    <desc>Created with Sketch.</desc>
    <g id="Page-1" stroke="none" stroke-width="1" fill="none" fill-rule="evenodd">
        <g id="Main-Page---Values" transform="translate(-511.000000, -432.000000)" fill="#000000">
            <g id="Menu" transform="translate(416.000000, 385.000000)">
                <path d="M136.992912,41.2030706 C139.008912,43.2680706 140.923912,45.4490706 142.270912,48.0030706 C146.464912,55.9570706 149.825912,64.2130706 150.953912,73.2340706 C151.349912,76.4080706 151.800912,79.5740706 151.693912,82.7880706 C151.637912,90.0320706 150.412912,97.0850706 148.212912,103.985071 C145.634912,112.063071 142.547912,119.945071 138.970912,127.626071 C137.761912,130.224071 136.212912,132.668071 134.721912,135.124071 C134.333912,135.766071 133.632912,136.262071 132.987912,136.690071 C132.422912,137.065071 131.758912,136.942071 131.202912,136.526071 C130.607912,136.082071 130.523912,135.425071 130.748912,134.816071 C131.021912,134.074071 131.440912,133.384071 131.829912,132.688071 C132.840912,130.875071 133.988912,129.127071 134.873912,127.255071 C138.905912,118.722071 142.467912,109.993071 144.975912,100.882071 C148.429912,88.3330706 147.820912,75.8960706 143.498912,63.6470706 C142.595912,61.0910706 141.426912,58.6280706 140.373912,56.1260706 C139.123912,53.1560706 137.438912,50.4530706 135.369912,47.9860706 C134.753912,47.2520706 134.109912,46.5350706 133.549912,45.7590706 C132.568912,44.3970706 132.771912,42.8090706 134.040912,41.4040706 C134.894912,40.4580706 136.152912,40.3440706 136.992912,41.2030706 Z M122.354112,19.7363706 C123.024112,20.1603706 123.714112,20.6053706 124.254112,21.1743706 C126.497112,23.5353706 129.275112,25.0923706 132.096112,26.6053706 C138.147112,29.8503706 144.202112,33.0883706 150.229112,36.3773706 C152.330112,37.5223706 154.391112,38.7503706 156.406112,40.0413706 C158.211112,41.1983706 158.463112,42.6703706 157.306112,44.5523706 C157.060112,44.9533706 156.725112,45.3173706 156.370112,45.6283706 C155.732112,46.1893706 154.953112,46.4313706 154.160112,46.0723706 C153.290112,45.6793706 152.484112,45.1493706 151.646112,44.6873706 C143.538112,40.2133706 135.429112,35.7393706 127.315112,31.2743706 C126.900112,31.0453706 126.440112,30.8933706 125.992112,30.7283706 C125.847112,30.6753706 125.581112,30.6293706 125.533112,30.6983706 C125.363112,30.9343706 125.102112,31.2653706 125.162112,31.4823706 C125.874112,34.0953706 126.585112,36.7113706 127.400112,39.2953706 C129.225112,45.0803706 131.063112,50.8613706 132.993112,56.6123706 C133.702112,58.7263706 133.153112,60.3363706 131.601112,61.7703706 C130.639112,62.6583706 129.310112,62.5033706 128.806112,61.3793706 C128.416112,60.5073706 128.057112,59.6163706 127.762112,58.7083706 C125.598112,52.0273706 123.477112,45.3323706 121.290112,38.6593706 C120.347112,35.7793706 119.248112,32.9493706 118.280112,30.0773706 C117.720112,28.4203706 117.010112,26.7893706 117.059112,24.9823706 C117.062112,23.3313706 117.555112,21.8453706 118.543112,20.5193706 C119.479112,19.2623706 121.047112,18.9103706 122.354112,19.7363706 Z" id="Fill-106" transform="translate(137.532854, 78.101874) rotate(-125.000000) translate(-137.532854, -78.101874) "></path>
            </g>
        </g>
    </g>
</svg>