<?xml version="1.0" encoding="UTF-8"?>
<svg width="29px" height="82px" viewBox="0 0 29 82" version="1.1" xmlns="http://www.w3.org/2000/svg" xmlns:xlink="http://www.w3.org/1999/xlink">
    <!-- Generator: Sketch 57.1 (83088) - https://sketch.com -->
    <title>Fill 71</title>
    <desc>Created with Sketch.</desc>
    <g id="Page-1" stroke="none" stroke-width="1" fill="none" fill-rule="evenodd">
        <g id="Main-Page---Values" transform="translate(-705.000000, -463.000000)" fill="#000000">
            <g id="Menu" transform="translate(416.000000, 385.000000)">
                <path d="M308.872722,118.38618 C313.953495,118.325723 318.286591,118.229702 322.631839,118.434546 C326.157215,118.601694 329.70475,118.356307 333.240133,118.229702 C336.433844,118.115188 339.62398,117.906787 342.816261,117.757422 C343.648284,117.719013 344.197963,118.593159 343.932773,119.443121 C343.715475,120.141584 343.285882,120.665075 342.596104,120.880588 C342.059292,121.047736 341.481021,121.118151 340.915617,121.157271 C336.016402,121.502235 331.118617,121.788163 326.198673,121.830128 C318.775512,121.892008 311.35521,121.660847 303.932048,121.72984 C296.62111,121.79741 289.309457,121.785318 281.997804,121.822304 C281.736189,121.823727 281.271571,121.655868 281.275145,122.090451 C281.276575,122.253331 281.778362,122.47738 282.082865,122.562731 C288.253703,124.289684 294.105027,126.876557 300.069288,129.157585 C300.601812,129.361007 301.131476,129.57581 301.650418,129.810527 C302.278009,130.095033 302.611819,130.624926 302.516037,131.128502 C302.324471,132.136365 301.523899,133.031849 300.779796,132.999131 C300.330189,132.979926 299.864857,132.910222 299.442412,132.762279 C298.257994,132.349745 297.072862,131.927965 295.922039,131.432213 C287.61539,127.857392 278.995659,125.25985 270.204377,123.182244 C268.427393,122.762597 266.667564,122.273958 264.904876,121.79741 C264.469565,121.67934 264.044261,121.507213 263.633253,121.318017 C263.037828,121.043468 262.824104,120.1679 263.157199,119.548388 C263.489579,118.929587 263.920602,118.403962 264.594655,118.152885 C265.342332,117.87478 266.101446,117.622281 266.865563,117.394676 C270.365207,116.354095 273.868424,115.323471 277.370927,114.291425 C284.836976,112.09148 292.057135,109.286249 298.945628,105.658084 C299.348774,105.446838 299.750489,105.212831 300.180082,105.075557 C300.482441,104.979536 300.83698,104.988783 301.158638,105.027902 C301.437409,105.060621 301.66114,105.816696 301.579653,106.231364 C301.442412,106.931249 301.130046,107.53867 300.518895,107.912795 C299.645414,108.447667 298.7462,108.946975 297.83412,109.415699 C292.135762,112.339001 286.181508,114.643501 280.107168,116.657094 C279.458847,116.872607 278.801949,117.067494 278.16578,117.314303 C277.980648,117.38543 277.800519,117.578183 277.713314,117.760978 C277.609669,117.978625 277.786223,118.108787 278.092871,118.125146 C279.689726,118.206941 281.286582,118.366265 282.883437,118.371244 C291.450987,118.396849 300.018538,118.384758 308.586088,118.38618 L308.872722,118.38618 Z" id="Fill-71" transform="translate(303.500000, 119.000000) rotate(-90.000000) translate(-303.500000, -119.000000) "></path>
            </g>
        </g>
    </g>
</svg>