<?xml version="1.0" encoding="UTF-8"?>
<svg width="62px" height="52px" viewBox="0 0 62 52" version="1.1" xmlns="http://www.w3.org/2000/svg" xmlns:xlink="http://www.w3.org/1999/xlink">
    <!-- Generator: Sketch 57.1 (83088) - https://sketch.com -->
    <title>Fill 106</title>
    <desc>Created with Sketch.</desc>
    <g id="Page-1" stroke="none" stroke-width="1" fill="none" fill-rule="evenodd">
        <g id="Main-Page---Values" transform="translate(-857.000000, -419.000000)" fill="#000000">
            <g id="Menu" transform="translate(457.000000, 339.000000)">
                <path d="M433.871425,76.7238819 C435.114953,78.053473 436.296182,79.4577531 437.127051,81.1021966 C439.714033,86.2235372 441.787197,91.5393265 442.482981,97.3476761 C442.727245,99.3913189 443.005435,101.429811 442.939435,103.499208 C442.904892,108.163401 442.149276,112.704615 440.792251,117.147317 C439.202065,122.348497 437.297913,127.423479 435.091514,132.369043 C434.345767,134.041817 433.390298,135.615435 432.470606,137.196779 C432.231276,137.610144 431.798878,137.929503 431.401023,138.20508 C431.052515,138.446531 430.64294,138.367335 430.299983,138.099485 C429.932969,137.813607 429.881156,137.390584 430.019942,136.998467 C430.188337,136.520716 430.446788,136.076446 430.686735,135.628312 C431.310349,134.460976 432.01847,133.335492 432.564364,132.130168 C435.05142,126.636027 437.248566,121.015687 438.795574,115.149389 C440.926103,107.069467 440.550454,99.0616576 437.884517,91.1748961 C437.32752,89.5291649 436.606447,87.9433135 435.956925,86.3323512 C435.185889,84.4200578 434.146531,82.6796777 432.870311,81.0912509 C432.490344,80.6186504 432.093106,80.1569957 431.747682,79.6573528 C431.142572,78.7804021 431.267788,77.7579368 432.050545,76.8532997 C432.577317,76.2441988 433.353289,76.1707977 433.871425,76.7238819 Z M424.482114,62.0993687 C424.907487,62.3751167 425.345558,62.6645221 425.688396,63.0345707 C427.112443,64.570045 428.876154,65.5826385 430.667165,66.5666167 C434.508855,68.6769995 438.353084,70.7828299 442.179536,72.9218281 C443.51343,73.6664778 444.821928,74.4651065 446.101222,75.3047072 C447.247189,76.0571611 447.40718,77.014475 446.672618,78.238432 C446.516437,78.4992219 446.30375,78.735949 446.078366,78.9382076 C445.673309,79.3030534 445.178734,79.4604379 444.67527,79.2269626 C444.12292,78.9713754 443.611202,78.6266904 443.079169,78.3262291 C437.93152,75.4165672 432.783237,72.5069053 427.631779,69.6030966 C427.368302,69.4541667 427.076255,69.3553136 426.791826,69.248006 C426.699768,69.2135375 426.530888,69.1836215 426.500414,69.2284955 C426.392483,69.3819779 426.226778,69.5972435 426.264871,69.7383692 C426.71691,71.4377314 427.168313,73.1390447 427.685744,74.8195467 C428.84441,78.5818163 430.011328,82.3414844 431.236657,86.0816421 C431.68679,87.4564801 431.338238,88.5035421 430.352897,89.4361427 C429.742137,90.0136527 428.898375,89.9128486 428.578393,89.1818562 C428.330788,88.6147518 428.102864,88.0352908 427.915573,87.4447738 C426.541681,83.0997915 425.19509,78.7457042 423.806596,74.4059247 C423.2079,72.5329193 422.510161,70.6924314 421.895592,68.8246288 C421.540056,67.7470003 421.089288,66.6862809 421.120397,65.5111001 C421.122302,64.4373737 421.4353,63.470955 422.062567,62.6085921 C422.656819,61.7911033 423.652319,61.5621804 424.482114,62.0993687 Z" id="Fill-106" transform="translate(434.118871, 100.079084) scale(-1, 1) rotate(-125.000000) translate(-434.118871, -100.079084) "></path>
            </g>
        </g>
    </g>
</svg>