<?xml version="1.0" encoding="UTF-8"?>
<svg width="19px" height="55px" viewBox="0 0 19 55" version="1.1" xmlns="http://www.w3.org/2000/svg" xmlns:xlink="http://www.w3.org/1999/xlink">
    <!-- Generator: Sketch 57.1 (83088) - https://sketch.com -->
    <title>Fill 71</title>
    <desc>Created with Sketch.</desc>
    <g id="Page-1" stroke="none" stroke-width="1" fill="none" fill-rule="evenodd">
        <g id="Main-Page---Values" transform="translate(-715.000000, -421.000000)" fill="#000000">
            <g id="Menu" transform="translate(457.000000, 339.000000)">
                <path d="M271.148144,109.083479 C274.598052,109.042455 277.540278,108.977298 280.490755,109.116299 C282.884529,109.229721 285.293349,109.063208 287.693917,108.977298 C289.862486,108.899592 292.028629,108.758177 294.196227,108.656822 C294.761181,108.630759 295.134419,109.223929 294.954352,109.800689 C294.806804,110.274646 294.515105,110.629872 294.046737,110.776114 C293.682235,110.889535 293.289582,110.937317 292.905666,110.963862 C289.579039,111.197945 286.253382,111.391968 282.912679,111.420444 C277.872261,111.462434 272.833784,111.305575 267.793366,111.352391 C262.829149,111.398242 257.864446,111.390037 252.899744,111.415135 C252.722103,111.4161 252.406622,111.302196 252.409049,111.597092 C252.41002,111.707617 252.750739,111.85965 252.957501,111.917568 C257.147576,113.089429 261.120697,114.844806 265.170504,116.392647 C265.532094,116.530684 265.891743,116.676442 266.244111,116.835715 C266.670253,117.028773 266.896914,117.388343 266.831877,117.730055 C266.701801,118.413962 266.158203,119.021612 265.652948,118.99941 C265.347659,118.986379 265.031693,118.939079 264.744848,118.838689 C263.940613,118.558756 263.135894,118.272547 262.354471,117.936144 C256.714153,115.510373 250.86125,113.747756 244.891861,112.337951 C243.685267,112.053191 242.490322,111.721614 241.293435,111.398242 C240.997853,111.318123 240.709066,111.201323 240.429987,111.07294 C240.025686,110.886639 239.880564,110.292504 240.10674,109.872121 C240.33243,109.45222 240.6251,109.095546 241.08279,108.925172 C241.590472,108.736458 242.10592,108.565119 242.624765,108.410673 C245.001066,107.704564 247.379794,107.005212 249.758037,106.304895 C254.827576,104.812076 259.730153,102.908526 264.407525,100.446557 C264.681266,100.303211 264.954036,100.144421 265.245735,100.051271 C265.45104,99.986114 265.691776,99.9923884 265.910186,100.018934 C266.099475,100.041135 266.251391,100.554187 266.196061,100.835568 C266.102873,101.31049 265.890772,101.722669 265.475793,101.97654 C264.882689,102.339488 264.272111,102.678305 263.652797,102.996368 C259.783542,104.980036 255.74053,106.543804 251.615978,107.910171 C251.17576,108.056412 250.729719,108.188657 250.297752,108.356134 C250.172045,108.404399 250.049735,108.535195 249.990522,108.659235 C249.920145,108.806924 250.040028,108.895248 250.248246,108.906349 C251.33253,108.961853 252.416815,109.069965 253.501099,109.073344 C259.318572,109.090719 265.136044,109.082514 270.953517,109.083479 L271.148144,109.083479 Z" id="Fill-71" transform="translate(267.500000, 109.500000) rotate(-90.000000) translate(-267.500000, -109.500000) "></path>
            </g>
        </g>
    </g>
</svg>