<?xml version="1.0" encoding="UTF-8"?>
<svg width="24px" height="33px" viewBox="0 0 24 33" version="1.1" xmlns="http://www.w3.org/2000/svg" xmlns:xlink="http://www.w3.org/1999/xlink">
    <!-- Generator: Sketch 57.1 (83088) - https://sketch.com -->
    <title>Fill 10</title>
    <desc>Created with Sketch.</desc>
    <g id="Dynamic-Scrum" stroke="none" stroke-width="1" fill="none" fill-rule="evenodd">
        <g id="Product-Increment" transform="translate(-463.000000, -306.000000)" fill="#000000">
            <g id="Group-4" transform="translate(367.000000, 237.000000)">
                <path d="M103.501417,80.1235461 C103.57106,80.2490335 103.615568,80.4486725 103.720818,80.4875633 C103.835493,80.5306023 104.026618,80.4543765 104.1481,80.3745209 C104.274295,80.2920726 104.38897,80.15777 104.449188,80.0208746 C104.501027,79.9031654 104.526685,79.6921184 104.45966,79.6252264 C104.364883,79.5308516 104.172187,79.494035 104.024523,79.5007761 C103.64175,79.5173694 103.48309,79.7533065 103.501417,80.1235461 M104.833944,88.4068949 C104.993513,88.2198906 105.25146,87.9226697 105.496697,87.6204841 C105.514584,87.5986393 105.456217,87.5278094 105.408205,87.5059646 C105.374314,87.4907395 105.273112,87.5066266 105.247694,87.5314502 C104.996337,87.7760451 104.751099,88.0239499 104.514805,88.2748335 C104.483739,88.3082625 104.51151,88.3681701 104.509627,88.4151694 C104.50492,88.5174425 104.556698,88.5416041 104.833944,88.4068949 M92.7774874,80.5 C92.9337508,80.4047895 93.1167434,80.3301978 93.2693059,80.1852595 C93.3696434,80.0906554 93.4247468,79.8935635 93.5,79.7425608 C93.3971951,79.6570533 93.2960351,79.5060506 93.1915854,79.5011991 C93.0077703,79.492709 92.8091513,79.5284888 92.6426074,79.6346151 C92.5607747,79.6867687 92.4842879,79.9529943 92.5027928,80.0949004 C92.5208864,80.2349873 92.6619347,80.3399008 92.7774874,80.5 M113.497132,79.716618 C113.405328,79.6570321 113.313053,79.5844513 113.201006,79.5299365 C113.148277,79.5042639 113.023048,79.4887335 112.990563,79.5099689 C112.598396,79.7632092 112.506592,80.0937844 112.500001,80.4405238 C112.499531,80.4608084 112.613462,80.5067657 112.659128,80.4991589 C113.105436,80.4253104 113.539503,80.0202528 113.497132,79.716618 M120.508305,85.9315963 C120.508305,86.1200456 120.485669,86.2141277 120.515139,86.3005122 C120.540764,86.3749226 120.614225,86.4909572 120.687259,86.4983697 C120.797877,86.5094885 120.956757,86.4621623 121.040469,86.4042876 C121.180556,86.3084949 121.286477,86.1878987 121.39197,86.071579 C121.60082,85.8409353 121.510276,85.6881232 121.090439,85.5398726 C120.867494,85.4614708 120.630455,85.5025248 120.592016,85.6293931 C120.551442,85.7616783 120.518128,85.8948187 120.508305,85.9315963 M104.695392,91.5 C104.779221,91.4614661 104.895924,91.436711 104.941291,91.3822965 C105.12703,91.1583328 105.289757,90.9250276 105.463333,90.6959261 C105.524479,90.6151217 105.512315,90.5455272 105.402844,90.5018554 C105.378517,90.4920468 105.302249,90.5231074 105.273649,90.5485632 C104.983041,90.8073241 104.64345,91.0431982 104.501434,91.3713202 C104.491572,91.394207 104.534637,91.4369445 104.56784,91.4591307 C104.600056,91.4803827 104.651998,91.4866883 104.695392,91.5 M109.659753,80.0001967 C109.37975,79.9956576 109.192045,80.0682821 109.237053,80.3645135 C109.319394,80.9080026 109.127956,81.3979789 109.001644,81.9008556 C108.99397,81.9307176 109.015333,82.0004754 109.02114,81.9999976 C109.06843,81.9973697 109.14206,82.0007142 109.158238,81.968941 C109.437825,81.418524 109.710568,80.8638068 109.982688,80.3086118 C109.997207,80.2792275 110.006333,80.229776 109.994718,80.2030196 C109.968377,80.14234 109.936851,80.0592041 109.890806,80.0405701 C109.801205,80.0042579 109.69999,80.0059302 109.659753,80.0001967 M111.981631,87.0149402 C111.946345,87.0101581 111.906721,86.9925238 111.87722,87.0035826 C111.836439,87.0188257 111.793055,87.0481165 111.76847,87.0842816 C111.217491,87.8936632 110.667379,88.7042403 110.121027,89.5169096 C110.070412,89.5922288 110.03744,89.6824921 110.008517,89.7700655 C109.995502,89.8092195 109.996369,89.8842398 110.018351,89.8988851 C110.089501,89.9455113 110.174245,90.0025984 110.251758,89.9999084 C110.544746,89.9894474 110.792325,89.8555468 110.918139,89.5805722 C111.288062,88.7711906 111.640053,87.9528425 111.995514,87.1362877 C112.009397,87.1046058 111.987127,87.0558875 111.981631,87.0149402 M118.953176,86.6771331 C118.946128,86.5832777 118.938375,86.3639148 118.907362,86.1492308 C118.898904,86.0917065 118.823252,86.0399622 118.769685,86.0030806 C118.751124,85.9901445 118.696617,86.0204205 118.674532,86.047944 C118.598175,86.1434509 118.522992,86.2411596 118.458383,86.3471254 C117.980975,87.1301713 117.504977,87.9137677 117.034852,88.7023183 C117.000785,88.7590169 116.986688,88.8801207 117.015586,88.9274613 C117.046599,88.9778294 117.163367,89.01939 117.201898,88.9904903 C117.735222,88.5902974 118.263848,88.1818474 118.78754,87.7645899 C118.952237,87.6330272 119.016612,87.4282517 118.996406,87.1926498 C118.985364,87.0619128 118.974556,86.9311758 118.953176,86.6771331 M110.004449,93.5191964 C110.024944,93.7074011 110.015575,93.7899385 110.047195,93.8598153 C110.072082,93.9150837 110.141471,93.961587 110.203248,93.9971341 C110.223743,94.0085773 110.302208,93.9837431 110.321532,93.9581784 C110.620168,93.567404 110.926418,93.1797948 111.205438,92.779525 C111.81091,91.9095956 112.402621,91.0333358 112.995796,90.1578065 C113.011314,90.13492 112.979693,90.0893905 112.968567,90.0545739 C112.90357,89.8534651 112.652071,90.1117901 110.594697,92.4922268 C110.486075,92.6178589 110.383308,92.7478735 110.265903,92.8676623 C110.045439,93.0928749 109.98132,93.3492521 110.004449,93.5191964 M117.399087,85.6129369 C117.374989,85.6799714 117.308022,85.8151882 117.27809,85.9572922 C117.20402,86.3076163 116.93108,86.6175361 117.016311,87 C117.467068,86.8638649 117.604553,86.462117 117.861259,86.1666602 C118.233888,85.7373639 118.573542,85.2841924 118.921312,84.8376783 C119.056514,84.6636641 119.016436,84.4992918 118.809194,84.3762422 C118.60804,84.256177 118.398769,84.1469016 118.188736,84.0396923 C118.023349,83.9552105 117.859229,84.0091595 117.812302,84.1675629 C117.6771,84.6239485 117.550015,85.0821706 117.399087,85.6129369 M92.5,83.5715536 C92.5128123,83.7536775 92.5113225,83.9846403 92.5524412,84.2105509 C92.5706169,84.3101536 92.6480869,84.4427167 92.7473081,84.4833757 C92.9010563,84.5464094 92.9794202,84.4172145 93.0253063,84.3130406 C93.484763,83.2681743 93.9474974,82.2245108 94.3935459,81.1762763 C94.4683342,81.0001671 94.4725057,80.8040893 94.4996202,80.6164319 C94.5040896,80.5851557 94.4683342,80.537279 94.4334727,80.5187539 C94.3986112,80.5004693 94.3285902,80.49253 94.2964104,80.5088899 C93.8977378,80.7114635 93.500853,80.9164431 93.1081396,81.1264749 C92.8092841,81.2864648 92.6835443,81.5207959 92.6611972,81.8066124 C92.616503,82.3794484 92.5578045,82.9515627 92.5,83.5715536 M113.072016,92.9937374 C113.129964,92.9657058 113.197981,92.9524277 113.244421,92.9076755 C113.624369,92.5388391 113.996097,92.157708 114.379333,91.7937894 C114.566121,91.6167479 114.683661,91.3983967 114.765856,91.1350474 C115.153201,89.8923144 115.547122,88.652532 115.938577,87.4117661 C115.950085,87.3753742 115.963441,87.3392282 115.972483,87.3020987 C115.998374,87.1936608 116.03228,87.0739119 115.935495,87.0016199 C115.915974,86.9871124 115.818778,87.0731742 115.788366,87.1348928 C114.878258,88.9844848 113.971849,90.8365358 113.067085,92.6893243 C113.035851,92.7535019 113.026398,92.8329247 113.007493,92.9057084 C112.986944,92.9846394 113.008726,93.0141463 113.072016,92.9937374 M106.761055,91.4991315 C106.767178,91.4980342 106.870177,91.4664886 106.973832,91.4626483 C107.442685,91.4467384 107.716474,91.1658453 107.915255,90.6144831 C108.720877,88.3810544 109.563456,86.1679246 110.392477,83.9476628 C110.407129,83.9078879 110.421781,83.868113 110.433589,83.8269666 C110.465954,83.7161455 110.565892,83.5940777 110.432496,83.502184 C110.406692,83.4843539 110.30588,83.5795393 110.271765,83.6478424 C109.062239,86.0565549 107.856211,88.4680105 106.651277,90.880289 C106.595951,90.9911101 106.553745,91.1126293 106.507822,91.2305824 C106.469553,91.3290595 106.57452,91.5142185 106.761055,91.4991315 M111.013042,86.7694773 C111.007457,86.8209283 110.997219,86.8601871 111.000709,86.8982267 C111.0042,86.9345594 111.021885,86.9999095 111.033287,86.9999095 C111.089833,86.9999095 111.175931,87.0033233 111.198503,86.9682099 C111.862857,85.9391896 112.528607,84.9109009 113.17737,83.8713954 C113.765864,82.928452 114.337372,81.9735602 114.910275,81.0203754 C115.055944,80.7779948 115.025228,80.6131565 114.810913,80.4080839 C114.675017,80.2773837 114.527021,80.1603388 114.378559,80.0450007 C114.262675,79.9552663 114.073026,80.0052542 114.000657,80.145952 C113.87849,80.3851626 113.758418,80.6258363 113.648119,80.871143 C112.858341,82.6282804 112.071122,84.3866371 111.28367,86.1449937 C111.189195,86.3556746 111.099839,86.5687939 111.013042,86.7694773 M107.434089,80.9159911 C107.484757,80.6901945 107.503727,80.6490243 107.499405,80.6109228 C107.495563,80.5753783 107.473951,80.529861 107.446816,80.5122167 C107.421842,80.4958509 107.365652,80.4953395 107.345961,80.5142624 C106.682958,81.1525278 106.236793,81.9659581 105.777422,82.7632784 C104.454057,85.0601132 103.147021,87.3671766 101.833261,89.6704042 C101.733847,89.8448021 101.630831,90.0168985 101.533577,90.1928306 C101.467301,90.3127611 101.504041,90.4940632 101.600814,90.4981546 C101.707913,90.5030132 101.850551,90.5030132 101.918028,90.4362715 C102.055623,90.3004867 102.162001,90.1242989 102.266219,89.9545039 C102.917695,88.8955869 103.575896,87.841017 104.210804,86.7708485 C105.009721,85.4250189 105.803836,84.0753536 106.569616,82.7077882 C106.921649,82.0789843 107.201162,81.4041516 107.434089,80.9159911 M93.5073067,89.3045799 L93.5031956,89.3045799 C93.5031956,89.5768755 93.4937643,89.8500256 93.5073067,90.1214667 C93.5133524,90.2425186 93.5353588,90.4105671 93.6040381,90.4678175 C93.7196321,90.5640894 93.8146706,90.4242389 93.8770624,90.3125863 C95.2063934,87.9203157 96.5393518,85.5308933 97.8561077,83.1292234 C98.1216353,82.6453006 98.4248882,82.1647957 98.4976785,81.5743472 C98.5213777,81.3818034 98.3750715,81.4931712 97.5248027,82.7603711 C96.9751266,83.5795365 96.426176,84.3992716 95.8661014,85.208468 C95.2327527,86.1233356 94.5952929,87.0362095 93.8190235,87.7932824 C93.5919466,88.0145937 93.4937643,88.2831866 93.5058557,88.6238409 C93.5140779,88.8502792 93.5073067,89.0775719 93.5073067,89.3045799 M117,83.0175515 C116.959439,82.9543754 116.933471,82.8718157 116.876092,82.8316127 C116.491756,82.5633534 116.102473,82.3015553 115.710717,82.0435861 C115.573454,81.9531293 115.403298,82.0084085 115.325886,82.1637165 C114.931163,82.9550933 114.549547,83.7529313 114.143694,84.5388042 C113.507585,85.7697816 112.839819,86.9854437 112.215829,88.2221644 C111.783265,89.0798283 111.399918,89.960944 111.002721,90.8348806 C110.985903,90.8719726 111.051443,90.9442423 111.078649,91 C111.111295,90.9794199 111.151608,90.9645831 111.176093,90.9368239 C111.277989,90.820283 111.380875,90.7037422 111.47362,90.5805009 C113.21723,88.2606923 114.959605,85.9401658 116.700989,83.6189213 C116.793735,83.4954407 116.883512,83.3686098 116.95845,83.2345998 C116.99258,83.1728595 116.987387,83.0907784 117,83.0175515 M97.4359124,91.9987997 C97.6602719,91.9987997 97.7810035,91.9950171 97.9014835,91.999304 C98.2543718,92.0116604 98.5177175,91.8590973 98.7156669,91.5723795 C98.8067186,91.4394857 98.9088374,91.3144091 99.0086925,91.1878196 C100.932852,88.7478184 102.628627,86.1537411 104.189082,83.4681259 C104.514554,82.9080554 104.772115,82.3172201 104.961764,81.700159 C105.017854,81.5170832 104.995971,81.3075296 104.994965,81.1100802 C104.994462,81.0167771 104.908944,80.9698734 104.81915,81.021064 C104.244166,81.3503986 103.864616,81.8839912 103.487582,82.3986711 C102.488025,83.7629132 101.513621,85.146068 100.547517,86.5345185 C99.4433261,88.121427 98.3579997,89.7217006 97.2661337,91.3174352 C97.175585,91.4495725 97.0953489,91.5892749 97.0138551,91.7277165 C96.9617896,91.8159761 97.065166,91.9705566 97.1791064,91.9793826 C97.2990834,91.9887129 97.4193119,91.9975388 97.4359124,91.9987997 M95.9879264,79.507006 C95.564883,79.4708158 95.4280587,79.5656591 95.3700413,80.0081779 C95.2810813,80.6853089 95.0934917,81.3329887 94.8735091,81.9719329 C94.5111422,83.0234453 94.1330622,84.0689676 93.7648936,85.1184834 C93.6870536,85.3406163 93.621784,85.5674914 93.5574814,85.7941169 C93.5524049,85.8118376 93.6113892,85.8729866 93.6249266,85.8677452 C93.6959979,85.8422873 93.7825405,85.8190757 93.8265371,85.7634176 C94.6615039,84.7166474 95.4930865,83.6668821 96.3210429,82.6143713 C96.8325629,81.9641956 97.3276446,81.2997935 97.8500428,80.6591022 C98.046335,80.4184998 98.2887993,80.2133388 98.5302967,80.0189101 C98.7321488,79.856179 99.1037018,79.9797249 99.2274723,80.2233223 C99.3372218,80.4399644 99.4119192,80.6735783 99.3539018,80.9139311 C99.2605905,81.2990448 99.1825088,81.6976361 99.0203018,82.0530488 C98.7082167,82.7371684 98.3777593,83.4182928 97.9909767,84.0594833 C97.1535924,85.4474398 96.2777716,86.8106871 95.4140378,88.1811724 C94.8872883,89.0170412 94.3496605,89.8454224 93.8248449,90.6825391 C93.7003492,90.8809612 93.6058292,91.0998495 93.5035736,91.3124981 C93.4914866,91.3377064 93.5127597,91.3848785 93.527264,91.4180736 C93.5644919,91.5029334 93.6416066,91.5301385 93.7138866,91.4600044 C93.9940623,91.1874547 94.2955109,90.9306291 94.5345909,90.6223885 C95.0896239,89.9068209 95.641756,89.1850137 96.1428812,88.4292625 C96.9282916,87.2447199 97.6779246,86.0342202 98.4297332,84.8264659 C99.411194,83.249322 100.333187,81.6324938 101.408201,80.1184956 C101.452439,80.0560987 101.495952,79.9782273 101.49982,79.9050982 C101.503204,79.8417029 101.458241,79.7251455 101.419563,79.7179075 C101.155342,79.6682396 100.887495,79.6163254 100.620131,79.612332 C99.9248896,79.6018493 99.2289227,79.6325486 98.5339228,79.6163254 C97.684935,79.5961088 96.8366725,79.5446937 95.9879264,79.507006 M96.0672801,91.7811787 C96.3302706,91.7150763 96.4691002,91.5075398 96.6233845,91.3244486 C98.0590926,89.6185081 99.4953245,87.9115698 100.788274,86.1031082 C101.280988,85.4136479 101.755104,84.7092209 102.183119,83.9825935 C102.487496,83.4659971 102.702813,82.9015076 102.952707,82.3564747 C102.985187,82.2856329 102.991998,82.2025684 102.999594,82.1242433 C103.003,82.0895708 102.984402,82.0257134 102.965018,82.0214728 C102.898222,82.0072546 102.792398,81.9840564 102.76175,82.0162345 C102.056339,82.7553341 101.539264,83.621899 100.97792,84.4565352 C99.424862,86.7656288 97.9393848,89.1163794 96.2516878,91.3421591 C96.1581742,91.4653839 96.1191448,91.6267735 96.0547069,91.7702032 C95.5748278,92.0321183 95.2984782,92.4691424 95.0016971,92.8874583 C94.9920052,92.9011777 95.0257958,92.9583001 95.0530379,92.97626 C95.0810657,92.9949682 95.1410506,93.0086876 95.1606963,92.9934716 C95.5808525,92.6701935 95.9211161,92.2910402 96.0672801,91.7811787 M92.0869486,91.5739759 C92.234997,90.5145756 92.2140255,89.5336303 92.0797085,88.5534543 C92.0629813,88.4321821 92.0547425,88.3078334 92.0569894,88.1855357 C92.0717193,87.4076507 92.1478656,86.6254072 92.0921915,85.8529064 C92.036018,85.0737395 92.0207887,84.3009823 92.0350193,83.5207898 C92.0569894,82.3324257 92.0215377,81.1427796 92.011052,79.95339 C92.0083057,79.6667468 91.9880833,79.3785653 92.010303,79.0939732 C92.0502486,78.585297 92.3915338,78.2735277 92.87887,78.2707074 C92.9984571,78.2701946 93.1187932,78.2753224 93.237881,78.2866035 C95.8663011,78.5345319 98.5022109,78.5440183 101.138121,78.5391469 C102.459821,78.5368394 103.764793,78.7432327 105.076007,78.8668124 C106.391965,78.9909047 107.708672,78.955523 109.025878,78.9298841 C109.283776,78.9250127 109.481507,78.7327208 109.502229,78.4696654 C109.527694,78.1448203 109.532438,77.816642 109.525697,77.4905149 C109.50847,76.6705821 109.476514,75.8506493 109.457789,75.0307165 C109.45005,74.6884369 109.557903,74.3899998 109.806814,74.1469428 C109.989066,73.9687523 110.310378,73.9377292 110.444695,74.1369436 C111.017165,74.9853356 111.787616,75.653486 112.417258,76.4480363 C112.79799,76.9279969 113.234395,77.3418092 113.694269,77.7399816 C115.806143,79.5690625 118.057077,81.1935447 120.428098,82.6477845 C121.319134,83.1946627 122.191196,83.773846 123.069999,84.3417482 C123.272723,84.4722503 123.46621,84.6183922 123.665189,84.7550477 C124.131304,85.0757906 124.078376,85.6557431 123.705634,86.0221233 C123.563577,86.1618554 123.387067,86.2662058 123.222541,86.3810682 C121.04326,87.9027384 118.848499,89.4015899 116.687692,90.95095 C114.61876,92.4346746 112.734576,94.1447908 111.016416,96.045917 C110.746035,96.3448669 110.462421,96.6348431 110.161081,96.9004624 C109.915666,97.1171113 109.53818,96.9576372 109.543672,96.6384326 C109.565642,95.370075 109.314734,94.1045377 109.510717,92.8336162 C109.541425,92.6341454 109.520953,92.4259573 109.51596,92.2218715 C109.511965,92.0641921 109.34719,91.9221525 109.191901,91.9313825 C109.152205,91.93369 109.11201,91.9311261 109.072814,91.9370231 C107.334431,92.1916176 105.597048,92.4503143 103.858166,92.7002938 C103.384561,92.7684934 102.90821,92.849256 102.432358,92.8569477 C101.666651,92.8695107 100.91867,92.9861678 100.185668,93.1882026 C99.6781093,93.3281911 99.1670554,93.3733156 98.6477627,93.4043387 C97.9709345,93.4451046 97.2923588,93.4843321 96.6205238,93.5735556 C95.3554968,93.7417469 94.0924671,93.931475 92.8331822,94.1412014 C92.3408528,94.2235023 92.0959364,93.9899317 92.0891955,93.4653593 C92.0804574,92.8092593 92.0869486,92.1531592 92.0869486,91.5739759" id="Fill-10" transform="translate(108.000000, 85.500000) rotate(90.000000) translate(-108.000000, -85.500000) "></path>
            </g>
        </g>
    </g>
</svg>