<?xml version="1.0" encoding="UTF-8"?>
<svg width="62px" height="52px" viewBox="0 0 62 52" version="1.1" xmlns="http://www.w3.org/2000/svg" xmlns:xlink="http://www.w3.org/1999/xlink">
    <!-- Generator: Sketch 57.1 (83088) - https://sketch.com -->
    <title>Fill 106</title>
    <desc>Created with Sketch.</desc>
    <g id="Page-1" stroke="none" stroke-width="1" fill="none" fill-rule="evenodd">
        <g id="Main-Page---Values" transform="translate(-519.000000, -419.000000)" fill="#000000">
            <g id="Menu" transform="translate(457.000000, 339.000000)">
                <path d="M89.6336829,76.7238819 C90.8772111,78.053473 92.0584394,79.4577531 92.8893086,81.1021966 C95.4762912,86.2235372 97.5494549,91.5393265 98.2452385,97.3476761 C98.4895029,99.3913189 98.767693,101.429811 98.7016923,103.499208 C98.6671498,108.163401 97.9115338,112.704615 96.554509,117.147317 C94.9643228,122.348497 93.0601704,127.423479 90.8537715,132.369043 C90.1080248,134.041817 89.152556,135.615435 88.2328633,137.196779 C87.9935335,137.610144 87.5611361,137.929503 87.1632811,138.20508 C86.8147725,138.446531 86.4051978,138.367335 86.0622406,138.099485 C85.6952271,137.813607 85.6434134,137.390584 85.7822,136.998467 C85.9505945,136.520716 86.209046,136.076446 86.4489926,135.628312 C87.0726072,134.460976 87.7807274,133.335492 88.3266214,132.130168 C90.8136776,126.636027 93.010824,121.015687 94.5578322,115.149389 C96.688361,107.069467 96.3127119,99.0616576 93.6467752,91.1748961 C93.0897782,89.5291649 92.3687046,87.9433135 91.7191832,86.3323512 C90.9481464,84.4200578 89.9087889,82.6796777 88.6325688,81.0912509 C88.2526019,80.6186504 87.8553637,80.1569957 87.5099392,79.6573528 C86.9048296,78.7804021 87.030046,77.7579368 87.8128025,76.8532997 C88.3395748,76.2441988 89.1155462,76.1707977 89.6336829,76.7238819 Z M80.2443718,62.0993687 C80.6697448,62.3751167 81.1078155,62.6645221 81.4506535,63.0345707 C82.8747008,64.570045 84.6384116,65.5826385 86.4294225,66.5666167 C90.2711123,68.6769995 94.1153417,70.7828299 97.9417942,72.9218281 C99.2756878,73.6664778 100.584186,74.4651065 101.86348,75.3047072 C103.009447,76.0571611 103.169438,77.014475 102.434876,78.238432 C102.278694,78.4992219 102.066008,78.735949 101.840624,78.9382076 C101.435567,79.3030534 100.940991,79.4604379 100.437528,79.2269626 C99.8851775,78.9713754 99.3734601,78.6266904 98.8414264,78.3262291 C93.6937779,75.4165672 88.5454946,72.5069053 83.3940368,69.6030966 C83.1305595,69.4541667 82.8385123,69.3553136 82.5540838,69.248006 C82.4620255,69.2135375 82.293146,69.1836215 82.2626716,69.2284955 C82.1547411,69.3819779 81.9890361,69.5972435 82.0271292,69.7383692 C82.4791674,71.4377314 82.9305707,73.1390447 83.4480021,74.8195467 C84.6066674,78.5818163 85.7735862,82.3414844 86.9989145,86.0816421 C87.449048,87.4564801 87.1004961,88.5035421 86.1151544,89.4361427 C85.5043949,90.0136527 84.6606326,89.9128486 84.3406505,89.1818562 C84.0930453,88.6147518 83.8651216,88.0352908 83.6778305,87.4447738 C82.3039391,83.0997915 80.9573478,78.7457042 79.568854,74.4059247 C78.9701574,72.5329193 78.2724186,70.6924314 77.6578499,68.8246288 C77.3023142,67.7470003 76.8515458,66.6862809 76.8826551,65.5111001 C76.8845598,64.4373737 77.1975582,63.470955 77.8248246,62.6085921 C78.4190771,61.7911033 79.414577,61.5621804 80.2443718,62.0993687 Z" id="Fill-106" transform="translate(89.881129, 100.079084) rotate(-125.000000) translate(-89.881129, -100.079084) "></path>
            </g>
        </g>
    </g>
</svg>