<?xml version="1.0" encoding="UTF-8"?>
<svg width="70px" height="70px" viewBox="0 0 70 70" version="1.1" xmlns="http://www.w3.org/2000/svg" xmlns:xlink="http://www.w3.org/1999/xlink">
    <!-- Generator: Sketch 57.1 (83088) - https://sketch.com -->
    <title>UI / Icons / events_commitment</title>
    <desc>Created with Sketch.</desc>
    <g id="Page-1" stroke="none" stroke-width="1" fill="none" fill-rule="evenodd">
        <g id="Main-Page---Values" transform="translate(-875.000000, -727.000000)" fill="#FFFFFF">
            <g id="events" transform="translate(297.000000, 727.000000)">
                <g id="UI-/-Icons-/-values_commitment" transform="translate(578.000000, 0.000000)">
                    <g id="iconmonstr-building-33">
                        <path d="M69.9970835,70 L0,70 L0,64.1666667 L69.9970835,64.1666667 L69.9970835,70 Z M67.0805383,61.25 L2.91654514,61.25 L2.91654514,58.3333333 L67.0805383,58.3333333 L67.0805383,61.25 Z M17.4992709,55.4195833 L5.83309029,55.4195833 L5.83309029,35 C4.22315737,35 2.91654514,33.6933333 2.91654514,32.0833333 C2.91654514,30.4733333 4.22315737,29.1666667 5.83309029,29.1666667 L17.4992709,29.1666667 C19.1092038,29.1666667 20.415816,30.4733333 20.415816,32.0833333 C20.415816,33.6933333 19.1092038,35 17.4992709,35 L17.4992709,55.4195833 Z M40.831632,55.4195833 L29.1654514,55.4195833 L29.1654514,35 C27.5555185,35 26.2489063,33.6933333 26.2489063,32.0833333 C26.2489063,30.4733333 27.5555185,29.1666667 29.1654514,29.1666667 L40.831632,29.1666667 C42.4415649,29.1666667 43.7481772,30.4733333 43.7481772,32.0833333 C43.7481772,33.6933333 42.4415649,35 40.831632,35 L40.831632,55.4195833 Z M64.1639932,55.4195833 L52.4978126,55.4195833 L52.4978126,35 C50.8878797,35 49.5812674,33.6933333 49.5812674,32.0833333 C49.5812674,30.4733333 50.8878797,29.1666667 52.4978126,29.1666667 L64.1639932,29.1666667 C65.7739261,29.1666667 67.0805383,30.4733333 67.0805383,32.0833333 C67.0805383,33.6933333 65.7739261,35 64.1639932,35 L64.1639932,55.4195833 Z M34.9985417,0 L0,26.25 L70,26.25 L34.9985417,0 Z M34.9985417,8.75 C38.2184076,8.75 40.831632,11.3633333 40.831632,14.5833333 C40.831632,17.8033333 38.2184076,20.4166667 34.9985417,20.4166667 C31.7786759,20.4166667 29.1654514,17.8033333 29.1654514,14.5833333 C29.1654514,11.3633333 31.7786759,8.75 34.9985417,8.75 Z" id="Shape"></path>
                    </g>
                </g>
            </g>
        </g>
    </g>
</svg>