<?xml version="1.0" encoding="UTF-8"?>
<svg width="70px" height="70px" viewBox="0 0 70 70" version="1.1" xmlns="http://www.w3.org/2000/svg" xmlns:xlink="http://www.w3.org/1999/xlink">
    <!-- Generator: Sketch 57.1 (83088) - https://sketch.com -->
    <title>UI / Icons / events_courage</title>
    <desc>Created with Sketch.</desc>
    <g id="Page-1" stroke="none" stroke-width="1" fill="none" fill-rule="evenodd">
        <g id="Main-Page---Values" transform="translate(-477.000000, -727.000000)" fill="#FFFFFF">
            <g id="events" transform="translate(297.000000, 727.000000)">
                <g id="UI-/-Icons-/-values_courage" transform="translate(180.000000, 0.000000)">
                    <g id="iconmonstr-rocket-20">
                        <path d="M24.9841667,52.0391667 C22.2279167,59.22 14.2566667,63.7408333 5.84208333,64.1754167 C6.2475,56.0904167 10.75375,47.81875 18.1183333,45.0333333 L19.6058333,46.5529167 C15.1316667,50.995 13.5945833,54.6175 13.3525,56.6475 C15.4058333,56.3995833 19.2033333,54.8741667 23.51125,50.5341667 L24.9841667,52.0391667 Z M21.6708333,18.9583333 C16.485,18.9291667 9.82333333,21.6154167 4.85333333,26.5825 C2.9575,28.4754167 1.28916667,30.6891667 0,33.1683333 C4.48583333,29.77625 9.415,28.8370833 15.0120833,31.9783333 C16.6629167,27.6208333 18.8620833,23.1875 21.6708333,18.9583333 L21.6708333,18.9583333 Z M36.8491667,70 C39.3341667,68.7166667 41.545,67.0454167 43.44375,65.1466667 C48.4254167,60.1708333 51.09125,53.4770833 51.03875,48.2825 C46.445,51.2866667 41.9241667,53.4508333 38.0129167,54.9791667 C41.1541667,60.5791667 40.24125,65.52 36.8491667,70 L36.8491667,70 Z M69.8425,0.128333333 C68.5941667,0.0408333333 67.3691667,0 66.1645833,0 C38.92875,0 23.975,21.6591667 19.2033333,37.9429167 L32.1183333,50.8579167 C48.9766667,45.4475 70,31.0916667 70,4.21166667 L70,4.03958333 C69.9941667,2.765 69.9445833,1.46125 69.8425,0.128333333 L69.8425,0.128333333 Z M52.5,23.3333333 C49.2770833,23.3333333 46.6666667,20.7229167 46.6666667,17.5 C46.6666667,14.2770833 49.2770833,11.6666667 52.5,11.6666667 C55.7229167,11.6666667 58.3333333,14.2770833 58.3333333,17.5 C58.3333333,20.7229167 55.7229167,23.3333333 52.5,23.3333333 Z" id="Shape" fill-rule="nonzero"></path>
                    </g>
                </g>
            </g>
        </g>
    </g>
</svg>