<?xml version="1.0" encoding="UTF-8"?>
<svg width="65px" height="69px" viewBox="0 0 65 69" version="1.1" xmlns="http://www.w3.org/2000/svg" xmlns:xlink="http://www.w3.org/1999/xlink">
    <!-- Generator: Sketch 57.1 (83088) - https://sketch.com -->
    <title>UI / Icons / daily_scrum</title>
    <desc>Created with Sketch.</desc>
    <g id="Page-1" stroke="none" stroke-width="1" fill="none" fill-rule="evenodd">
        <g id="Main-Page---Values-Copy" transform="translate(-572.000000, -781.000000)">
            <g id="UI-/-Icons-/-daily_scrum" transform="translate(573.000000, 781.000000)">
                <g id="UI-/-Icons-/-Daily-Scrum">
                    <g id="Agile-Icon">
                        <g id="Group-7" transform="translate(0.000000, 4.851485)" fill-rule="nonzero">
                            <ellipse id="Oval" stroke="#FFFFFF" stroke-width="2" cx="33.1157982" cy="29.4578757" rx="27.9359803" ry="28.4578757"></ellipse>
                            <polygon id="Rectangle" fill="#005CFF" points="33.1157982 47.7420743 62.0517785 47.7420743 62.0517785 58.9157513 33.1157982 58.9157513"></polygon>
                            <path d="M54.5694391,62.2152993 C54.5694391,62.3329873 54.6082955,62.4469131 54.6792274,62.5383617 C54.8496962,62.7581379 55.158076,62.7950402 55.3723183,62.6228152 L61.7007548,57.535517 C61.7314494,57.5108423 61.7592851,57.4825045 61.7836722,57.4510635 C61.9582893,57.2259392 61.9203067,56.8969784 61.7007548,56.7204853 L55.3723183,51.6331871 C55.2848438,51.5628682 55.1774718,51.5249142 55.0672315,51.5249142 C54.7943287,51.5249142 54.5694391,51.7538599 54.5694391,52.040703 L54.5694391,62.2152993 Z" id="Path-2" stroke="#FFFFFF" fill="#FFFFFF"></path>
                            <path d="M0.997833291,24.3095318 L10.9921697,24.3095318 C11.8213979,24.3095318 12.4899621,24.9901543 12.4899621,25.8253206 C12.4899621,26.1645217 12.3775377,26.494147 12.1703412,26.7612742 L7.17317298,33.2038517 C6.66062548,33.8646514 5.71411044,33.9779162 5.06337787,33.4548058 C4.97176267,33.3811583 4.88902316,33.2969265 4.81682998,33.2038517 L-0.180338208,26.7612742 C-0.688737434,26.1058227 -0.579213447,25.1572551 0.0662096744,24.6384129 C0.330958229,24.4255871 0.659279046,24.3095318 0.997833291,24.3095318 Z" id="Path-2-Copy-2" stroke="#005CFF" fill="#FFFFFF"></path>
                            <polygon id="Rectangle" fill="#FFFFFF" points="32.1180058 56.9157513 54.0694391 56.9157513 54.0694391 58.9157513 32.1180058 58.9157513"></polygon>
                        </g>
                        <rect id="Rectangle" fill-rule="nonzero" x="2.29938503" y="7.11752045" width="61.7684116" height="62.8824796"></rect>
                        <g id="Alarm" transform="translate(1.186441, 0.000000)">
                            <rect id="Rectangle" fill-rule="nonzero" x="0" y="0" width="62.8813559" height="63.7623762"></rect>
                            <path d="M6.62732438,0.537128296 L6.61459795,12.7344981 L6.654068,12.7344569 L6.66679443,0.537087113 L6.62732438,0.537128296 Z" id="Rectangle" stroke="#FFFFFF" stroke-width="3" transform="translate(6.640696, 6.635793) rotate(45.000000) translate(-6.640696, -6.635793) "></path>
                            <path d="M56.3111534,0.537087113 L56.3238799,12.7344569 L56.3633499,12.7344981 L56.3506235,0.537128296 L56.3111534,0.537087113 Z" id="Rectangle-Copy-5" stroke="#FFFFFF" stroke-width="3" transform="translate(56.337252, 6.635793) rotate(-45.000000) translate(-56.337252, -6.635793) "></path>
                            <path d="M30.9659175,25.7574257 L30.890199,25.7574257 L30.890199,38.1459478 C30.890199,38.1505513 30.8906261,38.1562183 30.8914736,38.1619207 L30.9248495,38.3864901 L30.8902724,38.6108776 C30.8902412,38.61108 30.890199,38.6116306 30.890199,38.6127435 L30.890199,38.6980198 L38.142594,38.6980198 L38.142594,38.6127435 C38.142594,38.6127435 38.142594,38.6127435 38.14251,38.6127435 L30.9651041,38.6123418 L30.965199,37.1123308 L30.9659175,25.7574257 Z" id="Combined-Shape" stroke="#FFFFFF" stroke-width="3"></path>
                        </g>
                    </g>
                </g>
            </g>
        </g>
    </g>
</svg>