<?xml version="1.0" encoding="UTF-8"?>
<svg width="67px" height="69px" viewBox="0 0 67 69" version="1.1" xmlns="http://www.w3.org/2000/svg" xmlns:xlink="http://www.w3.org/1999/xlink">
    <!-- Generator: Sketch 57.1 (83088) - https://sketch.com -->
    <title>Agile Icon</title>
    <desc>Created with Sketch.</desc>
    <g id="Dynamic-Scrum" stroke="none" stroke-width="1" fill="none" fill-rule="evenodd">
        <g id="Daily-Scrum" transform="translate(-388.000000, -207.000000)">
            <g id="Preview" transform="translate(278.000000, 158.000000)">
                <g id="Agile-Icon" transform="translate(111.000000, 49.000000)">
                    <g id="Group-7" transform="translate(0.000000, 3.000000)" fill-rule="nonzero">
                        <ellipse id="Oval" stroke="#137FFF" stroke-width="4" cx="33.1157982" cy="30.3784343" rx="26.9359803" ry="28.3784343"></ellipse>
                        <polygon id="Rectangle" fill="#FFFFFF" points="33.1157982 49.2340142 62.0517785 49.2340142 62.0517785 58.2340142 33.1157982 58.2340142"></polygon>
                        <path d="M54.5694391,64.1595274 C54.5694391,64.2872179 54.6101608,64.410344 54.6837323,64.5081598 C54.8544766,64.7351703 55.1547723,64.7722281 55.3664799,64.5967224 L61.6949164,59.3504462 C61.7259588,59.3247121 61.7542551,59.2950052 61.7791673,59.2618836 C61.9609197,59.0202374 61.9209733,58.6634574 61.6949164,58.4760562 L55.3664799,53.22978 C55.2796107,53.1577654 55.1744812,53.1194427 55.0672315,53.1194427 C54.7978952,53.1194427 54.5694391,53.3592873 54.5694391,53.666975 L54.5694391,64.1595274 Z" id="Path-2" stroke="#137FFF" fill="#137FFF"></path>
                        <path d="M0.997833291,25.0848297 L10.9921697,25.0848297 C11.8249644,25.0848297 12.4899621,25.7829774 12.4899621,26.6323619 C12.4899621,26.9758383 12.3794031,27.3101242 12.1748461,27.5820897 L7.17767793,34.2259978 C6.66540596,34.9070811 5.71080673,35.0248831 5.05753946,34.4833242 C4.96627207,34.4076635 4.88399313,34.321283 4.81232503,34.2259978 L-0.184843162,27.5820897 C-0.686107033,26.9156421 -0.578546792,25.9549709 0.0603712658,25.4253076 C0.325725158,25.2053291 0.65628841,25.0848297 0.997833291,25.0848297 Z" id="Path-2-Copy-2" stroke="#FFFFFF" fill="#137FFF"></path>
                        <polygon id="Rectangle" fill="#137FFF" points="32.1180058 56.7568686 54.0694391 56.7568686 54.0694391 60.7568686 32.1180058 60.7568686"></polygon>
                    </g>
                    <rect id="Rectangle" fill-rule="nonzero" x="3" y="6" width="61" height="66"></rect>
                    <g id="Alarm" transform="translate(2.000000, 0.000000)">
                        <rect id="Rectangle" fill-rule="nonzero" x="1" y="0" width="62.8813559" height="65.7549505"></rect>
                        <path d="M7.51567887,0.125765341 C7.50850933,0.125696796 7.50850933,0.125696796 7.50133979,0.125765341 C7.22524358,0.129724966 7.00463328,0.356755081 7.00859291,0.632851295 L7.18691036,13.0665446 C7.19079017,13.3370753 7.40915821,13.5554434 7.67968895,13.5593232 L7.76571352,13.5605569 C7.77288305,13.5606255 7.77288305,13.5606255 7.78005259,13.5605569 C8.0561488,13.5565973 8.2767591,13.3295672 8.27279947,13.053471 L8.09448202,0.61977765 C8.09060222,0.349246915 7.87223417,0.130878868 7.60170343,0.126999059 L7.51567887,0.125765341 Z" id="Rectangle" stroke="#137FFF" stroke-width="2" transform="translate(7.640696, 6.843161) rotate(45.000000) translate(-7.640696, -6.843161) "></path>
                        <path d="M57.3762444,0.126999059 C57.1057137,0.130878868 56.8873457,0.349246915 56.8834659,0.61977765 L56.7051484,13.053471 C56.7050799,13.0606405 56.7050799,13.0606405 56.7051484,13.06781 C56.709108,13.3439063 56.9361381,13.5645165 57.2122344,13.5605569 L57.2982589,13.5593232 C57.5687897,13.5554434 57.7871577,13.3370753 57.7910375,13.0665446 L57.969355,0.632851295 C57.9694235,0.625681758 57.9694235,0.625681758 57.969355,0.618512222 C57.9653953,0.342416008 57.7383652,0.121805715 57.462269,0.125765341 L57.3762444,0.126999059 Z" id="Rectangle-Copy-5" stroke="#137FFF" stroke-width="2" transform="translate(57.337252, 6.843161) rotate(-45.000000) translate(-57.337252, -6.843161) "></path>
                        <path d="M31.9659175,26.0154703 L31.890199,26.0154703 C31.6140566,26.0154703 31.390199,26.2393279 31.390199,26.5154703 L31.390199,39.3860668 C31.390199,39.4089816 31.391575,39.4305782 31.3941045,39.449956 L31.4108707,39.5784009 L31.3943565,39.7068785 C31.3916012,39.7283148 31.390199,39.7501948 31.390199,39.7725168 L31.390199,39.9542079 C31.390199,40.2303503 31.6140566,40.4542079 31.890199,40.4542079 L39.142594,40.4542079 C39.4187363,40.4542079 39.642594,40.2303503 39.642594,39.9542079 L39.642594,39.7725168 C39.642594,39.4963744 39.4187363,39.2725168 39.1425858,39.2725168 L32.4651379,39.2724621 L32.465199,38.2724092 L32.4659175,26.5154703 C32.4659175,26.2393279 32.2420598,26.0154703 31.9659175,26.0154703 Z" id="Combined-Shape" stroke="#137FFF" stroke-width="2"></path>
                    </g>
                </g>
            </g>
        </g>
    </g>
</svg>