<?xml version="1.0" encoding="UTF-8"?>
<svg width="71px" height="74px" viewBox="0 0 71 74" version="1.1" xmlns="http://www.w3.org/2000/svg" xmlns:xlink="http://www.w3.org/1999/xlink">
    <!-- Generator: Sketch 57.1 (83088) - https://sketch.com -->
    <title>UI / Icons / Daily Scrum</title>
    <desc>Created with Sketch.</desc>
    <g id="Page-1" stroke="none" stroke-width="1" fill="none" fill-rule="evenodd">
        <g id="Main-Page---Values-Copy" transform="translate(-574.000000, -773.000000)">
            <g id="UI-/-Icons-/-Daily-Scrum" transform="translate(575.000000, 773.000000)">
                <g id="Agile-Icon">
                    <g id="Group-7" transform="translate(0.000000, 5.336634)" fill-rule="nonzero">
                        <ellipse id="Oval" stroke="#FFFFFF" stroke-width="6" cx="35.5440018" cy="32.4036632" rx="29.2117516" ry="29.4036632"></ellipse>
                        <polygon id="Rectangle" fill="#005CFF" points="35.5440018 52.5162818 67.7557534 52.5162818 67.7557534 64.8073265 35.5440018 64.8073265"></polygon>
                        <path d="M59.369753,67.1317445 C59.369753,67.2711505 59.4164277,67.4063758 59.5020669,67.5154759 C59.7111297,67.7818113 60.0936498,67.8270425 60.3578659,67.6171647 L67.4027292,62.0211368 C67.4402221,61.9913546 67.4741466,61.9572279 67.5038025,61.9194479 C67.7142571,61.6513393 67.668714,61.2615791 67.4027292,61.0502963 L60.3578659,55.4542683 C60.250199,55.368744 60.1172908,55.3223208 59.980503,55.3223208 C59.6438621,55.3223208 59.369753,55.5980631 59.369753,55.9396885 L59.369753,67.1317445 Z" id="Path-2" stroke="#FFFFFF" fill="#FFFFFF"></path>
                        <path d="M1.63258758,26.9805496 L12.7583583,26.9805496 C13.648618,26.9805496 14.3691083,27.7053324 14.3691083,28.5979173 C14.3691083,28.9610892 14.2473761,29.3137701 14.0234007,29.5991035 L8.46051538,36.6859388 C7.90923929,37.3882367 6.89480099,37.5081893 6.19612041,36.9531982 C6.09745724,36.874826 6.00828855,36.785126 5.93043047,36.6859388 L0.367545129,29.5991035 C-0.182339155,28.8985786 -0.0636766912,27.8830576 0.633235067,27.3294716 C0.917665554,27.1035366 1.26977392,26.9805496 1.63258758,26.9805496 Z" id="Path-2-Copy-2" stroke="#005CFF" fill="#FFFFFF"></path>
                        <polygon id="Rectangle" fill="#FFFFFF" points="34.4332517 58.8073265 58.869753 58.8073265 58.869753 64.8073265 34.4332517 64.8073265"></polygon>
                    </g>
                    <rect id="Rectangle" fill-rule="nonzero" x="1.23893805" y="7.82927249" width="68.7610619" height="69.1707275"></rect>
                    <g id="Alarm">
                        <rect id="Rectangle" fill-rule="nonzero" x="0" y="0" width="70" height="70.1386139"></rect>
                        <path d="M7.25926232,0.391967529 L7.16238973,14.2093232 L7.52568391,14.2067762 L7.62255651,0.389420497 L7.25926232,0.391967529 Z" id="Rectangle" stroke="#FFFFFF" stroke-width="3" transform="translate(7.392473, 7.299372) rotate(45.000000) translate(-7.392473, -7.299372) "></path>
                        <path d="M62.4849704,0.389420497 L62.581843,14.2067762 L62.9451372,14.2093232 L62.8482646,0.391967529 L62.4849704,0.389420497 Z" id="Rectangle-Copy-5" stroke="#FFFFFF" stroke-width="3" transform="translate(62.715054, 7.299372) rotate(-45.000000) translate(-62.715054, -7.299372) "></path>
                        <path d="M34.6413043,28.1831683 L34.2173913,28.1831683 L34.2173913,41.9402313 C34.2173913,41.9482886 34.2177693,41.9547637 34.2182603,41.9588638 L34.240021,42.1405444 L34.2174683,42.3221284 C34.2174279,42.3224538 34.2173913,42.3230449 34.2173913,42.3240179 L34.2173913,42.7178218 L42.6304348,42.7178218 L42.6304348,42.3240179 C42.6304348,42.3240179 42.6304348,42.3240179 42.6302384,42.3240179 L34.640283,42.322972 L34.6403913,40.82306 L34.6413043,28.1831683 Z" id="Combined-Shape" stroke="#FFFFFF" stroke-width="3"></path>
                    </g>
                </g>
            </g>
        </g>
    </g>
</svg>