<?xml version="1.0" encoding="UTF-8"?>
<svg width="50px" height="45px" viewBox="0 0 50 45" version="1.1" xmlns="http://www.w3.org/2000/svg" xmlns:xlink="http://www.w3.org/1999/xlink">
    <!-- Generator: Sketch 57.1 (83088) - https://sketch.com -->
    <title>Icon</title>
    <desc>Created with Sketch.</desc>
    <g id="Dynamic-Scrum" stroke="none" stroke-width="1" fill="none" fill-rule="evenodd">
        <g id="Scrum-Master" transform="translate(-467.000000, -342.000000)">
            <g id="Img-Prev" transform="translate(269.000000, 210.000000)">
                <g id="UI-/-Icons-/-dev_team" transform="translate(198.000000, 132.000000)">
                    <g id="Icon">
                        <path d="M36.5131579,1.56345849 C31.1175098,1.56345849 26.7390453,5.98900205 26.7390453,11.453584 C26.7390453,14.3292853 27.9573386,17.002731 30.0453767,18.8682194 L30.9263894,19.655331 L30.0157905,20.4080181 C28.3634897,21.7737847 26.953367,23.6381586 25.9181191,25.830031 L25.0001257,27.7736469 L24.0819466,25.8301187 C23.046492,23.638351 21.6362835,21.7743059 19.9839817,20.4090812 L19.0731929,19.6565363 L19.9541304,18.8692567 C22.0426588,17.0027726 23.2609547,14.3292968 23.2609547,11.453584 C23.2609547,5.98900205 18.8824902,1.56345849 13.4868421,1.56345849 C8.09119397,1.56345849 3.71272947,5.98900205 3.71272947,11.453584 C3.71272947,14.3292853 4.93102284,17.002731 7.01906088,18.8682194 L7.90007357,19.655331 L6.98947476,20.4080181 C3.33620738,23.4277531 1.01536105,28.7262204 1.01536105,34.3551058 C1.01536105,40.5397704 18.1103548,42.4993061 24.3257948,37.4020984 L24.9777754,36.8674169 L25.6231281,37.4100798 C31.7096458,42.5280993 48.9846389,40.47601 48.9846389,34.3551058 C48.9846389,28.7260104 46.6636478,23.4276847 43.0102975,20.4090812 L42.0995087,19.6565363 L42.9804462,18.8692567 C45.0689746,17.0027726 46.2872705,14.3292968 46.2872705,11.453584 C46.2872705,5.98900205 41.908806,1.56345849 36.5131579,1.56345849 Z M24.9999991,14.0963635 C24.5380384,16.1566646 23.5418058,18.0483816 22.1150995,19.589699 C23.2035536,20.632686 24.1751332,21.8641761 24.9999065,23.2412707 C25.8245912,21.8640029 26.7961271,20.6322697 27.8845658,19.5889738 C26.4580913,18.0481446 25.4619389,16.1565874 24.9999991,14.0963635 Z" id="Path" stroke="#005CFF" stroke-width="2.03072211" fill="#FFFFFF" fill-rule="nonzero"></path>
                        <path d="M21.7907574,7.34448623 C16.6942079,7.34448623 12.562216,11.4807176 12.562216,16.5835379 C12.562216,19.2679598 13.7107857,21.7641484 15.6805834,23.507064 L16.5739558,24.2975374 L15.6509207,25.0531621 C12.1964725,27.881079 10.0012404,32.8445432 10.0012404,38.1178047 C10.0012404,41.3562434 15.0707388,43.6459987 21.7874976,43.6244344 C28.4826249,43.6029395 33.5802744,41.2895584 33.5802744,38.1178047 C33.5802744,32.8443485 31.3849072,27.8810213 27.9303858,25.0541684 L27.00716,24.2986879 L27.9004573,23.5080447 C29.870725,21.7641923 31.0192988,19.267972 31.0192988,16.5835379 C31.0192988,11.4807176 26.8873068,7.34448623 21.7907574,7.34448623 Z" id="Path" stroke="#005CFF" stroke-width="2.03072211" fill="#FFFFFF" fill-rule="nonzero"></path>
                        <text id="DT" font-family="Noteworthy-Light, Noteworthy" font-size="11" font-weight="300" fill="#005CFF">
                            <tspan x="15.2618445" y="39.1351351">DT</tspan>
                        </text>
                    </g>
                </g>
            </g>
        </g>
    </g>
</svg>