<?xml version="1.0" encoding="UTF-8"?>
<svg width="21px" height="15px" viewBox="0 0 21 15" version="1.1" xmlns="http://www.w3.org/2000/svg" xmlns:xlink="http://www.w3.org/1999/xlink">
    <!-- Generator: Sketch 57.1 (83088) - https://sketch.com -->
    <title>ES</title>
    <desc>Created with Sketch.</desc>
    <defs>
        <rect id="path-1" x="0" y="0" width="21" height="15" rx="2"></rect>
        <filter x="-2.4%" y="-3.3%" width="104.8%" height="106.7%" filterUnits="objectBoundingBox" id="filter-3">
            <feMorphology radius="1" operator="erode" in="SourceAlpha" result="shadowSpreadInner1"></feMorphology>
            <feOffset dx="0" dy="0" in="shadowSpreadInner1" result="shadowOffsetInner1"></feOffset>
            <feComposite in="shadowOffsetInner1" in2="SourceAlpha" operator="arithmetic" k2="-1" k3="1" result="shadowInnerInner1"></feComposite>
            <feColorMatrix values="0 0 0 0 0   0 0 0 0 0   0 0 0 0 0  0 0 0 0.121659873 0" type="matrix" in="shadowInnerInner1"></feColorMatrix>
        </filter>
        <rect id="path-4" x="0.5" y="0.5" width="20" height="14" rx="1"></rect>
    </defs>
    <g id="Page-1" stroke="none" stroke-width="1" fill="none" fill-rule="evenodd">
        <g id="Main-Page---Values" transform="translate(-1086.000000, -47.000000)">
            <g id="ES" transform="translate(1086.000000, 47.000000)">
                <mask id="mask-2" fill="white">
                    <use xlink:href="#path-1"></use>
                </mask>
                <g id="background">
                    <use fill="#FFD128" fill-rule="evenodd" xlink:href="#path-1"></use>
                    <use fill="black" fill-opacity="1" filter="url(#filter-3)" xlink:href="#path-1"></use>
                </g>
                <rect id="bottom" fill="#CF3F4F" mask="url(#mask-2)" x="0" y="11" width="21" height="4"></rect>
                <rect id="top" fill="#CF3F4F" mask="url(#mask-2)" x="0" y="0" width="21" height="4"></rect>
                <path d="M3.99980749,5 L7.00019251,5 C7.51656258,5 7.93603857,5.38596587 7.99332917,5.88320882 L8,5.99980749 L8,9.00019251 C8,9.51656258 7.61403413,9.93603857 7.11679118,9.99332917 L7.00019251,10 L3.99980749,10 C3.48343742,10 3.06396143,9.61403413 3.00667083,9.11679118 L3,9.00019251 L3,5.99980749 C3,5.48343742 3.38596587,5.06396143 3.88320882,5.00667083 L3.99980749,5 L7.00019251,5 Z M4,6 L4,9 L5,9 L5,6 L4,6 Z M6,9 L7,9 L7,6 L6,6 L6,9 Z" id="symbol" fill="#CF3F4F" mask="url(#mask-2)"></path>
                <path d="M7,7 L7,8 L6,8 L6,7 L7,7 Z M5,6 L5,7 L4,7 L4,6 L5,6 Z" id="circles" fill="#DC6943" mask="url(#mask-2)"></path>
                <mask id="mask-5" fill="white">
                    <use xlink:href="#path-4"></use>
                </mask>
                <use id="overlay" stroke-opacity="0.156646286" stroke="#2F343A" xlink:href="#path-4"></use>
            </g>
        </g>
    </g>
</svg>