<?xml version="1.0" encoding="UTF-8"?>
<svg width="84px" height="70px" viewBox="0 0 84 70" version="1.1" xmlns="http://www.w3.org/2000/svg" xmlns:xlink="http://www.w3.org/1999/xlink">
    <!-- Generator: Sketch 57.1 (83088) - https://sketch.com -->
    <title>UI / Icons / events_focus</title>
    <desc>Created with Sketch.</desc>
    <g id="Page-1" stroke="none" stroke-width="1" fill="none" fill-rule="evenodd">
        <g id="Main-Page---Values" transform="translate(-669.000000, -727.000000)" fill="#FFFFFF">
            <g id="events" transform="translate(297.000000, 727.000000)">
                <g id="UI-/-Icons-/-values_focus" transform="translate(372.000000, 0.000000)">
                    <g id="iconmonstr-target-4">
                        <path d="M21,35 C21,42.721 27.279,49 35,49 C41.1635,49 46.347,44.9715 48.2125,39.431 L55.9965,34.9125 L56,35 C56,46.599 46.599,56 35,56 C23.401,56 14,46.599 14,35 C14,23.401 23.401,14 35,14 C38.794,14 42.343,15.022 45.4125,16.779 L37.6775,21.2695 C36.8095,21.1015 35.917,21 35,21 C27.279,21 21,27.279 21,35 Z M35,28 C31.1325,28 28,31.136 28,35 C28,38.864 31.1325,42 35,42 C38.8675,42 42,38.864 42,35 L41.993,34.9475 L53.753,28.1225 C57.169,26.145 63.217,26.9465 66.7415,28.679 L84,18.6585 L72.947,13.167 L73.5385,0.455 L56.231,10.5 C55.986,14.4235 53.662,20.076 50.2635,22.0535 L38.423,28.9275 C37.408,28.357 36.2495,28 35,28 Z M62.9825,34.6885 L63,35 C63,50.4385 50.4385,63 35,63 C19.5615,63 7,50.4385 7,35 C7,19.5615 19.5615,7 35,7 C40.1625,7 44.9855,8.428 49.1435,10.8745 C50.3125,8.8235 50.6415,5.4705 49.6545,3.2445 C45.192,1.183 40.2395,0 35,0 C15.6695,0 0,15.6695 0,35 C0,54.3305 15.6695,70 35,70 C53.3155,70 68.3235,55.9265 69.8495,38.003 C68.796,36.3125 66.1185,34.2895 62.9825,34.6885 Z" id="Shape" fill-rule="nonzero"></path>
                    </g>
                </g>
            </g>
        </g>
    </g>
</svg>