<?xml version="1.0" encoding="UTF-8"?>
<svg width="48px" height="35px" viewBox="0 0 48 35" version="1.1" xmlns="http://www.w3.org/2000/svg" xmlns:xlink="http://www.w3.org/1999/xlink">
    <!-- Generator: Sketch 57.1 (83088) - https://sketch.com -->
    <title>Improvement</title>
    <desc>Created with Sketch.</desc>
    <g id="Dynamic-Scrum" stroke="none" stroke-width="1" fill="none" fill-rule="evenodd">
        <g id="Sprint-Review" transform="translate(-415.000000, -425.000000)" fill="#137FFF" fill-rule="nonzero">
            <g id="Improvement" transform="translate(415.000000, 425.000000)">
                <path d="M13.7910877,4 L1.70530257e-13,11.6056475 L1.70530257e-13,26.982999 L13.7910877,34.4225898 L27.5821754,26.982999 L27.5821754,11.688042 L13.7910877,4 Z M23.7081335,12.4245222 L13.7973564,17.7712923 L3.92795253,12.328184 L13.784819,6.89141364 L23.7081335,12.4245222 L23.7081335,12.4245222 Z M2.50747049,14.4324131 L12.5373525,19.9629864 L12.5373525,30.8732877 L2.50747049,25.4631371 L2.50747049,14.4324131 Z M15.0448229,30.8732877 L15.0448229,19.9718597 L25.0747049,14.5604415 L25.0747049,25.4618695 L15.0448229,30.8732877 Z" id="Shape"></path>
                <g id="Plus" transform="translate(32.000000, 0.000000)">
                    <rect id="Rectangle" x="6" y="0" width="4" height="16"></rect>
                    <rect id="Rectangle" transform="translate(8.000000, 8.000000) rotate(90.000000) translate(-8.000000, -8.000000) " x="6" y="0" width="4" height="16"></rect>
                </g>
            </g>
        </g>
    </g>
</svg>