<?xml version="1.0" encoding="UTF-8"?>
<svg width="78px" height="60px" viewBox="0 0 78 60" version="1.1" xmlns="http://www.w3.org/2000/svg" xmlns:xlink="http://www.w3.org/1999/xlink">
    <!-- Generator: Sketch 57.1 (83088) - https://sketch.com -->
    <title>UI / Icons / increment</title>
    <desc>Created with Sketch.</desc>
    <g id="Page-1" stroke="none" stroke-width="1" fill="none" fill-rule="evenodd">
        <g id="Main-Page---Artifact" transform="translate(-1011.000000, -739.000000)" fill="#FFFFFF">
            <g id="UI-/-Icons-/-increment" transform="translate(1011.000000, 739.000000)">
                <g id="Group-3">
                    <g id="iconmonstr-cube-18" transform="translate(21.711340, 2.465753)" fill-rule="nonzero">
                        <path d="M42.2164948,24.0469178 L42.2164948,8.64931507 L28.0598969,0 L14.0721649,8.55582192 L14.0721649,24.1356164 L0,31.8643836 L0,49.1630137 L14.391134,57.5342466 L28.1443299,49.4003425 L41.8975258,57.5342466 L56.2886598,49.1630137 L56.2886598,31.9578767 L42.2164948,24.0469178 Z M39.4020619,23.8374807 L28.9484536,29.5890411 L28.9484536,17.6323576 L39.4020619,11.5068493 L39.4020619,23.8374807 Z M28.427354,3.28767123 L38.5979381,9.55710893 L28.436877,15.6164384 L18.4948454,9.44843224 L28.427354,3.28767123 Z M4.02061856,32.4366533 L15.1015593,26.3013699 L24.9278351,32.1626268 L14.1020018,38.630137 L4.02061856,32.4366533 Z M15.2783505,41.0461314 L26.5360825,34.5205479 L26.5360825,46.7538998 L15.2783505,53.4246575 L15.2783505,41.0461314 L15.2783505,41.0461314 Z M31.3608247,32.075572 L41.2091997,26.3013699 L52.2680412,32.5684328 L42.1413981,38.630137 L31.3608247,32.075572 L31.3608247,32.075572 Z M53.8762887,47.4263972 L43.4226804,53.4246575 L43.4226804,41.3383637 L53.8762887,35.3424658 L53.8762887,47.4263972 Z" id="Shape"></path>
                    </g>
                    <g id="iconmonstr-cube-2" fill-rule="nonzero">
                        <path d="M14.0721649,0 L0,7.80821918 L0,23.595137 L14.0721649,31.2328767 L28.1443299,23.595137 L28.1443299,7.89280822 L14.0721649,0 Z M24.1913308,8.64890411 L14.0785614,14.1380822 L4.00800843,8.55 L14.0657685,2.96842466 L24.1913308,8.64890411 L24.1913308,8.64890411 Z M2.55857545,10.710274 L12.7928772,16.3881507 L12.7928772,27.5890411 L2.55857545,22.0347945 L2.55857545,10.710274 Z M15.3514527,27.5890411 L15.3514527,16.3972603 L25.5857545,10.8417123 L25.5857545,22.0334932 L15.3514527,27.5890411 Z" id="Shape"></path>
                    </g>
                </g>
            </g>
        </g>
    </g>
</svg>