<?xml version="1.0" encoding="UTF-8"?>
<svg width="77px" height="59px" viewBox="0 0 77 59" version="1.1" xmlns="http://www.w3.org/2000/svg" xmlns:xlink="http://www.w3.org/1999/xlink">
    <!-- Generator: Sketch 57.1 (83088) - https://sketch.com -->
    <title>Group 3</title>
    <desc>Created with Sketch.</desc>
    <g id="Dynamic-Scrum" stroke="none" stroke-width="1" fill="none" fill-rule="evenodd">
        <g id="Product-Increment" transform="translate(-429.000000, -505.000000)" fill="#137FFF" fill-rule="nonzero">
            <g id="Group-4" transform="translate(367.000000, 237.000000)">
                <g id="UI-/-Icons-/-increment" transform="translate(62.000000, 268.000000)">
                    <g id="Group-3">
                        <g id="iconmonstr-cube-18" transform="translate(21.277678, 2.401783)">
                            <path d="M41.3732631,23.4230591 L41.3732631,8.42492246 L27.4994289,0 L13.7910877,8.33385484 L13.7910877,23.5094566 L0,31.0377132 L0,47.8875582 L14.1036857,56.0416128 L27.5821754,48.1187298 L41.0606651,56.0416128 L55.1643508,47.8875582 L55.1643508,31.1287809 L41.3732631,23.4230591 Z M38.6150456,23.2190555 L28.3702376,28.8214009 L28.3702376,17.1749144 L38.6150456,11.2083226 L38.6150456,23.2190555 Z M27.8595464,3.20237788 L37.8269834,9.30916507 L27.8688792,15.2112949 L18.1254296,9.20330782 L27.8595464,3.20237788 Z M3.94031077,31.5951363 L14.7999209,25.619023 L24.4299268,31.328219 L13.8203286,37.62794 L3.94031077,31.5951363 Z M14.9731809,39.9812554 L26.0060511,33.6249677 L26.0060511,45.5409449 L14.9731809,52.0386405 L14.9731809,39.9812554 L14.9731809,39.9812554 Z M30.734424,31.2434227 L40.3860876,25.619023 L51.22404,31.723497 L41.2996664,37.62794 L30.734424,31.2434227 L30.734424,31.2434227 Z M52.8001644,46.1959953 L42.5553563,52.0386405 L42.5553563,40.2659061 L52.8001644,34.4255622 L52.8001644,46.1959953 Z" id="Shape"></path>
                        </g>
                        <g id="iconmonstr-cube-2">
                            <path d="M13.7910877,0 L0,7.60564745 L0,22.982999 L13.7910877,30.4225898 L27.5821754,22.982999 L27.5821754,7.68804197 L13.7910877,0 Z M23.7081335,8.42452216 L13.7973564,13.7712923 L3.92795253,8.32818396 L13.784819,2.89141364 L23.7081335,8.42452216 L23.7081335,8.42452216 Z M2.50747049,10.4324131 L12.5373525,15.9629864 L12.5373525,26.8732877 L2.50747049,21.4631371 L2.50747049,10.4324131 Z M15.0448229,26.8732877 L15.0448229,15.9718597 L25.0747049,10.5604415 L25.0747049,21.4618695 L15.0448229,26.8732877 Z" id="Shape"></path>
                        </g>
                    </g>
                </g>
            </g>
        </g>
    </g>
</svg>