<?xml version="1.0" encoding="UTF-8"?>
<svg width="74px" height="96px" viewBox="0 0 74 96" version="1.1" xmlns="http://www.w3.org/2000/svg" xmlns:xlink="http://www.w3.org/1999/xlink">
    <!-- Generator: Sketch 57.1 (83088) - https://sketch.com -->
    <title>Avataaar/Default Copy</title>
    <desc>Created with Sketch.</desc>
    <defs>
        <path d="M36.3636364,0 C47.6101622,-2.06595328e-15 56.7272727,9.11711055 56.7272727,20.3636364 L56.7276159,22.6461053 C58.7912386,22.9924853 60.3636364,24.7872914 60.3636364,26.9493506 L60.3636364,32.0649351 C60.3636364,34.2646691 58.7359618,36.0842393 56.6192958,36.3849627 C55.8786548,43.6011497 51.3686082,49.7011622 45.0905072,52.6833938 L45.0903559,59.4368823 C60.3549026,60.3916141 72.4728941,72.9522435 72.7233196,88.3977597 L72.7272727,88.8857143 L0,88.8857143 C-1.91875456e-15,73.2178943 12.2114089,60.4022016 27.6359182,59.4369448 L27.6357703,52.682921 C21.3581879,49.7005175 16.8485787,43.6007683 16.1074761,36.3842066 C13.9908018,36.0836701 12.3636364,34.264325 12.3636364,32.0649351 L12.3636364,26.9493506 C12.3636364,24.7872914 13.9360342,22.9924853 15.9996568,22.6461053 L16,20.3636364 C16,9.11711055 25.1171105,2.06595328e-15 36.3636364,0 Z" id="path-1"></path>
        <path d="M68.3636364,12.7552448 C68.3636364,13.0956762 68.3423135,13.4300828 68.300634,13.7583002 C77.7003698,18.5650618 84.1774664,28.2738766 84.3596903,39.5129121 L84.3636364,40 L11.6363636,40 C11.6363636,28.5548651 18.1640989,18.6343644 27.6995744,13.758493 C27.6576865,13.4300828 27.6363636,13.0956762 27.6363636,12.7552448 C27.6363636,7.5139289 32.6907382,5.48953796 39.2728461,4.75303602 L39.2727273,11.6363636 C39.2727273,16.4563033 43.1800604,20.3636364 48,20.3636364 C52.8199396,20.3636364 56.7272727,16.4563033 56.7272727,11.6363636 L56.7272727,11.6363636 L56.7269536,4.75301361 C63.3091593,5.4894969 68.3636364,7.51387573 68.3636364,12.7552448 Z" id="path-3"></path>
        <path d="M12.6814436,5.50111897 C13.0634516,8.95265546 15.9704954,11.6363636 19.5,11.6363636 C23.0404075,11.6363636 25.9545027,8.93604944 26.3220242,5.46911077 C26.3516025,5.19008945 26.0421572,4.72727273 25.6543325,4.72727273 C20.2759388,4.72727273 16.1553605,4.72727273 13.3924644,4.72727273 C13.0023894,4.72727273 12.6432243,5.15579765 12.6814436,5.50111897 Z" id="path-5"></path>
        <rect id="path-7" x="0" y="0" width="96" height="102"></rect>
        <path d="M65.6937895,14.5424345 C64.6874061,13.5151453 63.518923,12.6432022 62.3823964,11.7688147 C62.1316239,11.5760682 61.8768263,11.3879661 61.6316644,11.1878861 C61.5759236,11.1424189 61.0049769,10.7339477 60.9366731,10.5836127 C60.7722561,10.2219531 60.8675155,10.5035562 60.8902021,10.0719848 C60.9188653,9.52625649 62.0328273,7.98489491 61.2015943,7.63142432 C60.835925,7.47595592 60.1836236,7.88968275 59.8328347,8.02632871 C59.1467474,8.2937539 58.452244,8.5218231 57.7429821,8.71848085 C58.0827935,8.04209555 58.730704,6.68810272 57.5129446,7.05049564 C56.5642535,7.33283211 55.680207,8.05871796 54.726881,8.40021064 C55.0422982,7.88369379 56.3037232,6.283176 55.1639034,6.19370834 C54.8092115,6.16584136 53.7770921,6.8304932 53.3952006,6.97227255 C52.2513558,7.39699949 51.0829947,7.67151365 49.8820673,7.88772717 C45.7985972,8.62290201 41.0234291,8.41328857 37.2453746,10.2704759 C34.332705,11.7022029 31.4566267,13.9237387 29.7740355,16.7526035 C28.1523079,19.4792893 27.5457457,22.4633781 27.2063001,25.5879017 C26.9572351,27.8809383 26.9369879,30.2512202 27.0534703,32.552568 C27.0915253,33.3065652 27.1764172,36.7822372 28.2729373,35.7296477 C28.8192458,35.2051863 28.8152208,33.0874184 28.9528041,32.3705771 C29.2266292,30.9443501 29.4902088,29.5117675 29.9467466,28.1311299 C30.7512679,25.6981473 31.7003249,23.1065185 33.7045538,21.4308332 C34.990739,20.3556324 35.8939349,18.902394 37.1247452,17.8176598 C37.6776401,17.3304766 37.2557421,17.3811994 38.1446674,17.4451223 C38.7418379,17.4880228 39.3416917,17.5044007 39.9400819,17.5200453 C41.3243318,17.5559791 42.7107771,17.5468123 44.0953929,17.5517012 C46.883896,17.5617236 49.6593481,17.6010796 52.4451678,17.4552668 C53.6831744,17.3904883 54.9245961,17.3554102 56.1593095,17.2410089 C56.849056,17.177086 58.0729139,16.7354922 58.6406893,17.0729515 C59.1602861,17.3816882 59.6998862,18.3897883 60.0729958,18.8026596 C60.9544809,19.7783704 62.0055058,20.5235676 63.0362834,21.3236432 C65.185658,22.9918728 66.2708348,25.0871517 66.923624,27.6941806 C67.5739739,30.291554 67.3916271,32.7012546 68.1966363,35.2573164 C68.3382447,35.7067325 68.7128179,36.4813855 69.1746005,35.7870334 C69.2603462,35.6580875 69.2381474,34.9492172 69.2381474,34.5413306 C69.2381474,32.8948519 69.6555325,31.6594803 69.6503367,30.0022507 C69.6297966,24.9634614 69.4667212,18.3930884 65.6937895,14.5424345 Z" id="path-9"></path>
    </defs>
    <g id="Page-1" stroke="none" stroke-width="1" fill="none" fill-rule="evenodd">
        <g id="Main-Page---Artifact" transform="translate(-683.000000, -239.000000)">
            <g id="Avatar" transform="translate(644.000000, 16.000000)">
                <g transform="translate(0.000000, 192.000000)" id="Avataaar/Default">
                    <g transform="translate(28.000000, 25.000000)">
                        <g id="Body" stroke-width="1" fill-rule="evenodd" transform="translate(11.636364, 13.114286)">
                            <mask id="mask-2" fill="white">
                                <use xlink:href="#path-1"></use>
                            </mask>
                            <use fill="#D0C6AC" xlink:href="#path-1"></use>
                            <g id="Skin/ðŸ‘¶ðŸ½-03-Brown" mask="url(#mask-2)" fill="#FFDBB4">
                                <g transform="translate(-11.636364, 0.000000)" id="Color">
                                    <rect x="0" y="0" width="96" height="89"></rect>
                                </g>
                            </g>
                            <path d="M16,34.2792208 C16,45.5257466 25.1171105,54.6428571 36.3636364,54.6428571 C47.6101622,54.6428571 56.7272727,45.5257466 56.7272727,34.2792208 L56.7272727,34.2792208 L56.7272727,37.1935065 C56.7272727,48.4400323 47.6101622,57.5571429 36.3636364,57.5571429 C25.1171105,57.5571429 16,48.4400323 16,37.1935065 Z" id="Neck-Shadow" fill-opacity="0.100000001" fill="#000000" mask="url(#mask-2)"></path>
                        </g>
                        <g id="Clothing/Hoodie" transform="translate(0.000000, 61.928571)">
                            <mask id="mask-4" fill="white">
                                <use xlink:href="#path-3"></use>
                            </mask>
                            <use id="Hoodie" fill="#B7C1DB" fill-rule="evenodd" xlink:href="#path-3"></use>
                            <g id="Color/Palette/Heather" mask="url(#mask-4)" fill="#3C4F5C" fill-rule="evenodd">
                                <rect id="ðŸ–Color" x="0" y="0" width="96" height="40"></rect>
                            </g>
                            <path d="M37.090729,22.4504856 L37.0909091,40 L34.5454545,40 L34.5449681,21.1452609 C35.346421,21.6216304 36.1985301,22.0583302 37.090729,22.4504856 Z M61.4551881,21.145168 L61.4545455,35.8181818 C61.4545455,36.5210897 60.884726,37.0909091 60.1818182,37.0909091 C59.4789103,37.0909091 58.9090909,36.5210897 58.9090909,35.8181818 L58.909271,22.4504856 C59.8015279,22.0583047 60.6536897,21.6215736 61.4551881,21.145168 Z" id="Straps" fill="#F4F4F4" fill-rule="evenodd" mask="url(#mask-4)"></path>
                            <path d="M48,24.7272727 C58.2468346,24.7272727 68.3636364,18.715991 68.3636364,11.3006993 C68.3636364,7.89468658 66.2292193,5.84715244 62.9281706,4.62872833 C68.3987905,5.66343246 72.1818182,7.72584192 72.1818182,11.7482517 C72.1818182,18.9163671 60.1681161,24.7272727 48,24.7272727 L48,24.7272727 Z M48,24.7272727 L47.6117226,24.7253052 C35.5776328,24.6034828 23.8181818,18.8401106 23.8181818,11.7482517 C23.8181818,7.72534995 27.602135,5.66292799 33.0737001,4.62755076 C29.7712118,5.84673893 27.6363636,7.89434265 27.6363636,11.3006993 C27.6363636,18.715991 37.7531654,24.7272727 48,24.7272727 Z" id="Shadow" fill-opacity="0.16" fill="#000000" fill-rule="evenodd" mask="url(#mask-4)"></path>
                        </g>
                        <g id="Face" stroke-width="1" fill-rule="evenodd" transform="translate(27.636364, 29.871429)">
                            <g id="Mouth/Smile" transform="translate(0.727273, 18.942857)">
                                <mask id="mask-6" fill="white">
                                    <use xlink:href="#path-5"></use>
                                </mask>
                                <use id="Mouth" fill-opacity="0.699999988" fill="#000000" fill-rule="evenodd" xlink:href="#path-5"></use>
                                <path d="M16.9924242,0.727272727 L22.3686869,0.727272727 C23.9753334,0.727272727 25.2777778,2.02971709 25.2777778,3.63636364 C25.2777778,5.24301018 23.9753334,6.54545455 22.3686869,6.54545455 L16.9924242,6.54545455 C15.3857777,6.54545455 14.0833333,5.24301018 14.0833333,3.63636364 C14.0833333,2.02971709 15.3857777,0.727272727 16.9924242,0.727272727 Z" id="Teeth" fill="#FFFFFF" fill-rule="evenodd" mask="url(#mask-6)"></path>
                                <g id="Tongue" stroke-width="1" fill-rule="evenodd" mask="url(#mask-6)" fill="#FF4F6D">
                                    <g transform="translate(13.722222, 8.727273)">
                                        <ellipse cx="3.97222222" cy="4" rx="3.97222222" ry="4"></ellipse>
                                        <ellipse cx="7.58333333" cy="4" rx="3.97222222" ry="4"></ellipse>
                                    </g>
                                </g>
                            </g>
                            <g id="Nose/Default" transform="translate(10.181818, 14.571429)" fill="#000000" fill-opacity="0.16">
                                <path d="M5.71428571,3 C5.71428571,4.65685425 7.63306536,6 10,6 L10,6 C12.3669346,6 14.2857143,4.65685425 14.2857143,3" id="Nose"></path>
                            </g>
                            <g id="Eyes/Default-ðŸ˜€" transform="translate(0.000000, 2.914286)" fill="#000000" fill-opacity="0.599999964">
                                <ellipse id="Eye" cx="10.9821429" cy="8" rx="2.19642857" ry="2.18181818"></ellipse>
                                <ellipse id="Eye" cx="30.0178571" cy="8" rx="2.19642857" ry="2.18181818"></ellipse>
                            </g>
                            <g id="Eyebrow/Outline/Default" fill="#000000" fill-opacity="0.599999964">
                                <g id="I-Browse" transform="translate(4.392857, 2.250000)">
                                    <path d="M1.32892911,4.18446628 C2.76206567,2.11870002 6.69102418,0.960313954 10.0753937,1.81169267 C10.4680778,1.91047706 10.8645851,1.66446005 10.9610174,1.26219829 C11.0574498,0.859936539 10.8172904,0.453758385 10.4246063,0.354973995 C6.49424013,-0.633756709 1.9446079,0.70762437 0.135356609,3.31553372 C-0.0988794167,3.65316859 -0.0215749291,4.12139291 0.308021015,4.36134201 C0.637616958,4.60129111 1.09469308,4.52210115 1.32892911,4.18446628 Z" id="Eyebrow" fill-rule="nonzero"></path>
                                    <path d="M22.561072,4.18446628 C23.9942085,2.11870002 27.923167,0.960313954 31.3075366,1.81169267 C31.7002207,1.91047706 32.0967279,1.66446005 32.1931603,1.26219829 C32.2895927,0.859936539 32.0494332,0.453758385 31.6567491,0.354973995 C27.726383,-0.633756709 23.1767508,0.70762437 21.3674995,3.31553372 C21.1332634,3.65316859 21.2105679,4.12139291 21.5401639,4.36134201 C21.8697598,4.60129111 22.3268359,4.52210115 22.561072,4.18446628 Z" id="Eyebrow" fill-rule="nonzero" transform="translate(26.723271, 2.264699) scale(-1, 1) translate(-26.723271, -2.264699) "></path>
                                </g>
                            </g>
                        </g>
                        <g id="Top" stroke-width="1" fill-rule="evenodd">
                            <mask id="mask-8" fill="white">
                                <use xlink:href="#path-7"></use>
                            </mask>
                            <g id="Mask"></g>
                            <g id="Top/Short-Hair/Short-Flat" mask="url(#mask-8)">
                                <g transform="translate(-0.363636, 0.000000)">
                                    <g id="Facial-Hair/-Blank" stroke="none" fill="none" transform="translate(17.868421, 26.228571)"></g>
                                    <mask id="mask-10" fill="white">
                                        <use xlink:href="#path-9"></use>
                                    </mask>
                                    <use id="Short-Hair" stroke="none" fill="#1F3140" fill-rule="evenodd" xlink:href="#path-9"></use>
                                    <g id="Color/Hair/Black" stroke="none" fill="none" mask="url(#mask-10)" fill-rule="evenodd">
                                        <g transform="translate(0.364662, 0.000000)" fill="#2C1B18" id="Color">
                                            <rect x="0" y="0" width="96" height="102"></rect>
                                        </g>
                                    </g>
                                    <g id="Top/_Resources/Blank" stroke="none" fill="none" mask="url(#mask-10)">
                                        <g transform="translate(22.609023, 30.964286)"></g>
                                    </g>
                                </g>
                            </g>
                        </g>
                    </g>
                </g>
            </g>
        </g>
    </g>
</svg>