<?xml version="1.0" encoding="UTF-8"?>
<svg width="53px" height="70px" viewBox="0 0 53 70" version="1.1" xmlns="http://www.w3.org/2000/svg" xmlns:xlink="http://www.w3.org/1999/xlink">
    <!-- Generator: Sketch 57.1 (83088) - https://sketch.com -->
    <title>UI / Icons / events_openness</title>
    <desc>Created with Sketch.</desc>
    <g id="Page-1" stroke="none" stroke-width="1" fill="none" fill-rule="evenodd">
        <g id="Main-Page---Values" transform="translate(-297.000000, -727.000000)" fill="#FFFFFF">
            <g id="events" transform="translate(297.000000, 727.000000)">
                <g id="UI-/-Icons-/-values_openness">
                    <g id="iconmonstr-lock-16">
                        <path d="M14.7222222,29.1666667 L14.7222222,17.5 C14.7222222,11.0658333 20.0075,5.83333333 26.5,5.83333333 C32.9925,5.83333333 38.2777778,11.0658333 38.2777778,17.5 L38.2777778,20.4166667 L44.1666667,20.4166667 L44.1666667,17.5 C44.1666667,7.83708333 36.2549444,0 26.5,0 C16.7450556,0 8.83333333,7.83708333 8.83333333,17.5 L8.83333333,29.1666667 L0,29.1666667 L0,70 L53,70 L53,29.1666667 L14.7222222,29.1666667 Z M47,64 L6,64 L6,35 L47,35 L47,64 Z" id="Shape" fill-rule="nonzero"></path>
                    </g>
                </g>
            </g>
        </g>
    </g>
</svg>