<?xml version="1.0" encoding="UTF-8"?>
<svg width="68px" height="63px" viewBox="0 0 68 63" version="1.1" xmlns="http://www.w3.org/2000/svg" xmlns:xlink="http://www.w3.org/1999/xlink">
    <!-- Generator: Sketch 57.1 (83088) - https://sketch.com -->
    <title>Organization</title>
    <desc>Created with Sketch.</desc>
    <g id="Dynamic-Scrum" stroke="none" stroke-width="1" fill="none" fill-rule="evenodd">
        <g id="Scrum-Master" transform="translate(-462.000000, -476.000000)" fill-rule="nonzero">
            <g id="Img-Prev" transform="translate(269.000000, 210.000000)">
                <g id="Organization" transform="translate(193.000000, 266.000000)">
                    <rect id="Base" fill="#137FFF" x="0" y="61" width="68" height="2"></rect>
                    <g id="Building2" transform="translate(22.000000, 14.000000)">
                        <g id="Walls" transform="translate(0.000000, 0.852941)">
                            <rect id="Rectangle" fill="#137FFF" x="34" y="10.1470588" width="6" height="1"></rect>
                            <rect id="Rectangle" fill="#137FFF" x="10" y="10.1470588" width="17" height="1"></rect>
                            <rect id="Rectangle" fill="#137FFF" x="29" y="10.1470588" width="3" height="1"></rect>
                            <rect id="Rectangle" stroke="#137FFF" x="19.5" y="36.6470588" width="6" height="10" rx="2"></rect>
                            <rect id="Rectangle" stroke="#137FFF" stroke-width="2" x="10" y="7.14705882" width="31" height="40"></rect>
                            <rect id="Rectangle-Copy" stroke="#137FFF" x="0.5" y="10.6470588" width="7" height="7" rx="1"></rect>
                            <rect id="Rectangle" stroke="#137FFF" stroke-width="2" x="7" y="1" width="38" height="6" rx="3"></rect>
                        </g>
                        <g id="Windows" transform="translate(11.000000, 15.000000)" stroke="#137FFF">
                            <rect id="Rectangle-Copy" x="20.5" y="0.5" width="6" height="6" rx="1"></rect>
                            <rect id="Rectangle-Copy" x="10.5" y="0.5" width="6" height="6" rx="1"></rect>
                            <rect id="Rectangle-Copy" x="0.5" y="0.5" width="6" height="6" rx="1"></rect>
                            <rect id="Rectangle-Copy" x="20.5" y="10.5" width="6" height="6" rx="1"></rect>
                            <rect id="Rectangle-Copy-4" x="10.5" y="10.5" width="6" height="6" rx="1"></rect>
                            <rect id="Rectangle-Copy-5" x="0.5" y="10.5" width="6" height="6" rx="1"></rect>
                        </g>
                    </g>
                    <g id="Building1" transform="translate(1.000000, 0.000000)">
                        <g id="walls" transform="translate(0.000000, 0.852941)">
                            <rect id="Rectangle" stroke="#137FFF" x="15.5" y="51.6470588" width="6" height="10" rx="2"></rect>
                            <rect id="Rectangle" stroke="#137FFF" stroke-width="2" fill="#FFFFFF" x="4" y="7.14705882" width="29" height="54"></rect>
                            <rect id="Rectangle" stroke="#137FFF" stroke-width="2" x="1" y="1" width="35" height="6" rx="3"></rect>
                            <rect id="Rectangle" fill="#137FFF" x="27" y="10.1470588" width="6" height="1"></rect>
                            <rect id="Rectangle" fill="#137FFF" x="3" y="10.1470588" width="17" height="1"></rect>
                            <rect id="Rectangle" fill="#137FFF" x="22" y="10.1470588" width="3" height="1"></rect>
                        </g>
                        <g id="windows" transform="translate(8.000000, 15.000000)" stroke="#137FFF">
                            <rect id="Rectangle" x="0.5" y="0.5" width="7" height="7" rx="1"></rect>
                            <rect id="Rectangle-Copy" x="13.5" y="0.5" width="7" height="7" rx="1"></rect>
                            <rect id="Rectangle" x="0.5" y="10.5" width="7" height="7" rx="1"></rect>
                            <rect id="Rectangle-Copy" x="13.5" y="10.5" width="7" height="7" rx="1"></rect>
                            <rect id="Rectangle-Copy-3" x="0.5" y="20.5" width="7" height="7" rx="1"></rect>
                            <rect id="Rectangle-Copy-2" x="13.5" y="20.5" width="7" height="7" rx="1"></rect>
                        </g>
                    </g>
                </g>
            </g>
        </g>
    </g>
</svg>