<?xml version="1.0" encoding="UTF-8"?>
<svg width="130px" height="116px" viewBox="0 0 130 116" version="1.1" xmlns="http://www.w3.org/2000/svg" xmlns:xlink="http://www.w3.org/1999/xlink">
    <!-- Generator: Sketch 57.1 (83088) - https://sketch.com -->
    <title>Group 2</title>
    <desc>Created with Sketch.</desc>
    <g id="Dynamic-Scrum" stroke="none" stroke-width="1" fill="none" fill-rule="evenodd">
        <g id="Product-Backlog" transform="translate(-396.000000, -214.000000)">
            <g id="Group-2" transform="translate(392.000000, 214.000000)">
                <path d="M63.1744794,77.0555423 C63.2129431,77.2861266 63.2694802,77.6538021 63.34131,78.0180866 C63.3528954,78.0757327 63.4275057,78.1353164 63.4863598,78.1629284 C63.5396529,78.1881183 63.6624587,78.1861806 63.6666295,78.1706791 C63.895558,77.2972683 64.2662925,76.4490473 64.1536819,75.5131462 C64.1407062,75.4056047 63.9748025,75.3004854 63.8603382,75.2278223 C63.7032395,75.1270627 63.5947997,75.202148 63.4960916,75.3634601 C63.2027479,75.842068 63.3046999,76.3952766 63.1744794,77.0555423 M64.3033634,77.226741 C64.2662434,77.4623292 64.2433573,77.5316199 64.2472647,77.5964402 C64.2548003,77.7274219 64.2517303,77.9044483 64.3008515,77.9706097 C64.3415999,78.0251482 64.4817072,77.9947497 64.5255256,77.9214357 C64.7641545,77.5249143 64.9902241,77.1091704 65.211828,76.687615 C65.2810444,76.5557392 65.2397378,76.4350393 65.1565666,76.3250683 C64.7719693,75.8163408 64.4931502,75.9026188 64.3876511,76.5789851 C64.3457864,76.8489951 64.316481,77.1239226 64.3033634,77.226741 M68.8542455,78.6217423 C68.8369501,78.5657729 68.8292337,78.4828708 68.801029,78.4572006 C68.6248822,78.2943422 68.4492677,78.1264339 68.2619455,78.0031329 C68.2103254,77.9690462 68.0826057,78.0494234 68.0538688,78.1323254 C67.8734648,78.6583539 67.8479208,79.2399309 67.8553711,79.8252953 C67.8561694,79.8753732 67.8944853,79.9431257 67.925883,79.9679542 C67.9599416,79.9940452 68.0219389,80.0083532 68.0458863,79.978054 C68.3018579,79.6523372 68.5580955,79.3249371 68.801029,78.9756542 C68.8478595,78.9083226 68.8380144,78.7425184 68.8542455,78.6217423 M65.7107917,80.6033705 C65.7107917,80.2875191 65.7424495,80.0414433 65.5604169,79.9744586 C65.4823047,79.9460832 65.3518881,80.0549333 65.2779051,80.1484328 C64.4950619,81.1369223 63.8853044,82.3910247 62.850919,82.9934219 C62.7112116,83.0743617 62.6699187,83.6097742 62.7624835,83.8014248 C62.8777593,84.0395927 63.0401778,83.9819114 63.191929,83.8907378 C63.735962,83.5655829 64.2751776,83.2255425 64.8202429,82.9036438 C65.1949754,82.6831525 65.4334415,82.33753 65.5046716,81.7742073 C65.5593846,81.3434584 65.6533258,80.9215479 65.7107917,80.6033705 M26.3425436,78.9708249 C25.584441,79.0056789 24.2891151,79.0749223 22.9937893,79.1232533 C20.5014101,79.2161974 18.0084069,79.2631341 15.5169636,79.3923265 C12.079296,79.5707792 8.64318831,79.8156869 5.20614466,80.0164462 C2.86445004,80.1535388 0.522131467,80.2687895 -1.81987513,80.3761399 C-2.00924478,80.3845049 -2.21951686,80.3022493 -2.38580026,80.1688745 C-2.49124827,80.0842954 -2.58421723,79.8291638 -2.59045676,79.6432756 C-2.59700826,79.4518107 -2.52712556,79.175302 -2.42729312,79.0735282 C-2.27192889,78.9150584 -2.06540053,78.807708 -1.87634285,78.7914428 C0.0151698684,78.6366908 1.90668259,78.4763622 3.79944321,78.3731943 C8.58235291,78.112486 13.3655746,77.8517778 18.1500442,77.6486949 C21.3889828,77.5111376 24.6297933,77.4595536 27.8699799,77.394028 C30.1137139,77.3480207 32.35776,77.3206022 34.601806,77.3252494 C39.2390227,77.3350085 43.8784233,77.2653004 48.5137682,77.4293468 C52.2996014,77.5631863 56.0888664,77.7551159 59.8637804,78.2853621 C60.4091151,78.3615762 60.95133,78.4898391 61.4960408,78.5772066 C61.8438944,78.6334378 62.0463671,78.3601821 62.0579102,77.7983349 C62.0800605,76.6843997 62.0825563,75.5704645 62.100651,74.4565293 C62.1053306,74.1623612 62.1277929,73.8667989 62.1611744,73.5768133 C62.1964277,73.2691682 62.5168274,72.922022 62.7274115,72.9791826 C62.9688812,73.0447082 63.2178383,73.114881 63.4405895,73.2598738 C64.49039,73.9448719 65.5389425,74.634982 66.57564,75.3622697 C67.9271216,76.3112291 69.26862,77.2931836 70.6110543,78.2718852 C70.8328695,78.4336079 71.0453254,78.6339025 71.2459262,78.8495328 C71.4565103,79.0767812 71.4643097,79.822193 71.2633969,80.0610594 C71.1092806,80.2441593 70.9476768,80.4277239 70.7710982,80.5527337 C68.8820813,81.8948467 66.9886967,83.2230181 65.0984319,84.5600192 C64.648562,84.8778881 64.2111711,85.2357229 63.7566215,85.5359324 C63.485826,85.7153145 63.196,85.8384655 62.9083578,85.9504631 C62.6216515,86.0610666 62.2572631,85.7497038 62.2135864,85.3244845 C62.1455756,84.6682991 62.1028348,84.0028192 62.0838042,83.3391983 C62.060406,82.5250078 62.0853641,81.7075643 62.0629018,80.8929092 C62.0541665,80.5843347 61.9190807,80.3319915 61.6944577,80.287843 C60.8056371,80.1135728 59.9180643,79.885395 59.024876,79.8036042 C56.7362173,79.5944799 54.443503,79.4885236 52.1548444,79.2775405 C46.8746443,78.7900486 41.5882048,78.9229587 36.3036371,78.8788102 C33.162347,78.8523212 30.021057,78.9327178 26.3425436,78.9708249" id="Fill-61-Copy-2" fill="#000000" transform="translate(34.409118, 79.472955) rotate(-395.000000) translate(-34.409118, -79.472955) "></path>
                <text id="Responsable" transform="translate(49.000000, 88.500000) rotate(-36.000000) translate(-49.000000, -88.500000) " font-family="Noteworthy-Light, Noteworthy" font-size="14" font-weight="300" fill="#000000">
                    <tspan x="7" y="93">Responsable</tspan>
                </text>
                <g id="UI-/-Icons-/-product_owner" transform="translate(92.000000, 0.000000)">
                    <g id="Group-2-Copy-3">
                        <path d="M21,1.80555572 C12.2836813,1.80555572 5.21536105,8.91418713 5.21536105,17.6860064 C5.21536105,22.3003989 7.18109514,26.5924931 10.5504556,29.5876986 L11.4378534,30.3765541 L10.5208294,31.1307655 C4.69881435,35.9191133 1.01536105,44.2863881 1.01536105,53.167211 C1.01536105,59.0105182 9.66249962,62.9344452 20.9967249,62.8978864 C32.2948201,62.8614441 40.9846389,58.8994634 40.9846389,53.167211 C40.9846389,44.2860366 37.3009384,35.9189458 31.478731,31.1323427 L30.5615166,30.3782746 L31.4488393,29.5892501 C34.8189152,26.5925134 36.7846389,22.3004026 36.7846389,17.6860064 C36.7846389,8.91418713 29.7163187,1.80555572 21,1.80555572 Z" id="Path" stroke="#005CFF" stroke-width="2.03072211" fill="#FFFFFF" fill-rule="nonzero"></path>
                        <text id="PO" font-family="Noteworthy-Light, Noteworthy" font-size="16" font-weight="300" fill="#005CFF">
                            <tspan x="10.5002632" y="53.7476568">PO</tspan>
                        </text>
                    </g>
                </g>
            </g>
        </g>
    </g>
</svg>