<?xml version="1.0" encoding="UTF-8"?>
<svg width="177px" height="70px" viewBox="0 0 177 70" version="1.1" xmlns="http://www.w3.org/2000/svg" xmlns:xlink="http://www.w3.org/1999/xlink">
    <!-- Generator: Sketch 57.1 (83088) - https://sketch.com -->
    <title>ownership</title>
    <desc>Created with Sketch.</desc>
    <g id="Dynamic-Scrum" stroke="none" stroke-width="1" fill="none" fill-rule="evenodd">
        <g id="Sprint-Backlog" transform="translate(-644.000000, -538.000000)">
            <g id="ownership" transform="translate(640.000000, 533.004796)">
                <path d="M70.5545195,14.0825873 C70.5929832,14.3131717 70.6495203,14.6808471 70.7213501,15.0451316 C70.7329355,15.1027777 70.8075458,15.1623615 70.8663999,15.1899735 C70.919693,15.2151634 71.0424988,15.2132257 71.0466696,15.1977242 C71.2755981,14.3243134 71.6463326,13.4760924 71.533722,12.5401912 C71.5207463,12.4326498 71.3548426,12.3275305 71.2403783,12.2548673 C71.0832796,12.1541078 70.9748398,12.229193 70.8761317,12.3905052 C70.582788,12.869113 70.68474,13.4223217 70.5545195,14.0825873 M71.6834035,14.2537861 C71.6462835,14.4893743 71.6233974,14.558665 71.6273048,14.6234852 C71.6348404,14.7544669 71.6317704,14.9314934 71.6808916,14.9976548 C71.72164,15.0521933 71.8617473,15.0217948 71.9055657,14.9484808 C72.1441946,14.5519594 72.3702642,14.1362154 72.5918681,13.71466 C72.6610845,13.5827842 72.6197779,13.4620844 72.5366067,13.3521134 C72.1520094,12.8433859 71.8731903,12.9296639 71.7676912,13.6060301 C71.7258265,13.8760402 71.6965211,14.1509677 71.6834035,14.2537861 M76.2342856,15.6487873 C76.2169902,15.5928179 76.2092738,15.5099158 76.1810691,15.4842457 C76.0049223,15.3213873 75.8293078,15.153479 75.6419856,15.0301779 C75.5903655,14.9960913 75.4626458,15.0764684 75.4339089,15.1593705 C75.2535049,15.6853989 75.2279609,16.2669759 75.2354112,16.8523404 C75.2362095,16.9024183 75.2745254,16.9701707 75.3059231,16.9949993 C75.3399817,17.0210903 75.401979,17.0353983 75.4259264,17.005099 C75.681898,16.6793822 75.9381356,16.3519821 76.1810691,16.0026993 C76.2278996,15.9353676 76.2180545,15.7695635 76.2342856,15.6487873 M73.0908318,17.6304156 C73.0908318,17.3145641 73.1224896,17.0684884 72.940457,17.0015037 C72.8623448,16.9731282 72.7319282,17.0819784 72.6579452,17.1754778 C71.875102,18.1639674 71.2653445,19.4180698 70.2309591,20.020467 C70.0912517,20.1014068 70.0499588,20.6368192 70.1425236,20.8284699 C70.2577994,21.0666377 70.4202179,21.0089565 70.5719691,20.9177828 C71.1160021,20.5926279 71.6552177,20.2525875 72.200283,19.9306888 C72.5750155,19.7101975 72.8134816,19.3645751 72.8847117,18.8012524 C72.9394247,18.3705035 73.0333659,17.9485929 73.0908318,17.6304156 M33.7225837,15.99787 C32.9644811,16.032724 31.6691552,16.1019674 30.3738294,16.1502983 C27.8814502,16.2432424 25.388447,16.2901792 22.8970037,16.4193715 C19.4593361,16.5978242 16.0232284,16.842732 12.5861848,17.0434912 C10.2444901,17.1805838 7.90217157,17.2958345 5.56016497,17.403185 C5.37079532,17.4115499 5.16052324,17.3292944 4.99423984,17.1959196 C4.88879183,17.1113405 4.79582287,16.8562089 4.78958334,16.6703206 C4.78303184,16.4788558 4.85291454,16.202347 4.95274698,16.1005732 C5.10811121,15.9421035 5.31463957,15.834753 5.50369725,15.8184878 C7.39520997,15.6637359 9.28672269,15.5034073 11.1794833,15.4002393 C15.962393,15.1395311 20.7456147,14.8788228 25.5300843,14.6757399 C28.7690229,14.5381827 32.0098334,14.4865987 35.25002,14.4210731 C37.493754,14.3750657 39.7378001,14.3476472 41.9818461,14.3522944 C46.6190628,14.3620536 51.2584634,14.2923455 55.8938083,14.4563918 C59.6796415,14.5902314 63.4689065,14.782161 67.2438205,15.3124071 C67.7891552,15.3886213 68.3313701,15.5168842 68.8760809,15.6042516 C69.2239345,15.6604828 69.4264072,15.3872271 69.4379503,14.82538 C69.4601006,13.7114448 69.4625964,12.5975096 69.4806911,11.4835744 C69.4853707,11.1894062 69.507833,10.893844 69.5412145,10.6038583 C69.5764678,10.2962133 69.8968675,9.94906704 70.1074516,10.0062277 C70.3489213,10.0717533 70.5978784,10.1419261 70.8206296,10.2869189 C71.8704301,10.971917 72.9189826,11.6620271 73.9556801,12.3893147 C75.3071617,13.3382742 76.6486601,14.3202287 77.9910944,15.2989302 C78.2129096,15.460653 78.4253655,15.6609476 78.6259663,15.8765779 C78.8365504,16.1038263 78.8443498,16.8492381 78.643437,17.0881044 C78.4893207,17.2712043 78.3277169,17.454769 78.1511383,17.5797788 C76.2621214,18.9218918 74.3687368,20.2500632 72.478472,21.5870643 C72.0286021,21.9049331 71.5912112,22.262768 71.1366616,22.5629774 C70.8658661,22.7423596 70.5760401,22.8655105 70.2883979,22.9775082 C70.0016916,23.0881117 69.6373032,22.7767489 69.5936265,22.3515296 C69.5256157,21.6953441 69.4828749,21.0298643 69.4638443,20.3662433 C69.4404461,19.5520529 69.4654042,18.7346094 69.4429419,17.9199542 C69.4342066,17.6113798 69.2991208,17.3590365 69.0744978,17.3148881 C68.1856772,17.1406178 67.2981044,16.91244 66.4049161,16.8306492 C64.1162574,16.621525 61.8235431,16.5155687 59.5348845,16.3045855 C54.2546844,15.8170937 48.9682449,15.9500037 43.6836772,15.9058553 C40.5423871,15.8793662 37.4010971,15.9597629 33.7225837,15.99787" id="Fill-61-Copy-2" fill="#000000" transform="translate(41.789158, 16.500000) rotate(-344.000000) translate(-41.789158, -16.500000) "></path>
                <text id="Ownership" transform="translate(35.500000, 32.495204) rotate(15.000000) translate(-35.500000, -32.495204) " font-family="Noteworthy-Light, Noteworthy" font-size="14" font-weight="300" fill="#000000">
                    <tspan x="3" y="36.9952043">Ownership</tspan>
                </text>
                <g id="UI-/-Icons-/-dev_team" transform="translate(110.000000, 10.995204)">
                    <g id="Icon">
                        <path d="M51.8486842,1.79487741 C43.950674,1.79487741 37.5429926,8.28159233 37.5429926,16.2895417 C37.5429926,20.5029295 39.3257999,24.4212774 42.3809004,27.1550273 L43.2599267,27.9415932 L42.3513271,28.6938031 C39.9551375,30.6775564 37.914532,33.3797365 36.4183858,36.5524003 L35.5001309,38.4996125 L34.5816901,36.552488 C33.0852406,33.3799662 31.0444991,30.6782469 28.6482853,28.6952619 L27.7394958,27.9431939 L28.6184469,27.1564603 C31.6742075,24.4213027 33.4570074,20.5029351 33.4570074,16.2895417 C33.4570074,8.28159233 27.049326,1.79487741 19.1513158,1.79487741 C11.2533056,1.79487741 4.84562421,8.28159233 4.84562421,16.2895417 C4.84562421,20.5029295 6.6284315,24.4212774 9.68353202,27.1550273 L10.5625583,27.9415932 L9.65395864,28.6938031 C4.36454742,33.0727918 1.01536105,40.7309142 1.01536105,48.8605949 C1.01536105,58.1246012 25.7558096,60.9649451 34.8124484,53.5260812 L35.4650384,52.9900625 L36.110982,53.5340723 C44.9845563,61.0073437 69.9846389,58.0329467 69.9846389,48.8605949 C69.9846389,40.7305955 66.6352303,33.0726472 61.3456537,28.6952619 L60.4368643,27.9431939 L61.3158153,27.1564603 C64.3715759,24.4213027 66.1543758,20.5029351 66.1543758,16.2895417 C66.1543758,8.28159233 59.7466944,1.79487741 51.8486842,1.79487741 Z" id="Path" stroke="#005CFF" stroke-width="2.03072211" fill="#FFFFFF" fill-rule="nonzero"></path>
                        <path d="M30.9428755,10.0167835 C23.4705107,10.0167835 17.4118951,16.0911065 17.4118951,23.5854762 C17.4118951,27.5277456 19.0964511,31.1945237 21.9844261,33.7538595 L22.8757909,34.5437907 L21.9547755,35.2989419 C16.9469014,39.4049563 13.7753097,46.5872117 13.7753097,54.2119889 C13.7753097,59.1481681 21.1927921,62.5036872 30.9396106,62.4723459 C40.6552732,62.4411047 48.1104413,59.0525556 48.1104413,54.2119889 C48.1104413,46.5869147 44.9386409,39.404827 39.9306154,35.3003203 L39.0094095,34.545313 L39.9006991,33.7552123 C42.7893052,31.1945523 44.4738559,27.5277522 44.4738559,23.5854762 C44.4738559,16.0911065 38.4152403,10.0167835 30.9428755,10.0167835 Z" id="Path" stroke="#005CFF" stroke-width="2.03072211" fill="#FFFFFF" fill-rule="nonzero"></path>
                        <text id="DT" font-family="Noteworthy-Light, Noteworthy" font-size="14" font-weight="300" fill="#005CFF">
                            <tspan x="22.6569817" y="55.1891892">DT</tspan>
                        </text>
                    </g>
                </g>
            </g>
        </g>
    </g>
</svg>