<?xml version="1.0" encoding="UTF-8"?>
<svg width="25px" height="34px" viewBox="0 0 25 34" version="1.1" xmlns="http://www.w3.org/2000/svg" xmlns:xlink="http://www.w3.org/1999/xlink">
    <!-- Generator: Sketch 57.1 (83088) - https://sketch.com -->
    <title>Plan Board</title>
    <desc>Created with Sketch.</desc>
    <g id="Dynamic-Scrum" stroke="none" stroke-width="1" fill="none" fill-rule="evenodd">
        <g id="Sprint-Review" transform="translate(-519.000000, -425.000000)" fill-rule="nonzero">
            <g id="Plan-Board" transform="translate(519.000000, 425.000000)">
                <path d="M7.13983972,18.5 L8.86746903,16.7723729 C9.04417699,16.5956644 9.04417699,16.3091834 8.86746903,16.1325313 C8.69076107,15.9558229 8.40428084,15.9558229 8.22762931,16.1325313 L6.5,17.8601655 L4.77237069,16.1325313 C4.59566273,15.9558229 4.30918249,15.9558229 4.13253097,16.1325313 C3.95582301,16.3092398 3.95582301,16.5957208 4.13253097,16.7723729 L5.86016028,18.5 L4.13253097,20.2276412 C3.95582301,20.4043497 3.95582301,20.6908307 4.13253097,20.8674828 C4.22085673,20.9558652 4.33666789,21 4.45242261,21 C4.56817733,21 4.68398849,20.9558652 4.77231425,20.8674828 L6.49994356,19.1398486 L8.22757288,20.8674828 C8.31589864,20.9558088 8.43170979,21 8.54746451,21 C8.66321923,21 8.77908683,20.9558652 8.86735615,20.8674828 C9.04406411,20.6907743 9.04406411,20.4042933 8.86735615,20.2276412 L7.13983972,18.5 Z" id="Path" fill="#137FFF"></path>
                <path d="M8.76783285,8 L10.8409646,5.92684744 C11.0530118,5.71479729 11.0530118,5.37102004 10.8409646,5.15903761 C10.6288497,4.94698746 10.2850773,4.94698746 10.0730979,5.15903761 L7.99996614,7.23219864 L5.92683436,5.15903761 C5.7147872,4.94698746 5.3710148,4.94698746 5.15903537,5.15903761 C4.94698821,5.37108776 4.94698821,5.71486501 5.15903537,5.92684744 L7.23216715,8 L5.15903537,10.0731695 C4.94698821,10.2851519 4.94698821,10.6289292 5.15903537,10.8409793 C5.26502509,10.9470383 5.40399691,11 5.542901,11 C5.6818051,11 5.82077692,10.9470383 5.92676664,10.8409793 L7.99989841,8.76781829 L10.0730302,10.8409793 C10.1790199,10.9469705 10.3179917,11 10.4568958,11 C10.5957999,11 10.7348395,10.9470383 10.8408292,10.8409793 C11.0528763,10.6289292 11.0528763,10.2851519 10.8408292,10.0731695 L8.76783285,8 Z" id="Path" fill="#137FFF"></path>
                <path d="M20.511939,26 L21.89398,24.6178983 C22.03534,24.4765315 22.03534,24.2473467 21.89398,24.1060251 C21.7525749,23.9646583 21.5234462,23.9646583 21.3820862,24.1060251 L20.0000451,25.4881324 L18.6179138,24.1060251 C18.4765087,23.9646583 18.24738,23.9646583 18.10602,24.1060251 C17.96466,24.2473918 17.96466,24.4765767 18.10602,24.6178983 L19.488061,26 L18.10602,27.382113 C17.96466,27.5234798 17.96466,27.7526646 18.10602,27.8939862 C18.1767226,27.9646922 18.2693222,28 18.3619669,28 C18.4545665,28 18.5472564,27.9646922 18.6179138,27.8939862 L19.9999549,26.511924 L21.3819959,27.8939862 C21.4526985,27.964647 21.5453432,28 21.6379428,28 C21.7305424,28 21.8231871,27.9646922 21.8938897,27.8939862 C22.0352497,27.7526194 22.0352497,27.5234346 21.8938897,27.382113 L20.511939,26 Z" id="Path" fill="#137FFF"></path>
                <path d="M12.511939,29.5 L13.89398,28.4634237 C14.03534,28.3573986 14.03534,28.18551 13.89398,28.0795188 C13.7525749,27.9734937 13.5234462,27.9734937 13.3820862,28.0795188 L12.0000451,29.1160993 L10.6179138,28.0795188 C10.4765087,27.9734937 10.24738,27.9734937 10.10602,28.0795188 C9.96466,28.1855439 9.96466,28.3574325 10.10602,28.4634237 L11.488061,29.5 L10.10602,30.5365847 C9.96466,30.6426098 9.96466,30.8144984 10.10602,30.9204897 C10.1767226,30.9735191 10.2693222,31 10.3619669,31 C10.4545665,31 10.5472564,30.9735191 10.6179138,30.9204897 L11.9999549,29.883943 L13.3819959,30.9204897 C13.4526985,30.9734853 13.5453432,31 13.6379428,31 C13.7305424,31 13.8231871,30.9735191 13.8938897,30.9204897 C14.0352497,30.8144646 14.0352497,30.642576 13.8938897,30.5365847 L12.511939,29.5 Z" id="Path-Copy-2" fill="#137FFF"></path>
                <path d="M19.8003682,16.3924346 L17.6186005,14.3561157 L17.4367653,14.1864026 C17.1703911,13.9378658 16.7387663,13.9378658 16.4724772,14.1864026 L13.7452038,16.7318608 C13.4789147,16.9803975 13.4789147,17.3833272 13.7452038,17.6317846 C13.8783909,17.7560133 14.0529119,17.8181674 14.2273478,17.8181674 C14.4017838,17.8181674 14.5763898,17.7560927 14.7094919,17.6317846 L16.3827503,16.070075 C15.7041425,22.051469 10.2672009,26.7272312 3.68183961,26.7272312 C3.30532671,26.7272312 3,27.0121238 3,27.3636156 C3,27.7150281 3.30524166,28 3.68183961,28 C10.9495508,28 16.9528352,22.8543913 17.7316309,16.2617761 L18.83591,17.2924378 C18.9690971,17.4166665 19.1436181,17.4788206 19.3180541,17.4788206 C19.49249,17.4788206 19.6670961,17.4167459 19.8001981,17.2924378 C20.0665723,17.0438217 20.0665723,16.640892 19.8003682,16.3924346 Z" id="Path" fill="#137FFF"></path>
                <path d="M18,4 C15.7944434,4 14,5.79444339 14,8 C14,10.2055566 15.7944434,12 18,12 C20.2055566,12 22,10.2055566 22,8 C22,5.79444339 20.2056322,4 18,4 Z M18,10.8 C16.4245697,10.8 15.1428571,9.54392169 15.1428571,8 C15.1428571,6.45607831 16.4245697,5.2 18,5.2 C19.5754303,5.2 20.8571429,6.45607831 20.8571429,8 C20.8571429,9.54392169 19.5754303,10.8 18,10.8 Z" id="Shape" fill="#137FFF"></path>
                <rect id="Rectangle" stroke="#137FFF" stroke-width="2" x="1" y="1" width="23" height="32" rx="2"></rect>
            </g>
        </g>
    </g>
</svg>