<?xml version="1.0" encoding="UTF-8"?>
<svg width="97px" height="275px" viewBox="0 0 97 275" version="1.1" xmlns="http://www.w3.org/2000/svg" xmlns:xlink="http://www.w3.org/1999/xlink">
    <!-- Generator: Sketch 57.1 (83088) - https://sketch.com -->
    <title>Group</title>
    <desc>Created with Sketch.</desc>
    <g id="Dynamic-Scrum" stroke="none" stroke-width="1" fill="none" fill-rule="evenodd">
        <g id="Product-Owner" transform="translate(-312.000000, -288.000000)">
            <g id="Product-Owner---Preview" transform="translate(312.000000, 220.744926)">
                <g id="Group" transform="translate(0.000000, 63.000000)">
                    <g id="UI-/-Icons-/-product_owner" transform="translate(0.000000, 83.255074)">
                        <g id="Group-2-Copy-3">
                            <path d="M26.5,2.00310438 C15.3514717,2.00310438 6.31536105,11.0050161 6.31536105,22.107508 C6.31536105,27.9465529 8.82717015,33.379238 13.133413,37.1711747 L14.0329921,37.9633148 L13.1037136,38.7203946 C5.69519058,44.7560917 1.01536105,55.2864302 1.01536105,66.4590137 C1.01536105,73.9555064 12.0649182,78.9223079 26.4967558,78.8761969 C40.8826516,78.8302325 51.9846389,73.8162156 51.9846389,66.4590137 C51.9846389,55.2859788 47.3044875,44.7558542 39.8956919,38.7223338 L38.9662223,37.9653992 L39.8657264,37.1730886 C44.1728495,33.3792433 46.6846389,27.9465508 46.6846389,22.107508 C46.6846389,11.0050161 37.6485283,2.00310438 26.5,2.00310438 Z" id="Path" stroke="#005CFF" stroke-width="2.03072211" fill="#FFFFFF" fill-rule="nonzero"></path>
                            <text id="PO" font-family="Noteworthy-Light, Noteworthy" font-size="16" font-weight="300" fill="#005CFF">
                                <tspan x="16.0605702" y="62.184571">PO</tspan>
                            </text>
                        </g>
                    </g>
                    <g id="Size" transform="translate(4.500349, 189.255074)" fill="#000000">
                        <path d="M48.4587557,26.4347184 C48.4972194,26.5884413 48.5537564,26.8335582 48.6255862,27.0764146 C48.6371716,27.1148453 48.7117819,27.1545678 48.770636,27.1729758 C48.8239291,27.1897691 48.9467349,27.1884773 48.9509057,27.178143 C49.1798342,26.595869 49.5505687,26.0303884 49.4379581,25.4064543 C49.4249824,25.33476 49.2590787,25.2646805 49.1446144,25.2162384 C48.9875157,25.1490653 48.8790759,25.1991222 48.7803678,25.3066636 C48.4870242,25.6257355 48.5889761,25.9945413 48.4587557,26.4347184 M49.3032975,27.029724 C49.2661775,27.2653122 49.2432914,27.3346029 49.2471988,27.3994232 C49.2547344,27.5304049 49.2516644,27.7074313 49.3007856,27.7735927 C49.341534,27.8281312 49.4816413,27.7977327 49.5254597,27.7244187 C49.7640886,27.3278973 49.9901581,26.9121534 50.2117621,26.4905979 C50.2809784,26.3587222 50.2396719,26.2380223 50.1565007,26.1280513 C49.7719034,25.6193238 49.4930843,25.7056018 49.3875852,26.3819681 C49.3457204,26.6519781 49.3164151,26.9269056 49.3032975,27.029724 M52.6107987,28.2750699 C52.5935033,28.2191005 52.5857869,28.1361984 52.5575821,28.1105283 C52.3814354,27.9476699 52.2058208,27.7797616 52.0184986,27.6564605 C51.9668786,27.6223739 51.8391589,27.702751 51.810422,27.7856531 C51.6300179,28.3116815 51.604474,28.8932586 51.6119243,29.478623 C51.6127226,29.5287009 51.6510385,29.5964533 51.6824362,29.6212819 C51.7164948,29.6473729 51.7784921,29.6616809 51.8024395,29.6313816 C52.058411,29.3056648 52.3146487,28.9782647 52.5575821,28.6289819 C52.6044127,28.5616502 52.5945676,28.3958461 52.6107987,28.2750699 M49.7725618,29.4580991 C49.7725618,29.2212105 49.7936671,29.0366537 49.672312,28.9864151 C49.6202372,28.9651335 49.5332928,29.0467711 49.4839708,29.1168958 C48.9620753,29.8582629 48.5555703,30.7988397 47.86598,31.2506376 C47.7728418,31.3113425 47.7453132,31.7129018 47.8070231,31.8566398 C47.8838736,32.0352657 47.9921526,31.9920047 48.09332,31.9236245 C48.4560087,31.6797583 48.8154858,31.424728 49.1788627,31.183304 C49.4286843,31.0179355 49.5876617,30.7587187 49.6351485,30.3362266 C49.6716238,30.013165 49.7342513,29.6967321 49.7725618,29.4580991 M20.2865573,28.5571191 C19.7026134,28.5839299 18.7048624,28.637194 17.7071114,28.6743717 C15.7873058,28.7458672 13.8670196,28.7819724 11.9479349,28.8813511 C9.30000173,29.0186224 6.65327011,29.207013 4.00581757,29.3614432 C2.20207982,29.466899 0.397861462,29.5555534 -1.40611659,29.6381307 C-1.55198241,29.6445652 -1.71394873,29.5812918 -1.8420319,29.4786958 C-1.92325537,29.4136349 -1.99486659,29.2173798 -1.99967271,29.0743889 C-2.00471914,28.9271082 -1.95089057,28.7144092 -1.87399261,28.6361216 C-1.75432016,28.5142218 -1.59523751,28.4316446 -1.449612,28.4191329 C0.0073640146,28.3000929 1.46434003,28.1767632 2.92227727,28.0974032 C6.60641042,27.8968584 10.2907839,27.6963136 13.9761185,27.540096 C16.4709767,27.4342827 18.9672767,27.3946027 21.4630961,27.3441984 C23.1913777,27.3088082 24.9198996,27.287717 26.6484216,27.2912918 C30.2203317,27.2987988 33.7939241,27.2451772 37.3643924,27.3713667 C40.2805072,27.4743202 43.1992654,27.6219583 46.1069694,28.02984 C46.5270245,28.0884663 46.9446766,28.18713 47.3642511,28.2543358 C47.6321924,28.2975906 47.7881511,28.0873939 47.7970424,27.6552037 C47.8141041,26.7983305 47.8160266,25.9414573 47.8299643,25.084584 C47.8335689,24.8583009 47.850871,24.6309453 47.8765837,24.4078794 C47.9037383,24.1712294 48.1505327,23.9041938 48.3127393,23.9481635 C48.4987363,23.9985678 48.6905005,24.0525469 48.8620791,24.1640798 C49.6707092,24.6910015 50.4783781,25.2218553 51.2769153,25.7813074 C52.3179214,26.5112762 53.3512378,27.2666258 54.385275,28.0194732 C54.5561327,28.1438753 54.7197811,28.297948 54.874298,28.4638175 C55.0365046,28.638624 55.0425123,29.2120176 54.8877551,29.395761 C54.7690439,29.5366071 54.6445653,29.6778106 54.5085521,29.7739721 C53.0534985,30.8063667 51.5950806,31.828037 50.1390658,32.8564993 C49.7925444,33.1010139 49.4556352,33.3762714 49.1055092,33.6072018 C48.8969235,33.7451881 48.6736791,33.8399196 48.4521169,33.9260716 C48.2312755,34.0111512 47.950598,33.7716414 47.9169551,33.4445496 C47.8645684,32.9397916 47.8316465,32.427884 47.8169878,31.9174063 C47.7989648,31.291106 47.8181893,30.6623033 47.8008873,30.0356455 C47.7941587,29.7982805 47.6901062,29.6041703 47.5170858,29.57021 C46.8324536,29.4361559 46.1487827,29.2606346 45.4607863,29.1977185 C43.6979006,29.0368537 41.9318909,28.9553489 40.1690052,28.7930542 C36.1018241,28.4180604 32.0298368,28.5202989 27.9592914,28.4863386 C25.5396491,28.4659624 23.1200068,28.527806 20.2865573,28.5571191" id="Fill-61-Copy-2" transform="translate(26.500000, 28.943373) rotate(-275.000000) translate(-26.500000, -28.943373) "></path>
                        <text id="1-per-product!" font-family="Noteworthy-Light, Noteworthy" font-size="14" font-weight="300">
                            <tspan x="0.499651123" y="85">1 per product!</tspan>
                        </text>
                        <text font-family="Noteworthy-Light, Noteworthy" font-size="14" font-weight="300">
                            <tspan x="33.4996511" y="23">Size</tspan>
                        </text>
                    </g>
                    <g id="Owenership" transform="translate(35.530706, 0.000000)" fill="#000000">
                        <path d="M58.7653611,30.0825873 C58.8038248,30.3131717 58.8603618,30.6808471 58.9321916,31.0451316 C58.9437771,31.1027777 59.0183874,31.1623615 59.0772415,31.1899735 C59.1305346,31.2151634 59.2533404,31.2132257 59.2575111,31.1977242 C59.4864396,30.3243134 59.8571741,29.4760924 59.7445635,28.5401912 C59.7315878,28.4326498 59.5656841,28.3275305 59.4512199,28.2548673 C59.2941211,28.1541078 59.1856813,28.229193 59.0869733,28.3905052 C58.7936296,28.869113 58.8955816,29.4223217 58.7653611,30.0825873 M59.8942451,30.2537861 C59.857125,30.4893743 59.834239,30.558665 59.8381464,30.6234852 C59.845682,30.7544669 59.8426119,30.9314934 59.8917332,30.9976548 C59.9324815,31.0521933 60.0725888,31.0217948 60.1164072,30.9484808 C60.3550362,30.5519594 60.5811057,30.1362154 60.8027097,29.71466 C60.871926,29.5827842 60.8306195,29.4620844 60.7474482,29.3521134 C60.3628509,28.8433859 60.0840318,28.9296639 59.9785327,29.6060301 C59.936668,29.8760402 59.9073627,30.1509677 59.8942451,30.2537861 M64.4451272,31.6487873 C64.4278318,31.5928179 64.4201154,31.5099158 64.3919106,31.4842457 C64.2157639,31.3213873 64.0401493,31.153479 63.8528271,31.0301779 C63.8012071,30.9960913 63.6734874,31.0764684 63.6447505,31.1593705 C63.4643464,31.6853989 63.4388025,32.2669759 63.4462528,32.8523404 C63.447051,32.9024183 63.485367,32.9701707 63.5167647,32.9949993 C63.5508233,33.0210903 63.6128206,33.0353983 63.636768,33.005099 C63.8927395,32.6793822 64.1489771,32.3519821 64.3919106,32.0026993 C64.4387412,31.9353676 64.4288961,31.7695635 64.4451272,31.6487873 M61.3016733,33.6304156 C61.3016733,33.3145641 61.3333312,33.0684884 61.1512986,33.0015037 C61.0731863,32.9731282 60.9427698,33.0819784 60.8687868,33.1754778 C60.0859435,34.1639674 59.4761861,35.4180698 58.4418006,36.020467 C58.3020932,36.1014068 58.2608004,36.6368192 58.3533652,36.8284699 C58.468641,37.0666377 58.6310595,37.0089565 58.7828106,36.9177828 C59.3268437,36.5926279 59.8660592,36.2525875 60.4111246,35.9306888 C60.785857,35.7101975 61.0243231,35.3645751 61.0955533,34.8012524 C61.1502663,34.3705035 61.2442075,33.9485929 61.3016733,33.6304156 M21.9334253,31.99787 C21.1753227,32.032724 19.8799968,32.1019674 18.5846709,32.1502983 C16.0922917,32.2432424 13.5992886,32.2901792 11.1078453,32.4193715 C7.67017769,32.5978242 4.23406997,32.842732 0.797026318,33.0434912 C-1.5446683,33.1805838 -3.88698687,33.2958345 -6.22899347,33.403185 C-6.41836313,33.4115499 -6.6286352,33.3292944 -6.7949186,33.1959196 C-6.90036661,33.1113405 -6.99333557,32.8562089 -6.9995751,32.6703206 C-7.0061266,32.4788558 -6.9362439,32.202347 -6.83641146,32.1005732 C-6.68104723,31.9421035 -6.47451887,31.834753 -6.28546119,31.8184878 C-4.39394847,31.6637359 -2.50243575,31.5034073 -0.609675126,31.4002393 C4.17323457,31.1395311 8.95645625,30.8788228 13.7409258,30.6757399 C16.9798645,30.5381827 20.220675,30.4865987 23.4608616,30.4210731 C25.7045956,30.3750657 27.9486416,30.3476472 30.1926876,30.3522944 C34.8299044,30.3620536 39.4693049,30.2923455 44.1046498,30.4563918 C47.890483,30.5902314 51.679748,30.782161 55.4546621,31.3124071 C55.9999968,31.3886213 56.5422117,31.5168842 57.0869224,31.6042516 C57.4347761,31.6604828 57.6372487,31.3872271 57.6487919,30.82538 C57.6709422,29.7114448 57.673438,28.5975096 57.6915326,27.4835744 C57.6962123,27.1894062 57.7186746,26.893844 57.752056,26.6038583 C57.7873094,26.2962133 58.1077091,25.949067 58.3182932,26.0062277 C58.5597629,26.0717533 58.80872,26.1419261 59.0314711,26.2869189 C60.0812716,26.971917 61.1298242,27.6620271 62.1665217,28.3893147 C63.5180033,29.3382742 64.8595017,30.3202287 66.201936,31.2989302 C66.4237512,31.460653 66.6362071,31.6609476 66.8368079,31.8765779 C67.0473919,32.1038263 67.0551913,32.8492381 66.8542786,33.0881044 C66.7001622,33.2712043 66.5385585,33.454769 66.3619799,33.5797788 C64.4729629,34.9218918 62.5795784,36.2500632 60.6893136,37.5870643 C60.2394436,37.9049331 59.8020528,38.262768 59.3475032,38.5629774 C59.0767077,38.7423596 58.7868817,38.8655105 58.4992394,38.9775082 C58.2125332,39.0881117 57.8481448,38.7767489 57.8044681,38.3515296 C57.7364572,37.6953441 57.6937165,37.0298643 57.6746859,36.3662433 C57.6512877,35.5520529 57.6762458,34.7346094 57.6537835,33.9199542 C57.6450482,33.6113798 57.5099624,33.3590365 57.2853394,33.3148881 C56.3965187,33.1406178 55.508946,32.91244 54.6157576,32.8306492 C52.327099,32.621525 50.0343846,32.5155687 47.745726,32.3045855 C42.465526,31.8170937 37.1790864,31.9500037 31.8945187,31.9058553 C28.7532287,31.8793662 25.6119386,31.9597629 21.9334253,31.99787" id="Fill-61-Copy-2" transform="translate(30.000000, 32.500000) rotate(-408.000000) translate(-30.000000, -32.500000) "></path>
                        <text id="Ownership" transform="translate(41.619409, 45.164494) rotate(-49.000000) translate(-41.619409, -45.164494) " font-family="Noteworthy-Light, Noteworthy" font-size="14" font-weight="300">
                            <tspan x="9.11940882" y="49.6644942">Ownership</tspan>
                        </text>
                    </g>
                </g>
            </g>
        </g>
    </g>
</svg>