<?xml version="1.0" encoding="UTF-8"?>
<svg width="42px" height="64px" viewBox="0 0 42 64" version="1.1" xmlns="http://www.w3.org/2000/svg" xmlns:xlink="http://www.w3.org/1999/xlink">
    <!-- Generator: Sketch 57.1 (83088) - https://sketch.com -->
    <title>UI / Icons / product_owner</title>
    <desc>Created with Sketch.</desc>
    <g id="Page-1" stroke="none" stroke-width="1" fill="none" fill-rule="evenodd">
        <g id="Main-Page---Roles" transform="translate(-689.000000, -859.000000)">
            <g id="UI-/-Icons-/-product_owner" transform="translate(689.000000, 859.000000)">
                <g id="Group-2-Copy-3">
                    <path d="M21,1.80555572 C12.2836813,1.80555572 5.21536105,8.91418713 5.21536105,17.6860064 C5.21536105,22.3003989 7.18109514,26.5924931 10.5504556,29.5876986 L11.4378534,30.3765541 L10.5208294,31.1307655 C4.69881435,35.9191133 1.01536105,44.2863881 1.01536105,53.167211 C1.01536105,59.0105182 9.66249962,62.9344452 20.9967249,62.8978864 C32.2948201,62.8614441 40.9846389,58.8994634 40.9846389,53.167211 C40.9846389,44.2860366 37.3009384,35.9189458 31.478731,31.1323427 L30.5615166,30.3782746 L31.4488393,29.5892501 C34.8189152,26.5925134 36.7846389,22.3004026 36.7846389,17.6860064 C36.7846389,8.91418713 29.7163187,1.80555572 21,1.80555572 Z" id="Path" stroke="#005CFF" stroke-width="2.03072211" fill="#FFFFFF" fill-rule="nonzero"></path>
                    <text id="PO" font-family="Noteworthy-Light, Noteworthy" font-size="16" font-weight="300" fill="#005CFF">
                        <tspan x="10.5002632" y="53.7476568">PO</tspan>
                    </text>
                </g>
            </g>
        </g>
    </g>
</svg>