<?xml version="1.0" encoding="UTF-8"?>
<svg width="97px" height="73px" viewBox="0 0 97 73" version="1.1" xmlns="http://www.w3.org/2000/svg" xmlns:xlink="http://www.w3.org/1999/xlink">
    <!-- Generator: Sketch 57.1 (83088) - https://sketch.com -->
    <title>UI / Icons / increment</title>
    <desc>Created with Sketch.</desc>
    <g id="Page-1" stroke="none" stroke-width="1" fill="none" fill-rule="evenodd">
        <g id="Main-Page---Artifact" transform="translate(-1013.000000, -779.000000)" fill="#FFFFFF">
            <g id="UI-/-Icons-/-increment" transform="translate(1013.000000, 779.000000)">
                <g id="Group-3">
                    <g id="iconmonstr-cube-18" transform="translate(27.000000, 3.000000)" fill-rule="nonzero">
                        <path d="M52.5,29.2570833 L52.5,10.5233333 L34.895,0 L17.5,10.4095833 L17.5,29.365 L0,38.7683333 L0,59.815 L17.8966667,70 L35,60.10375 L52.1033333,70 L70,59.815 L70,38.8820833 L52.5,29.2570833 Z M49,29.0022682 L36,36 L36,21.4527018 L49,14 L49,29.0022682 Z M35.3519659,4 L48,11.6278159 L35.3638086,19 L23,11.4955926 L35.3519659,4 Z M5,39.4645948 L18.7801442,32 L31,39.1311959 L17.5371048,47 L5,39.4645948 Z M19,49.9394599 L33,42 L33,56.8839114 L19,65 L19,49.9394599 L19,49.9394599 Z M39,39.0252792 L51.2473381,32 L65,39.6249265 L52.4066105,47 L39,39.0252792 L39,39.0252792 Z M67,57.7021165 L54,65 L54,50.2950091 L67,43 L67,57.7021165 Z" id="Shape"></path>
                    </g>
                    <g id="iconmonstr-cube-2" fill-rule="nonzero">
                        <path d="M17.5,0 L0,9.5 L0,28.7074167 L17.5,38 L35,28.7074167 L35,9.60291667 L17.5,0 Z M30.0840909,10.5228333 L17.5079545,17.2013333 L4.98431818,10.4025 L17.4920455,3.61158333 L30.0840909,10.5228333 L30.0840909,10.5228333 Z M3.18181818,13.0308333 L15.9090909,19.9389167 L15.9090909,33.5666667 L3.18181818,26.809 L3.18181818,13.0308333 Z M19.0909091,33.5666667 L19.0909091,19.95 L31.8181818,13.19075 L31.8181818,26.8074167 L19.0909091,33.5666667 Z" id="Shape"></path>
                    </g>
                </g>
            </g>
        </g>
    </g>
</svg>