<?xml version="1.0" encoding="UTF-8"?>
<svg width="92px" height="37px" viewBox="0 0 92 37" version="1.1" xmlns="http://www.w3.org/2000/svg" xmlns:xlink="http://www.w3.org/1999/xlink">
    <!-- Generator: Sketch 57.1 (83088) - https://sketch.com -->
    <title>relationships</title>
    <desc>Created with Sketch.</desc>
    <g id="Dynamic-Scrum" stroke="none" stroke-width="1" fill="none" fill-rule="evenodd">
        <g id="Sprint-Review" transform="translate(-268.000000, -425.000000)">
            <g id="relationships" transform="translate(268.000000, 425.000000)">
                <path d="M79.544054,1.01536105 C75.0104331,1.01536105 71.3241718,4.80036459 71.3241718,9.48262363 C71.3241718,11.9485978 72.3518358,14.2394971 74.1113137,15.836381 L74.9724881,16.617974 L74.0818603,17.3658317 C70.9865779,19.9649321 69.0153611,24.5365894 69.0153611,29.3961333 C69.0153611,32.3392264 73.5318084,34.4316801 79.5407103,34.4118919 C85.5303798,34.3921671 90.0727469,32.2777324 90.0727469,29.3961333 C90.0727469,24.5364132 88.1014111,19.9648874 85.0060741,17.3667742 L84.1152577,16.6190553 L84.9763567,15.8372972 C86.7362667,14.2395437 87.7639361,11.9486114 87.7639361,9.48262363 C87.7639361,4.80036459 84.0776748,1.01536105 79.544054,1.01536105 Z" id="Path" stroke="#137FFF" stroke-width="2.03072211" fill="#FFFFFF" fill-rule="nonzero"></path>
                <path d="M11.544054,1.01536105 C7.0104331,1.01536105 3.32417185,4.80036459 3.32417185,9.48262363 C3.32417185,11.9485978 4.35183579,14.2394971 6.11131368,15.836381 L6.97248807,16.617974 L6.08186035,17.3658317 C2.98657787,19.9649321 1.01536105,24.5365894 1.01536105,29.3961333 C1.01536105,32.3392264 5.53180844,34.4316801 11.5407103,34.4118919 C17.5303798,34.3921671 22.0727469,32.2777324 22.0727469,29.3961333 C22.0727469,24.5364132 20.1014111,19.9648874 17.0060741,17.3667742 L16.1152577,16.6190553 L16.9763567,15.8372972 C18.7362667,14.2395437 19.7639361,11.9486114 19.7639361,9.48262363 C19.7639361,4.80036459 16.0776748,1.01536105 11.544054,1.01536105 Z" id="Path-Copy" stroke="#137FFF" stroke-width="2.03072211" fill="#FFFFFF" fill-rule="nonzero"></path>
                <path d="M42.0014169,5.62354612 C42.0710597,5.74903351 42.1155682,5.94867253 42.2208179,5.98756325 C42.3354929,6.03060232 42.526618,5.95437651 42.6481002,5.8745209 C42.7742951,5.79207257 42.8889701,5.65776996 42.9491875,5.52087462 C43.0010269,5.40316538 43.0266848,5.19211841 42.9596601,5.12522638 C42.8648831,5.03085156 42.6721872,4.99403502 42.5245234,5.00077608 C42.1417498,5.01736945 41.9830898,5.25330648 42.0014169,5.62354612 M43.3339436,11.9068949 C43.4935129,11.7198906 43.7514596,11.4226697 43.9966973,11.1204841 C44.0145842,11.0986393 43.9562167,11.0278094 43.9082047,11.0059646 C43.8743139,10.9907395 43.7731121,11.0066266 43.747694,11.0314502 C43.4963371,11.2760451 43.2510994,11.5239499 43.0148051,11.7748335 C42.9837386,11.8082625 43.0115102,11.8681701 43.0096274,11.9151694 C43.0049203,12.0174425 43.056698,12.0416041 43.3339436,11.9068949 M36.2774874,6 C36.4337508,5.90478947 36.6167434,5.83019778 36.7693059,5.68525946 C36.8696434,5.59065537 36.9247468,5.39356352 37,5.24256083 C36.8971951,5.15705329 36.7960351,5.0060506 36.6915854,5.00119911 C36.5077703,4.992709 36.3091513,5.02848875 36.1426074,5.13461514 C36.0607747,5.18676867 35.9842879,5.45299429 36.0027928,5.59490043 C36.0208864,5.73498726 36.1619347,5.83990077 36.2774874,6 M47.9971317,5.21661802 C47.9053279,5.15703208 47.8130533,5.08445133 47.7010057,5.02993653 C47.6482773,5.00426387 47.5230476,4.98873349 47.4905632,5.0099689 C47.0983963,5.26320916 47.0065925,5.59378437 47.0000015,5.94052384 C46.9995307,5.96080842 47.1134615,6.00676566 47.159128,5.99915895 C47.6054356,5.92531041 48.0395026,5.52025278 47.9971317,5.21661802 M52.008305,9.43159628 C52.008305,9.62004559 51.9856688,9.71412769 52.0151385,9.80051217 C52.0407644,9.87492257 52.1142252,9.99095717 52.1872588,9.9983697 C52.2978771,10.0094885 52.4567574,9.96216234 52.5404685,9.90428759 C52.6805565,9.8084949 52.7864767,9.68789874 52.8919698,9.57157905 C53.1008205,9.34093534 53.0102758,9.18812319 52.5904389,9.03987259 C52.367494,8.96147084 52.1304549,9.00252485 52.0920161,9.12939314 C52.0514418,9.26167829 52.0181282,9.39481872 52.008305,9.43159628 M43.1953916,13 C43.2792208,12.9614661 43.3959242,12.936711 43.4412906,12.8822965 C43.6270298,12.6583328 43.7897571,12.4250276 43.9633329,12.1959261 C44.0244789,12.1151217 44.0123155,12.0455272 43.9028444,12.0018554 C43.8785175,11.9920468 43.8022493,12.0231074 43.7736488,12.0485632 C43.4830408,12.3073241 43.1434503,12.5431982 43.0014338,12.8713202 C42.9915715,12.894207 43.0346367,12.9369445 43.0678397,12.9591307 C43.1000564,12.9803827 43.1519976,12.9866883 43.1953916,13 M45.6597525,6.00009834 C45.3797504,5.99782882 45.1920453,6.03414106 45.2370531,6.18225676 C45.3193944,6.4540013 45.1279559,6.69898945 45.0016439,6.9504278 C44.9939698,6.96535882 45.0153329,7.00023768 45.0211403,6.99999878 C45.0684296,6.99868485 45.1420598,7.00035712 45.1582377,6.98447052 C45.4378249,6.70926199 45.7105677,6.43190339 45.9826883,6.15430589 C45.9972069,6.13961377 46.0063329,6.11488801 45.994718,6.10150981 C45.9683771,6.07116998 45.9368509,6.02960203 45.8908061,6.02028507 C45.8012054,6.00212896 45.6999899,6.00296509 45.6597525,6.00009834 M47.9908157,10.0099601 C47.9731727,10.006772 47.9533606,9.99501588 47.93861,10.0023884 C47.9182194,10.0125505 47.8965273,10.0320777 47.8842351,10.0561877 C47.6087453,10.5957755 47.3336893,11.1361602 47.0605133,11.6779398 C47.0352059,11.7281525 47.0187199,11.7883281 47.0042585,11.8467104 C46.9977508,11.872813 46.9981847,11.9228265 47.0091753,11.9325901 C47.0447504,11.9636742 47.0871223,12.0017322 47.1258789,11.9999389 C47.272373,11.9929649 47.3961626,11.9036978 47.4590697,11.7203815 C47.6440311,11.1807938 47.8200264,10.6352283 47.9977571,10.0908585 C48.0046986,10.0697372 47.9935633,10.0372583 47.9908157,10.0099601 M50.9765882,9.4514221 C50.973064,9.38885182 50.9691875,9.24260985 50.9536811,9.09948722 C50.9494521,9.0611377 50.911626,9.02664147 50.8848423,9.00205374 C50.8755619,8.99342968 50.8483083,9.01361364 50.8372659,9.0319627 C50.7990874,9.09563392 50.7614962,9.16077306 50.7291913,9.23141693 C50.4904874,9.75344754 50.2524883,10.2758451 50.017426,10.8015456 C50.0003925,10.8393446 49.9933441,10.9200805 50.0077932,10.9516408 C50.0232996,10.9852196 50.0816834,11.0129267 50.1009489,10.9936602 C50.3676112,10.7268649 50.6319242,10.4545649 50.8937702,10.1763933 C50.9761183,10.0886848 51.0083058,9.95216781 50.9982031,9.7950999 C50.9926819,9.70794189 50.9872782,9.62078387 50.9765882,9.4514221 M46.0029662,14.6393973 C46.0166294,14.7805508 46.0103834,14.8424539 46.0314636,14.8948614 C46.0480546,14.9363127 46.094314,14.9711903 46.1354986,14.9978506 C46.1491617,15.006433 46.201472,14.9878073 46.2143543,14.9686338 C46.4134457,14.675553 46.6176118,14.3848461 46.8036256,14.0846438 C47.2072734,13.4321967 47.6017475,12.7750019 47.9971974,12.1183549 C48.0075424,12.10119 47.9864621,12.0670429 47.979045,12.0409304 C47.9357134,11.8900988 47.7680473,12.0838426 46.3964643,13.8691701 C46.3240498,13.9633942 46.2555389,14.0609051 46.1772687,14.1507467 C46.0302925,14.3196562 45.9875464,14.5119391 46.0029662,14.6393973 M50.1995433,9.07529125 C50.1874943,9.11998091 50.1540109,9.21012548 50.1390449,9.30486144 C50.1020102,9.53841086 49.96554,9.74502403 50.0081553,10 C50.233534,9.90924325 50.3022764,9.64141135 50.4306294,9.44444012 C50.6169442,9.15824261 50.7867709,8.85612823 50.9606562,8.55845221 C51.0282572,8.44244274 51.0082179,8.33286123 50.9045969,8.25082815 C50.8040199,8.17078467 50.6993843,8.0979344 50.5943682,8.02646154 C50.5116744,7.97014032 50.4296147,8.00610632 50.406151,8.11170861 C50.3385501,8.41596564 50.2750077,8.72144705 50.1995433,9.07529125 M36,8.30366521 C36.0064062,8.44025809 36.0056613,8.61348024 36.0262206,8.78291315 C36.0353084,8.8576152 36.0740435,8.95703749 36.1236541,8.98753181 C36.2005281,9.03480702 36.2397101,8.93791088 36.2626531,8.85978047 C36.4923815,8.07613071 36.7237487,7.29338314 36.9467729,6.50720721 C36.9841671,6.37512533 36.9862528,6.22806694 36.9998101,6.08732395 C37.0020448,6.06386679 36.9841671,6.02795928 36.9667364,6.01406542 C36.9493056,6.000352 36.9142951,5.99439749 36.8982052,6.00666739 C36.6988689,6.15859765 36.5004265,6.3123323 36.3040698,6.46985619 C36.1546421,6.58984861 36.0917722,6.76559691 36.0805986,6.97995932 C36.0582515,7.40958633 36.0289023,7.83867202 36,8.30366521 M48.048011,14.9958249 C48.0866428,14.9771372 48.1319872,14.9682851 48.1629474,14.9384504 C48.4162459,14.6925594 48.6640647,14.438472 48.9195551,14.1958596 C49.044081,14.0778319 49.1224405,13.9322644 49.1772374,13.7566983 C49.4354676,12.9282096 49.6980815,12.101688 49.9590516,11.2745107 C49.9667232,11.2502495 49.9756277,11.2261522 49.9816553,11.2013991 C49.9989163,11.1291072 50.02152,11.0492746 49.9569967,11.0010799 C49.9439825,10.9914082 49.8791852,11.0487828 49.8589103,11.0899286 C49.2521721,12.3229899 48.6478996,13.5576905 48.0447232,14.7928829 C48.0239004,14.8356679 48.0175987,14.8886165 48.0049954,14.9371389 C47.9912962,14.9897596 48.0058174,15.0094309 48.048011,14.9958249 M44.1957914,12.9994572 C44.2003837,12.9987714 44.2776329,12.9790554 44.3553741,12.9766552 C44.7070137,12.9667115 44.9123554,12.7911533 45.0614414,12.4465519 C45.665658,11.050659 46.2975923,9.66745288 46.919358,8.27978924 C46.9303468,8.25492993 46.9413355,8.23007063 46.9501921,8.2043541 C46.9744657,8.13509093 47.0494188,8.05879858 46.9493721,8.00136501 C46.9300188,7.99022118 46.8544097,8.04971207 46.828824,8.0924015 C45.9216791,9.59784682 45.0171585,11.1050066 44.1134579,12.6126807 C44.0719631,12.6819438 44.040309,12.7578933 44.0058667,12.831614 C43.9771647,12.8931622 44.05589,13.0088866 44.1957914,12.9994572 M46.0097816,10.8682727 C46.0055931,10.8976733 45.997914,10.9201069 46.0005319,10.9418438 C46.0031497,10.9626054 46.0164135,10.9999483 46.0249652,10.9999483 C46.0673745,10.9999483 46.1319483,11.0018991 46.1488771,10.9818342 C46.6471426,10.3938226 47.1464552,9.8062291 47.6330275,9.21222595 C48.0743982,8.67340113 48.5030287,8.1277487 48.9327063,7.58307164 C49.0419582,7.44456844 49.0189211,7.35037512 48.8581846,7.23319082 C48.7562627,7.15850499 48.6452656,7.09162216 48.5339194,7.02571471 C48.4470066,6.97443787 48.3047697,7.00300241 48.2504928,7.08340115 C48.1588678,7.22009294 48.0688135,7.35762076 47.9860892,7.49779603 C47.3937554,8.50187454 46.8033414,9.50664975 46.2127528,10.511425 C46.1418962,10.6318141 46.074879,10.7535965 46.0097816,10.8682727 M44.9670446,6.24959467 C44.9923785,6.11411671 45.0018637,6.08941461 44.9997025,6.06655366 C44.9977814,6.04522701 44.9869755,6.01791661 44.9734081,6.00733 C44.9609212,5.99751053 44.9328259,5.99720367 44.9229805,6.00855743 C44.5914789,6.39151666 44.3683967,6.87957487 44.1387109,7.35796704 C43.4770285,8.73606791 42.8235105,10.1203059 42.1666307,11.5022425 C42.1169235,11.6068812 42.0654153,11.7101391 42.0167886,11.8156984 C41.9836505,11.8876566 42.0020205,11.9964379 42.050407,11.9988928 C42.1039564,12.0018079 42.1752754,12.0018079 42.2090139,11.9617629 C42.2778116,11.880292 42.3310007,11.7745793 42.3831093,11.6727024 C42.7088477,11.0373521 43.037948,10.4046102 43.3554018,9.7625091 C43.7548606,8.95501135 44.1519181,8.14521215 44.5348079,7.32467291 C44.7108243,6.94739057 44.8505808,6.54249097 44.9670446,6.24959467 M36.004384,11.3358777 L36.0019174,11.3358777 C36.0019174,11.487153 35.9962586,11.6389031 36.004384,11.7897037 C36.0080114,11.8569548 36.0212153,11.9503151 36.0624228,11.9821209 C36.1317792,12.0356052 36.1888024,11.9579105 36.2262374,11.8958813 C37.023836,10.566842 37.8236111,9.23938518 38.6136646,7.9051241 C38.7729812,7.63627809 38.9549329,7.36933093 38.9986071,7.04130399 C39.0128266,6.93433524 38.9250429,6.99620622 38.4148816,7.70020616 C38.085076,8.15529806 37.7557056,8.61070643 37.4196608,9.06026 C37.0396516,9.56851979 36.6571757,10.0756719 36.1914141,10.496268 C36.055168,10.6192187 35.9962586,10.768437 36.0035134,10.9576894 C36.0084467,11.0834884 36.004384,11.2097622 36.004384,11.3358777 M50,7.5653064 C49.9797197,7.53020855 49.9667354,7.48434203 49.9380462,7.46200704 C49.745878,7.3129741 49.5512367,7.16753073 49.3553587,7.02421449 C49.2867272,6.97396074 49.2016489,7.00467137 49.1629432,7.09095359 C48.9655813,7.53060739 48.7747734,7.97385074 48.5718468,8.41044677 C48.2537924,9.09432313 47.9199096,9.76969093 47.6079145,10.456758 C47.3916326,10.933238 47.1999591,11.4227467 47.0013606,11.908267 C46.9929517,11.9288737 47.0257217,11.9690235 47.0393243,12 C47.0556475,11.9885666 47.0758041,11.9803239 47.0880465,11.9649021 C47.1389946,11.9001572 47.1904373,11.8354123 47.2368099,11.7669449 C48.1086152,10.4781624 48.9798023,9.18898098 49.8504947,7.89940075 C49.8968673,7.83080039 49.941756,7.76033879 49.9792251,7.6858888 C49.9962902,7.65158863 49.9936933,7.60598801 50,7.5653064 M39.2724453,12.9992362 C39.4126699,12.9992362 39.4881272,12.9968291 39.5634272,12.9995571 C39.7839824,13.0074202 39.9485734,12.9103346 40.0722918,12.7278779 C40.1291991,12.6433091 40.1930234,12.5637149 40.2554328,12.4831579 C41.4580322,10.9304299 42.5178918,9.27965343 43.4931764,7.57062559 C43.6965965,7.21421707 43.8575719,6.83823094 43.9761026,6.44555572 C44.0111588,6.32905298 43.9974821,6.19570066 43.9968533,6.07005101 C43.9965389,6.01067634 43.9430901,5.98082853 43.8869688,6.01340436 C43.5276037,6.22298092 43.2903851,6.56253988 43.0547385,6.89006343 C42.4300156,7.75821747 41.8210129,8.63840693 41.217198,9.5219663 C40.5270788,10.5318172 39.8487498,11.5501731 39.1663336,12.5656406 C39.1097406,12.6497279 39.059593,12.7386295 39.0086594,12.8267287 C38.9761185,12.8828939 39.0407287,12.9812633 39.1119415,12.9868798 C39.1869271,12.9928173 39.2620699,12.9984338 39.2724453,12.9992362 M37.554954,6.00408684 C37.2905519,5.98297589 37.2050367,6.03830114 37.1687758,6.29643708 C37.1131758,6.69143021 36.9959323,7.0692434 36.8584432,7.44196083 C36.6319639,8.05534309 36.3956639,8.66523112 36.1655585,9.27744863 C36.1169085,9.40702617 36.076115,9.53936998 36.0359259,9.6715682 C36.0327531,9.68190529 36.0696183,9.71757551 36.0780791,9.71451806 C36.1224987,9.6996676 36.1765878,9.68612748 36.2040857,9.65366029 C36.72594,9.0430443 37.2456791,8.4306812 37.7631518,7.81671657 C38.0828518,7.43744746 38.3922779,7.04987956 38.7187768,6.67614297 C38.8414594,6.53579156 38.9929996,6.41611432 39.1439354,6.30269757 C39.270093,6.2077711 39.5023137,6.27983951 39.5796702,6.42193803 C39.6482636,6.54831254 39.6949495,6.68458735 39.6586886,6.82479317 C39.6003691,7.04944278 39.551568,7.2819544 39.4501887,7.48927848 C39.2551354,7.8883482 39.0485996,8.28567082 38.8068604,8.65969859 C38.2834953,9.46933987 37.7361073,10.2645675 37.1962736,11.0640173 C36.8670552,11.5516074 36.5310378,12.0348297 36.2030281,12.5231478 C36.1252183,12.638894 36.0661433,12.7665789 36.0022335,12.8906239 C35.9946792,12.9053288 36.0079748,12.9328458 36.01704,12.9522096 C36.0403074,13.0017112 36.0885041,13.0175808 36.1336791,12.9766692 C36.3087889,12.8176819 36.4971943,12.667867 36.6466193,12.4880599 C36.9935149,12.0706455 37.3385975,11.6495913 37.6518008,11.2087365 C38.1426822,10.5177533 38.6112029,9.81162843 39.0810833,9.10710511 C39.6944962,8.18710453 40.2707418,7.2439547 40.9426255,6.36078908 C40.9702744,6.32439089 40.9974701,6.27896595 40.9998874,6.23630728 C41.0020027,6.19932672 40.9739005,6.1313349 40.9497266,6.12711271 C40.7845885,6.09813976 40.6171842,6.06785646 40.4500821,6.06552698 C40.015556,6.05941208 39.5805767,6.07731999 39.1462017,6.06785646 C38.6155844,6.05606345 38.0854203,6.02607135 37.554954,6.00408684 M37.6670501,13.2243865 C37.8314191,13.1823213 37.9181877,13.0502526 38.0146153,12.93374 C38.9119329,11.8481415 39.8095778,10.7619081 40.6176711,9.61106888 C40.9256176,9.17232136 41.2219403,8.72404966 41.4894493,8.26165041 C41.6796852,7.93290724 41.8142583,7.57368668 41.9704416,7.22684756 C41.9907422,7.18176641 41.9949987,7.12890718 41.9997465,7.07906394 C42.0018747,7.05699957 41.990251,7.01636304 41.9781362,7.01366452 C41.9363891,7.00461655 41.8702485,6.98985406 41.851094,7.01033106 C41.4102116,7.48066713 41.0870398,8.03211752 40.7362002,8.56324964 C39.7655387,10.0326729 38.8371155,11.5286051 37.7823049,12.9450103 C37.7238589,13.0234261 37.6994655,13.1261286 37.6591918,13.217402 C37.3592674,13.3840753 37.1865489,13.6621816 37.0010607,13.9283826 C36.9950033,13.9371131 37.0161224,13.9734637 37.0331487,13.9848927 C37.0506661,13.996798 37.0881566,14.0055285 37.1004352,13.9958455 C37.3630328,13.7901231 37.5756975,13.5488437 37.6670501,13.2243865 M36.0516257,12.6972027 C36.1395294,12.0523503 36.1270777,11.4552532 36.0473269,10.8586243 C36.0373951,10.7848065 36.0325033,10.709116 36.0338375,10.6346739 C36.0425834,10.1611787 36.0877952,9.68503045 36.0547387,9.21481258 C36.0213857,8.74053707 36.0123433,8.27016314 36.0207927,7.79526339 C36.0338375,7.07191131 36.012788,6.34777891 36.0065621,5.62380258 C36.0049315,5.44932413 35.9929244,5.2739093 36.0061174,5.10067935 C36.0298351,4.79105033 36.2324732,4.6012777 36.5218291,4.59956101 C36.5928339,4.59924888 36.6642835,4.60237014 36.7349919,4.60923691 C38.2956163,4.76014985 39.8606877,4.76592418 41.4257592,4.76295899 C42.2105185,4.76155442 42.985346,4.88718515 43.7638793,4.96240752 C44.5452292,5.03794202 45.3270238,5.01640532 46.1091148,5.00079902 C46.2622422,4.99783382 46.3796448,4.88078656 46.3919483,4.72066591 C46.4070683,4.52293407 46.4098848,4.32317341 46.4058825,4.12466125 C46.3956542,3.62557173 46.3766801,3.1264822 46.3655624,2.62739267 C46.3609671,2.41904855 46.4250049,2.2373912 46.5727958,2.08944346 C46.6810077,1.98097966 46.871787,1.96209604 46.9515377,2.083357 C47.2914419,2.59976952 47.748897,3.00646974 48.1227472,3.49010903 C48.3488065,3.78225899 48.6079223,4.0341447 48.8809723,4.27651056 C50.1348972,5.38986412 51.4713894,6.37867939 52.8791829,7.26386882 C53.4082358,7.59675123 53.9260227,7.94929758 54.4478121,8.29497716 C54.5681794,8.37441324 54.683062,8.46336916 54.8012057,8.54655075 C55.0779616,8.74178558 55.0465356,9.09480012 54.8252199,9.31781417 C54.7408738,9.40286851 54.6360713,9.46638616 54.538384,9.53630239 C53.2444354,10.4625364 51.9412963,11.3748808 50.6583171,12.3179696 C49.4298887,13.2211063 48.3111546,14.2620466 47.2909972,15.4192538 C47.1304581,15.6012233 46.9620624,15.7777306 46.7831421,15.9394119 C46.6374265,16.0712851 46.4132942,15.9742139 46.4165554,15.7799155 C46.4296002,15.0078717 46.2806234,14.2375447 46.3969883,13.4639403 C46.4152213,13.3425233 46.403066,13.2158001 46.4001013,13.091574 C46.3977295,12.9955952 46.299894,12.9091363 46.2076915,12.9147546 C46.184122,12.9161591 46.1602561,12.9145985 46.1369831,12.9181879 C45.1048186,13.0731585 44.073247,13.2306261 43.0407861,13.3827875 C42.7595832,13.4243003 42.4767496,13.4734602 42.1942126,13.4781421 C41.739574,13.4857891 41.2954601,13.5567978 40.8602404,13.6797755 C40.5588774,13.7649859 40.2554391,13.792453 39.9471091,13.8113366 C39.5452424,13.8361506 39.142338,13.8600283 38.743436,13.9143382 C37.9923262,14.0167155 37.2424023,14.1322022 36.4947019,14.2598617 C36.2023813,14.3099579 36.0569622,14.1677845 36.0529599,13.8484796 C36.0477716,13.4491143 36.0516257,13.0497491 36.0516257,12.6972027" id="Fill-10-Copy" fill="#137FFF"></path>
                <path d="M42.0014169,26.6235461 C42.0710597,26.7490335 42.1155682,26.9486725 42.2208179,26.9875633 C42.3354929,27.0306023 42.526618,26.9543765 42.6481002,26.8745209 C42.7742951,26.7920726 42.8889701,26.65777 42.9491875,26.5208746 C43.0010269,26.4031654 43.0266848,26.1921184 42.9596601,26.1252264 C42.8648831,26.0308516 42.6721872,25.994035 42.5245234,26.0007761 C42.1417498,26.0173694 41.9830898,26.2533065 42.0014169,26.6235461 M43.3339436,32.9068949 C43.4935129,32.7198906 43.7514596,32.4226697 43.9966973,32.1204841 C44.0145842,32.0986393 43.9562167,32.0278094 43.9082047,32.0059646 C43.8743139,31.9907395 43.7731121,32.0066266 43.747694,32.0314502 C43.4963371,32.2760451 43.2510994,32.5239499 43.0148051,32.7748335 C42.9837386,32.8082625 43.0115102,32.8681701 43.0096274,32.9151694 C43.0049203,33.0174425 43.056698,33.0416041 43.3339436,32.9068949 M36.2774874,27 C36.4337508,26.9047895 36.6167434,26.8301978 36.7693059,26.6852595 C36.8696434,26.5906554 36.9247468,26.3935635 37,26.2425608 C36.8971951,26.1570533 36.7960351,26.0060506 36.6915854,26.0011991 C36.5077703,25.992709 36.3091513,26.0284888 36.1426074,26.1346151 C36.0607747,26.1867687 35.9842879,26.4529943 36.0027928,26.5949004 C36.0208864,26.7349873 36.1619347,26.8399008 36.2774874,27 M47.9971317,26.216618 C47.9053279,26.1570321 47.8130533,26.0844513 47.7010057,26.0299365 C47.6482773,26.0042639 47.5230476,25.9887335 47.4905632,26.0099689 C47.0983963,26.2632092 47.0065925,26.5937844 47.0000015,26.9405238 C46.9995307,26.9608084 47.1134615,27.0067657 47.159128,26.9991589 C47.6054356,26.9253104 48.0395026,26.5202528 47.9971317,26.216618 M52.008305,30.4315963 C52.008305,30.6200456 51.9856688,30.7141277 52.0151385,30.8005122 C52.0407644,30.8749226 52.1142252,30.9909572 52.1872588,30.9983697 C52.2978771,31.0094885 52.4567574,30.9621623 52.5404685,30.9042876 C52.6805565,30.8084949 52.7864767,30.6878987 52.8919698,30.571579 C53.1008205,30.3409353 53.0102758,30.1881232 52.5904389,30.0398726 C52.367494,29.9614708 52.1304549,30.0025248 52.0920161,30.1293931 C52.0514418,30.2616783 52.0181282,30.3948187 52.008305,30.4315963 M43.1953916,34 C43.2792208,33.9614661 43.3959242,33.936711 43.4412906,33.8822965 C43.6270298,33.6583328 43.7897571,33.4250276 43.9633329,33.1959261 C44.0244789,33.1151217 44.0123155,33.0455272 43.9028444,33.0018554 C43.8785175,32.9920468 43.8022493,33.0231074 43.7736488,33.0485632 C43.4830408,33.3073241 43.1434503,33.5431982 43.0014338,33.8713202 C42.9915715,33.894207 43.0346367,33.9369445 43.0678397,33.9591307 C43.1000564,33.9803827 43.1519976,33.9866883 43.1953916,34 M45.6597525,27.0000983 C45.3797504,26.9978288 45.1920453,27.0341411 45.2370531,27.1822568 C45.3193944,27.4540013 45.1279559,27.6989894 45.0016439,27.9504278 C44.9939698,27.9653588 45.0153329,28.0002377 45.0211403,27.9999988 C45.0684296,27.9986848 45.1420598,28.0003571 45.1582377,27.9844705 C45.4378249,27.709262 45.7105677,27.4319034 45.9826883,27.1543059 C45.9972069,27.1396138 46.0063329,27.114888 45.994718,27.1015098 C45.9683771,27.07117 45.9368509,27.029602 45.8908061,27.0202851 C45.8012054,27.002129 45.6999899,27.0029651 45.6597525,27.0000983 M47.9908157,31.0099601 C47.9731727,31.006772 47.9533606,30.9950159 47.93861,31.0023884 C47.9182194,31.0125505 47.8965273,31.0320777 47.8842351,31.0561877 C47.6087453,31.5957755 47.3336893,32.1361602 47.0605133,32.6779398 C47.0352059,32.7281525 47.0187199,32.7883281 47.0042585,32.8467104 C46.9977508,32.872813 46.9981847,32.9228265 47.0091753,32.9325901 C47.0447504,32.9636742 47.0871223,33.0017322 47.1258789,32.9999389 C47.272373,32.9929649 47.3961626,32.9036978 47.4590697,32.7203815 C47.6440311,32.1807938 47.8200264,31.6352283 47.9977571,31.0908585 C48.0046986,31.0697372 47.9935633,31.0372583 47.9908157,31.0099601 M50.9765882,30.4514221 C50.973064,30.3888518 50.9691875,30.2426099 50.9536811,30.0994872 C50.9494521,30.0611377 50.911626,30.0266415 50.8848423,30.0020537 C50.8755619,29.9934297 50.8483083,30.0136136 50.8372659,30.0319627 C50.7990874,30.0956339 50.7614962,30.1607731 50.7291913,30.2314169 C50.4904874,30.7534475 50.2524883,31.2758451 50.017426,31.8015456 C50.0003925,31.8393446 49.9933441,31.9200805 50.0077932,31.9516408 C50.0232996,31.9852196 50.0816834,32.0129267 50.1009489,31.9936602 C50.3676112,31.7268649 50.6319242,31.4545649 50.8937702,31.1763933 C50.9761183,31.0886848 51.0083058,30.9521678 50.9982031,30.7950999 C50.9926819,30.7079419 50.9872782,30.6207839 50.9765882,30.4514221 M46.0029662,35.6393973 C46.0166294,35.7805508 46.0103834,35.8424539 46.0314636,35.8948614 C46.0480546,35.9363127 46.094314,35.9711903 46.1354986,35.9978506 C46.1491617,36.006433 46.201472,35.9878073 46.2143543,35.9686338 C46.4134457,35.675553 46.6176118,35.3848461 46.8036256,35.0846438 C47.2072734,34.4321967 47.6017475,33.7750019 47.9971974,33.1183549 C48.0075424,33.10119 47.9864621,33.0670429 47.979045,33.0409304 C47.9357134,32.8900988 47.7680473,33.0838426 46.3964643,34.8691701 C46.3240498,34.9633942 46.2555389,35.0609051 46.1772687,35.1507467 C46.0302925,35.3196562 45.9875464,35.5119391 46.0029662,35.6393973 M50.1995433,30.0752912 C50.1874943,30.1199809 50.1540109,30.2101255 50.1390449,30.3048614 C50.1020102,30.5384109 49.96554,30.745024 50.0081553,31 C50.233534,30.9092432 50.3022764,30.6414114 50.4306294,30.4444401 C50.6169442,30.1582426 50.7867709,29.8561282 50.9606562,29.5584522 C51.0282572,29.4424427 51.0082179,29.3328612 50.9045969,29.2508281 C50.8040199,29.1707847 50.6993843,29.0979344 50.5943682,29.0264615 C50.5116744,28.9701403 50.4296147,29.0061063 50.406151,29.1117086 C50.3385501,29.4159656 50.2750077,29.7214471 50.1995433,30.0752912 M36,29.3036652 C36.0064062,29.4402581 36.0056613,29.6134802 36.0262206,29.7829131 C36.0353084,29.8576152 36.0740435,29.9570375 36.1236541,29.9875318 C36.2005281,30.034807 36.2397101,29.9379109 36.2626531,29.8597805 C36.4923815,29.0761307 36.7237487,28.2933831 36.9467729,27.5072072 C36.9841671,27.3751253 36.9862528,27.2280669 36.9998101,27.087324 C37.0020448,27.0638668 36.9841671,27.0279593 36.9667364,27.0140654 C36.9493056,27.000352 36.9142951,26.9943975 36.8982052,27.0066674 C36.6988689,27.1585976 36.5004265,27.3123323 36.3040698,27.4698562 C36.1546421,27.5898486 36.0917722,27.7655969 36.0805986,27.9799593 C36.0582515,28.4095863 36.0289023,28.838672 36,29.3036652 M48.048011,35.9958249 C48.0866428,35.9771372 48.1319872,35.9682851 48.1629474,35.9384504 C48.4162459,35.6925594 48.6640647,35.438472 48.9195551,35.1958596 C49.044081,35.0778319 49.1224405,34.9322644 49.1772374,34.7566983 C49.4354676,33.9282096 49.6980815,33.101688 49.9590516,32.2745107 C49.9667232,32.2502495 49.9756277,32.2261522 49.9816553,32.2013991 C49.9989163,32.1291072 50.02152,32.0492746 49.9569967,32.0010799 C49.9439825,31.9914082 49.8791852,32.0487828 49.8589103,32.0899286 C49.2521721,33.3229899 48.6478996,34.5576905 48.0447232,35.7928829 C48.0239004,35.8356679 48.0175987,35.8886165 48.0049954,35.9371389 C47.9912962,35.9897596 48.0058174,36.0094309 48.048011,35.9958249 M44.1957914,33.9994572 C44.2003837,33.9987714 44.2776329,33.9790554 44.3553741,33.9766552 C44.7070137,33.9667115 44.9123554,33.7911533 45.0614414,33.4465519 C45.665658,32.050659 46.2975923,30.6674529 46.919358,29.2797892 C46.9303468,29.2549299 46.9413355,29.2300706 46.9501921,29.2043541 C46.9744657,29.1350909 47.0494188,29.0587986 46.9493721,29.001365 C46.9300188,28.9902212 46.8544097,29.0497121 46.828824,29.0924015 C45.9216791,30.5978468 45.0171585,32.1050066 44.1134579,33.6126807 C44.0719631,33.6819438 44.040309,33.7578933 44.0058667,33.831614 C43.9771647,33.8931622 44.05589,34.0088866 44.1957914,33.9994572 M46.0097816,31.8682727 C46.0055931,31.8976733 45.997914,31.9201069 46.0005319,31.9418438 C46.0031497,31.9626054 46.0164135,31.9999483 46.0249652,31.9999483 C46.0673745,31.9999483 46.1319483,32.0018991 46.1488771,31.9818342 C46.6471426,31.3938226 47.1464552,30.8062291 47.6330275,30.2122259 C48.0743982,29.6734011 48.5030287,29.1277487 48.9327063,28.5830716 C49.0419582,28.4445684 49.0189211,28.3503751 48.8581846,28.2331908 C48.7562627,28.158505 48.6452656,28.0916222 48.5339194,28.0257147 C48.4470066,27.9744379 48.3047697,28.0030024 48.2504928,28.0834011 C48.1588678,28.2200929 48.0688135,28.3576208 47.9860892,28.497796 C47.3937554,29.5018745 46.8033414,30.5066497 46.2127528,31.511425 C46.1418962,31.6318141 46.074879,31.7535965 46.0097816,31.8682727 M44.9670446,27.2495947 C44.9923785,27.1141167 45.0018637,27.0894146 44.9997025,27.0665537 C44.9977814,27.045227 44.9869755,27.0179166 44.9734081,27.00733 C44.9609212,26.9975105 44.9328259,26.9972037 44.9229805,27.0085574 C44.5914789,27.3915167 44.3683967,27.8795749 44.1387109,28.357967 C43.4770285,29.7360679 42.8235105,31.1203059 42.1666307,32.5022425 C42.1169235,32.6068812 42.0654153,32.7101391 42.0167886,32.8156984 C41.9836505,32.8876566 42.0020205,32.9964379 42.050407,32.9988928 C42.1039564,33.0018079 42.1752754,33.0018079 42.2090139,32.9617629 C42.2778116,32.880292 42.3310007,32.7745793 42.3831093,32.6727024 C42.7088477,32.0373521 43.037948,31.4046102 43.3554018,30.7625091 C43.7548606,29.9550113 44.1519181,29.1452122 44.5348079,28.3246729 C44.7108243,27.9473906 44.8505808,27.542491 44.9670446,27.2495947 M36.004384,32.3358777 L36.0019174,32.3358777 C36.0019174,32.487153 35.9962586,32.6389031 36.004384,32.7897037 C36.0080114,32.8569548 36.0212153,32.9503151 36.0624228,32.9821209 C36.1317792,33.0356052 36.1888024,32.9579105 36.2262374,32.8958813 C37.023836,31.566842 37.8236111,30.2393852 38.6136646,28.9051241 C38.7729812,28.6362781 38.9549329,28.3693309 38.9986071,28.041304 C39.0128266,27.9343352 38.9250429,27.9962062 38.4148816,28.7002062 C38.085076,29.1552981 37.7557056,29.6107064 37.4196608,30.06026 C37.0396516,30.5685198 36.6571757,31.0756719 36.1914141,31.496268 C36.055168,31.6192187 35.9962586,31.768437 36.0035134,31.9576894 C36.0084467,32.0834884 36.004384,32.2097622 36.004384,32.3358777 M50,28.5653064 C49.9797197,28.5302085 49.9667354,28.484342 49.9380462,28.462007 C49.745878,28.3129741 49.5512367,28.1675307 49.3553587,28.0242145 C49.2867272,27.9739607 49.2016489,28.0046714 49.1629432,28.0909536 C48.9655813,28.5306074 48.7747734,28.9738507 48.5718468,29.4104468 C48.2537924,30.0943231 47.9199096,30.7696909 47.6079145,31.456758 C47.3916326,31.933238 47.1999591,32.4227467 47.0013606,32.908267 C46.9929517,32.9288737 47.0257217,32.9690235 47.0393243,33 C47.0556475,32.9885666 47.0758041,32.9803239 47.0880465,32.9649021 C47.1389946,32.9001572 47.1904373,32.8354123 47.2368099,32.7669449 C48.1086152,31.4781624 48.9798023,30.188981 49.8504947,28.8994007 C49.8968673,28.8308004 49.941756,28.7603388 49.9792251,28.6858888 C49.9962902,28.6515886 49.9936933,28.605988 50,28.5653064 M39.2724453,33.9992362 C39.4126699,33.9992362 39.4881272,33.9968291 39.5634272,33.9995571 C39.7839824,34.0074202 39.9485734,33.9103346 40.0722918,33.7278779 C40.1291991,33.6433091 40.1930234,33.5637149 40.2554328,33.4831579 C41.4580322,31.9304299 42.5178918,30.2796534 43.4931764,28.5706256 C43.6965965,28.2142171 43.8575719,27.8382309 43.9761026,27.4455557 C44.0111588,27.329053 43.9974821,27.1957007 43.9968533,27.070051 C43.9965389,27.0106763 43.9430901,26.9808285 43.8869688,27.0134044 C43.5276037,27.2229809 43.2903851,27.5625399 43.0547385,27.8900634 C42.4300156,28.7582175 41.8210129,29.6384069 41.217198,30.5219663 C40.5270788,31.5318172 39.8487498,32.5501731 39.1663336,33.5656406 C39.1097406,33.6497279 39.059593,33.7386295 39.0086594,33.8267287 C38.9761185,33.8828939 39.0407287,33.9812633 39.1119415,33.9868798 C39.1869271,33.9928173 39.2620699,33.9984338 39.2724453,33.9992362 M37.554954,27.0040868 C37.2905519,26.9829759 37.2050367,27.0383011 37.1687758,27.2964371 C37.1131758,27.6914302 36.9959323,28.0692434 36.8584432,28.4419608 C36.6319639,29.0553431 36.3956639,29.6652311 36.1655585,30.2774486 C36.1169085,30.4070262 36.076115,30.53937 36.0359259,30.6715682 C36.0327531,30.6819053 36.0696183,30.7175755 36.0780791,30.7145181 C36.1224987,30.6996676 36.1765878,30.6861275 36.2040857,30.6536603 C36.72594,30.0430443 37.2456791,29.4306812 37.7631518,28.8167166 C38.0828518,28.4374475 38.3922779,28.0498796 38.7187768,27.676143 C38.8414594,27.5357916 38.9929996,27.4161143 39.1439354,27.3026976 C39.270093,27.2077711 39.5023137,27.2798395 39.5796702,27.421938 C39.6482636,27.5483125 39.6949495,27.6845874 39.6586886,27.8247932 C39.6003691,28.0494428 39.551568,28.2819544 39.4501887,28.4892785 C39.2551354,28.8883482 39.0485996,29.2856708 38.8068604,29.6596986 C38.2834953,30.4693399 37.7361073,31.2645675 37.1962736,32.0640173 C36.8670552,32.5516074 36.5310378,33.0348297 36.2030281,33.5231478 C36.1252183,33.638894 36.0661433,33.7665789 36.0022335,33.8906239 C35.9946792,33.9053288 36.0079748,33.9328458 36.01704,33.9522096 C36.0403074,34.0017112 36.0885041,34.0175808 36.1336791,33.9766692 C36.3087889,33.8176819 36.4971943,33.667867 36.6466193,33.4880599 C36.9935149,33.0706455 37.3385975,32.6495913 37.6518008,32.2087365 C38.1426822,31.5177533 38.6112029,30.8116284 39.0810833,30.1071051 C39.6944962,29.1871045 40.2707418,28.2439547 40.9426255,27.3607891 C40.9702744,27.3243909 40.9974701,27.278966 40.9998874,27.2363073 C41.0020027,27.1993267 40.9739005,27.1313349 40.9497266,27.1271127 C40.7845885,27.0981398 40.6171842,27.0678565 40.4500821,27.065527 C40.015556,27.0594121 39.5805767,27.07732 39.1462017,27.0678565 C38.6155844,27.0560635 38.0854203,27.0260713 37.554954,27.0040868 M37.6670501,34.2243865 C37.8314191,34.1823213 37.9181877,34.0502526 38.0146153,33.93374 C38.9119329,32.8481415 39.8095778,31.7619081 40.6176711,30.6110689 C40.9256176,30.1723214 41.2219403,29.7240497 41.4894493,29.2616504 C41.6796852,28.9329072 41.8142583,28.5736867 41.9704416,28.2268476 C41.9907422,28.1817664 41.9949987,28.1289072 41.9997465,28.0790639 C42.0018747,28.0569996 41.990251,28.016363 41.9781362,28.0136645 C41.9363891,28.0046165 41.8702485,27.9898541 41.851094,28.0103311 C41.4102116,28.4806671 41.0870398,29.0321175 40.7362002,29.5632496 C39.7655387,31.0326729 38.8371155,32.5286051 37.7823049,33.9450103 C37.7238589,34.0234261 37.6994655,34.1261286 37.6591918,34.217402 C37.3592674,34.3840753 37.1865489,34.6621816 37.0010607,34.9283826 C36.9950033,34.9371131 37.0161224,34.9734637 37.0331487,34.9848927 C37.0506661,34.996798 37.0881566,35.0055285 37.1004352,34.9958455 C37.3630328,34.7901231 37.5756975,34.5488437 37.6670501,34.2243865 M36.0516257,33.6972027 C36.1395294,33.0523503 36.1270777,32.4552532 36.0473269,31.8586243 C36.0373951,31.7848065 36.0325033,31.709116 36.0338375,31.6346739 C36.0425834,31.1611787 36.0877952,30.6850304 36.0547387,30.2148126 C36.0213857,29.7405371 36.0123433,29.2701631 36.0207927,28.7952634 C36.0338375,28.0719113 36.012788,27.3477789 36.0065621,26.6238026 C36.0049315,26.4493241 35.9929244,26.2739093 36.0061174,26.1006794 C36.0298351,25.7910503 36.2324732,25.6012777 36.5218291,25.599561 C36.5928339,25.5992489 36.6642835,25.6023701 36.7349919,25.6092369 C38.2956163,25.7601499 39.8606877,25.7659242 41.4257592,25.762959 C42.2105185,25.7615544 42.985346,25.8871851 43.7638793,25.9624075 C44.5452292,26.037942 45.3270238,26.0164053 46.1091148,26.000799 C46.2622422,25.9978338 46.3796448,25.8807866 46.3919483,25.7206659 C46.4070683,25.5229341 46.4098848,25.3231734 46.4058825,25.1246613 C46.3956542,24.6255717 46.3766801,24.1264822 46.3655624,23.6273927 C46.3609671,23.4190485 46.4250049,23.2373912 46.5727958,23.0894435 C46.6810077,22.9809797 46.871787,22.962096 46.9515377,23.083357 C47.2914419,23.5997695 47.748897,24.0064697 48.1227472,24.490109 C48.3488065,24.782259 48.6079223,25.0341447 48.8809723,25.2765106 C50.1348972,26.3898641 51.4713894,27.3786794 52.8791829,28.2638688 C53.4082358,28.5967512 53.9260227,28.9492976 54.4478121,29.2949772 C54.5681794,29.3744132 54.683062,29.4633692 54.8012057,29.5465507 C55.0779616,29.7417856 55.0465356,30.0948001 54.8252199,30.3178142 C54.7408738,30.4028685 54.6360713,30.4663862 54.538384,30.5363024 C53.2444354,31.4625364 51.9412963,32.3748808 50.6583171,33.3179696 C49.4298887,34.2211063 48.3111546,35.2620466 47.2909972,36.4192538 C47.1304581,36.6012233 46.9620624,36.7777306 46.7831421,36.9394119 C46.6374265,37.0712851 46.4132942,36.9742139 46.4165554,36.7799155 C46.4296002,36.0078717 46.2806234,35.2375447 46.3969883,34.4639403 C46.4152213,34.3425233 46.403066,34.2158001 46.4001013,34.091574 C46.3977295,33.9955952 46.299894,33.9091363 46.2076915,33.9147546 C46.184122,33.9161591 46.1602561,33.9145985 46.1369831,33.9181879 C45.1048186,34.0731585 44.073247,34.2306261 43.0407861,34.3827875 C42.7595832,34.4243003 42.4767496,34.4734602 42.1942126,34.4781421 C41.739574,34.4857891 41.2954601,34.5567978 40.8602404,34.6797755 C40.5588774,34.7649859 40.2554391,34.792453 39.9471091,34.8113366 C39.5452424,34.8361506 39.142338,34.8600283 38.743436,34.9143382 C37.9923262,35.0167155 37.2424023,35.1322022 36.4947019,35.2598617 C36.2023813,35.3099579 36.0569622,35.1677845 36.0529599,34.8484796 C36.0477716,34.4491143 36.0516257,34.0497491 36.0516257,33.6972027" id="Fill-10-Copy-2" fill="#137FFF" transform="translate(45.500000, 30.000000) rotate(-180.000000) translate(-45.500000, -30.000000) "></path>
            </g>
        </g>
    </g>
</svg>