<?xml version="1.0" encoding="UTF-8"?>
<svg width="70px" height="70px" viewBox="0 0 70 70" version="1.1" xmlns="http://www.w3.org/2000/svg" xmlns:xlink="http://www.w3.org/1999/xlink">
    <!-- Generator: Sketch 57.1 (83088) - https://sketch.com -->
    <title>UI / Icons / events_respect</title>
    <desc>Created with Sketch.</desc>
    <g id="Page-1" stroke="none" stroke-width="1" fill="none" fill-rule="evenodd">
        <g id="Main-Page---Values" transform="translate(-1067.000000, -727.000000)" fill="#FFFFFF">
            <g id="events" transform="translate(297.000000, 727.000000)">
                <g id="UI-/-Icons-/-values_respect" transform="translate(770.000000, 0.000000)">
                    <g id="iconmonstr-handshake-3">
                        <path d="M35,0 C15.67125,0 0,15.67125 0,35 C0,54.32875 15.67125,70 35,70 C54.32875,70 70,54.32875 70,35 C70,15.67125 54.32875,0 35,0 Z M35.0046797,66 C18.956373,66 5.70965632,53.8938947 4,38.3931197 L11.4407488,40.3617181 L15.6680924,24.9136457 L6.63624012,22.1669083 C11.5593016,11.4651733 22.4100035,4 35.0015599,4 C47.6274342,4 58.4999748,11.5054753 63.4043174,22.2475124 L54.3350274,24.9136457 L58.5623711,40.3617181 L66,38.3931197 C64.2997031,53.8938947 51.0529865,66 35.0046797,66 L35.0046797,66 Z M31.6882143,46.7068321 L29.8731954,49.3296632 C29.3836001,50.0410375 28.328671,50.2261105 27.6524344,49.6911339 C26.9410336,49.1359149 26.7868516,48.0717453 27.3116112,47.311211 L29.1239252,44.6941634 C29.6486848,43.9365209 30.6414001,43.7745821 31.350096,44.329801 C32.058792,44.8850199 32.2129739,45.9491896 31.6882143,46.7068321 L31.6882143,46.7068321 Z M28.6897663,44.6993869 L26.8664195,47.3417112 C26.382895,48.046331 25.3483145,48.2253737 24.6540922,47.68247 C23.9490647,47.1251272 23.7842882,46.0855242 24.3056303,45.3318121 L26.1316783,42.6923756 C26.6476179,41.9386634 27.6416796,41.7740596 28.346707,42.3285145 C29.0571369,42.8829695 29.2138096,43.9485625 28.6897663,44.6993869 L28.6897663,44.6993869 Z M24.6909825,41.7101759 L22.8737534,44.3299465 C22.3815872,45.0470581 21.3215368,45.2205529 20.6508928,44.6942855 C19.9423897,44.1391023 19.7882498,43.0721096 20.3074581,42.3174075 L22.1246872,39.6947453 C22.6411913,38.9371516 23.6363406,38.7723316 24.3475478,39.3332979 C25.0614593,39.8884811 25.2101908,40.9525822 24.6909825,41.7101759 L24.6909825,41.7101759 Z M48.49801,43.1184289 C49.16733,43.7762438 49.16733,44.8477066 48.49801,45.5083941 C47.8316001,46.1662091 46.7432276,46.1662091 46.0797278,45.5083941 L41.1675012,40.6595223 C41.0074464,40.5015318 40.7484487,40.4957867 40.5796636,40.6480321 C40.3992382,40.8117677 40.390508,41.0904055 40.5651132,41.2598862 L45.1106689,45.7496887 C45.7770788,46.4103762 45.7770788,47.4789665 45.1106689,48.139654 C44.444259,48.8003415 43.3587966,48.8003415 42.6894766,48.139654 L38.9936663,44.4886373 C38.8277913,44.3249017 38.5629734,44.3249017 38.3970985,44.4857648 C38.2166731,44.6495004 38.2166731,44.9195205 38.3883682,45.0890012 L41.4555998,48.1166735 C42.1220097,48.777361 42.1220097,49.8430787 41.4555998,50.5066388 C40.7891899,51.1644537 39.7037275,51.1644537 39.0344075,50.5066388 L37.4513202,48.9410966 C37.8616425,46.4477194 36.0050071,44.4139509 33.7380494,44.2186172 C33.1356614,42.8053205 31.7941114,41.8602501 30.2895964,41.7338577 C29.7133992,40.3665218 28.3863996,39.3783631 26.8353233,39.243353 C25.6072667,36.3506907 21.600077,35.8163956 19.6794197,38.4045671 L18.6114178,39.8293541 C17.5259554,39.4243239 16.3502803,39.0882351 15,38.7751266 L18.0905123,27.5606743 C22.7000899,27.5204585 26.3260581,23.2087544 30.577695,25.8629947 C29.1837634,27.5606743 28.0459195,28.91652 26.323148,29.9104238 C24.9466769,30.7032488 24.3035477,32.2573007 24.7196902,33.7797546 C25.2464159,35.6871307 27.2049044,37.0199959 29.4951427,37.0199959 C32.5216331,37.0199959 35.6528865,34.5668345 38.0362477,32.8030861 C39.4359995,34.1790396 47.3223349,41.8372696 48.49801,43.1184289 L48.49801,43.1184289 Z M34.351485,47.3316694 C35.0599387,47.8834109 35.2113639,48.9493407 34.6894877,49.7004024 L32.8723851,52.3291183 C32.3856611,53.0397382 31.3365007,53.2275037 30.6496791,52.6902057 C29.9412254,52.1355755 29.7898002,51.0725343 30.3062683,50.3156953 L32.1287791,47.6869793 C32.6452472,46.941695 33.6376232,46.7712618 34.351485,47.3316694 L34.351485,47.3316694 Z M50.8702565,26.6834299 L54,38.1974088 C52.8785086,38.6987726 51.7570172,39.281282 50.5862613,40 C50.5862613,40 43.040102,32.5519945 40.7971191,30.3088987 C39.6031799,29.1120014 38.7772754,28.9497102 37.394972,30.0625639 C35.6359403,31.4797136 33.4827927,32.9171497 31.8947376,33.4764746 C28.7765858,34.5661439 27.0726143,31.911524 28.5244676,31.0652915 C31.4716427,29.3467439 32.9090064,26.8689056 35.3809241,24.0664848 C36.067729,23.2869076 36.8878377,23 37.719538,23 C38.626584,23 39.5597113,23.3390726 40.3624325,23.7563928 C44.0253916,25.6488237 47.3608867,26.941357 50.8702565,26.6834299 L50.8702565,26.6834299 Z M39.2947014,50.4515 C40.5127014,51.6695 39.6127014,52.9475 38.2567014,52.9475 C37.9057014,52.9475 37.5187014,52.8665 37.1317014,52.6655 C37.7167014,51.8705 38.5777014,50.8115 38.8987014,50.0525 L39.2947014,50.4515 Z" id="Shape" fill-rule="nonzero"></path>
                    </g>
                </g>
            </g>
        </g>
    </g>
</svg>