<?xml version="1.0" encoding="UTF-8"?>
<svg width="53px" height="79px" viewBox="0 0 53 79" version="1.1" xmlns="http://www.w3.org/2000/svg" xmlns:xlink="http://www.w3.org/1999/xlink">
    <!-- Generator: Sketch 57.1 (83088) - https://sketch.com -->
    <title>UI / Icons / scrum_master</title>
    <desc>Created with Sketch.</desc>
    <g id="Dynamic-Scrum" stroke="none" stroke-width="1" fill="none" fill-rule="evenodd">
        <g id="Scrum-Master" transform="translate(-390.000000, -219.000000)">
            <g id="Img-Prev" transform="translate(286.000000, 173.000000)">
                <g id="First-Img" transform="translate(93.500349, 0.000000)">
                    <g id="UI-/-Icons-/-scrum_master" transform="translate(10.499651, 45.000000)">
                        <g id="Group-2-Copy-2">
                            <path d="M26.5,2.00310438 C15.3514717,2.00310438 6.31536105,11.0050161 6.31536105,22.107508 C6.31536105,27.9465529 8.82717015,33.379238 13.133413,37.1711747 L14.0329921,37.9633148 L13.1037136,38.7203946 C5.69519058,44.7560917 1.01536105,55.2864302 1.01536105,66.4590137 C1.01536105,73.9555064 12.0649182,78.9223079 26.4967558,78.8761969 C40.8826516,78.8302325 51.9846389,73.8162156 51.9846389,66.4590137 C51.9846389,55.2859788 47.3044875,44.7558542 39.8956919,38.7223338 L38.9662223,37.9653992 L39.8657264,37.1730886 C44.1728495,33.3792433 46.6846389,27.9465508 46.6846389,22.107508 C46.6846389,11.0050161 37.6485283,2.00310438 26.5,2.00310438 Z" id="Path" stroke="#005CFF" stroke-width="2.03072211" fill="#FFFFFF" fill-rule="nonzero"></path>
                            <text id="SM" font-family="Noteworthy-Light, Noteworthy" font-size="16" font-weight="300" fill="#005CFF">
                                <tspan x="15.8105702" y="62.184571">SM</tspan>
                            </text>
                        </g>
                    </g>
                </g>
            </g>
        </g>
    </g>
</svg>