<?xml version="1.0" encoding="UTF-8"?>
<svg width="195px" height="245px" viewBox="0 0 195 245" version="1.1" xmlns="http://www.w3.org/2000/svg" xmlns:xlink="http://www.w3.org/1999/xlink">
    <!-- Generator: Sketch 57.1 (83088) - https://sketch.com -->
    <title>First Img</title>
    <desc>Created with Sketch.</desc>
    <g id="Dynamic-Scrum" stroke="none" stroke-width="1" fill="none" fill-rule="evenodd">
        <g id="Scrum-Master" transform="translate(-259.000000, -257.000000)">
            <g id="Img-Prev" transform="translate(258.000000, 210.000000)">
                <g id="First-Img" transform="translate(0.500349, 43.000000)">
                    <text id="1-per-team!" font-family="Noteworthy-Light, Noteworthy" font-size="14" font-weight="300" fill="#000000">
                        <tspan x="15.4996511" y="244">1 per team!</tspan>
                    </text>
                    <path d="M56.4587557,186.434718 C56.4972194,186.588441 56.5537564,186.833558 56.6255862,187.076415 C56.6371716,187.114845 56.7117819,187.154568 56.770636,187.172976 C56.8239291,187.189769 56.9467349,187.188477 56.9509057,187.178143 C57.1798342,186.595869 57.5505687,186.030388 57.4379581,185.406454 C57.4249824,185.33476 57.2590787,185.26468 57.1446144,185.216238 C56.9875157,185.149065 56.8790759,185.199122 56.7803678,185.306664 C56.4870242,185.625735 56.5889761,185.994541 56.4587557,186.434718 M57.3032975,187.029724 C57.2661775,187.265312 57.2432914,187.334603 57.2471988,187.399423 C57.2547344,187.530405 57.2516644,187.707431 57.3007856,187.773593 C57.341534,187.828131 57.4816413,187.797733 57.5254597,187.724419 C57.7640886,187.327897 57.9901581,186.912153 58.2117621,186.490598 C58.2809784,186.358722 58.2396719,186.238022 58.1565007,186.128051 C57.7719034,185.619324 57.4930843,185.705602 57.3875852,186.381968 C57.3457204,186.651978 57.3164151,186.926906 57.3032975,187.029724 M60.6107987,188.27507 C60.5935033,188.219101 60.5857869,188.136198 60.5575821,188.110528 C60.3814354,187.94767 60.2058208,187.779762 60.0184986,187.656461 C59.9668786,187.622374 59.8391589,187.702751 59.810422,187.785653 C59.6300179,188.311682 59.604474,188.893259 59.6119243,189.478623 C59.6127226,189.528701 59.6510385,189.596453 59.6824362,189.621282 C59.7164948,189.647373 59.7784921,189.661681 59.8024395,189.631382 C60.058411,189.305665 60.3146487,188.978265 60.5575821,188.628982 C60.6044127,188.56165 60.5945676,188.395846 60.6107987,188.27507 M57.7725618,189.458099 C57.7725618,189.22121 57.7936671,189.036654 57.672312,188.986415 C57.6202372,188.965134 57.5332928,189.046771 57.4839708,189.116896 C56.9620753,189.858263 56.5555703,190.79884 55.86598,191.250638 C55.7728418,191.311342 55.7453132,191.712902 55.8070231,191.85664 C55.8838736,192.035266 55.9921526,191.992005 56.09332,191.923625 C56.4560087,191.679758 56.8154858,191.424728 57.1788627,191.183304 C57.4286843,191.017936 57.5876617,190.758719 57.6351485,190.336227 C57.6716238,190.013165 57.7342513,189.696732 57.7725618,189.458099 M28.2865573,188.557119 C27.7026134,188.58393 26.7048624,188.637194 25.7071114,188.674372 C23.7873058,188.745867 21.8670196,188.781972 19.9479349,188.881351 C17.3000017,189.018622 14.6532701,189.207013 12.0058176,189.361443 C10.2020798,189.466899 8.39786146,189.555553 6.59388341,189.638131 C6.44801759,189.644565 6.28605127,189.581292 6.1579681,189.478696 C6.07674463,189.413635 6.00513341,189.21738 6.00032729,189.074389 C5.99528086,188.927108 6.04910943,188.714409 6.12600739,188.636122 C6.24567984,188.514222 6.40476249,188.431645 6.550388,188.419133 C8.00736401,188.300093 9.46434003,188.176763 10.9222773,188.097403 C14.6064104,187.896858 18.2907839,187.696314 21.9761185,187.540096 C24.4709767,187.434283 26.9672767,187.394603 29.4630961,187.344198 C31.1913777,187.308808 32.9198996,187.287717 34.6484216,187.291292 C38.2203317,187.298799 41.7939241,187.245177 45.3643924,187.371367 C48.2805072,187.47432 51.1992654,187.621958 54.1069694,188.02984 C54.5270245,188.088466 54.9446766,188.18713 55.3642511,188.254336 C55.6321924,188.297591 55.7881511,188.087394 55.7970424,187.655204 C55.8141041,186.798331 55.8160266,185.941457 55.8299643,185.084584 C55.8335689,184.858301 55.850871,184.630945 55.8765837,184.407879 C55.9037383,184.171229 56.1505327,183.904194 56.3127393,183.948164 C56.4987363,183.998568 56.6905005,184.052547 56.8620791,184.16408 C57.6707092,184.691001 58.4783781,185.221855 59.2769153,185.781307 C60.3179214,186.511276 61.3512378,187.266626 62.385275,188.019473 C62.5561327,188.143875 62.7197811,188.297948 62.874298,188.463818 C63.0365046,188.638624 63.0425123,189.212018 62.8877551,189.395761 C62.7690439,189.536607 62.6445653,189.677811 62.5085521,189.773972 C61.0534985,190.806367 59.5950806,191.828037 58.1390658,192.856499 C57.7925444,193.101014 57.4556352,193.376271 57.1055092,193.607202 C56.8969235,193.745188 56.6736791,193.83992 56.4521169,193.926072 C56.2312755,194.011151 55.950598,193.771641 55.9169551,193.44455 C55.8645684,192.939792 55.8316465,192.427884 55.8169878,191.917406 C55.7989648,191.291106 55.8181893,190.662303 55.8008873,190.035645 C55.7941587,189.798281 55.6901062,189.60417 55.5170858,189.57021 C54.8324536,189.436156 54.1487827,189.260635 53.4607863,189.197719 C51.6979006,189.036854 49.9318909,188.955349 48.1690052,188.793054 C44.1018241,188.41806 40.0298368,188.520299 35.9592914,188.486339 C33.5396491,188.465962 31.1200068,188.527806 28.2865573,188.557119" id="Fill-61-Copy-2" fill="#000000" transform="translate(34.500000, 188.943373) rotate(-275.000000) translate(-34.500000, -188.943373) "></path>
                    <g id="UI-/-Icons-/-scrum_master" transform="translate(0.499651, 62.000000)">
                        <g id="Group-2-Copy-2">
                            <path d="M26.5,2.00310438 C15.3514717,2.00310438 6.31536105,11.0050161 6.31536105,22.107508 C6.31536105,27.9465529 8.82717015,33.379238 13.133413,37.1711747 L14.0329921,37.9633148 L13.1037136,38.7203946 C5.69519058,44.7560917 1.01536105,55.2864302 1.01536105,66.4590137 C1.01536105,73.9555064 12.0649182,78.9223079 26.4967558,78.8761969 C40.8826516,78.8302325 51.9846389,73.8162156 51.9846389,66.4590137 C51.9846389,55.2859788 47.3044875,44.7558542 39.8956919,38.7223338 L38.9662223,37.9653992 L39.8657264,37.1730886 C44.1728495,33.3792433 46.6846389,27.9465508 46.6846389,22.107508 C46.6846389,11.0050161 37.6485283,2.00310438 26.5,2.00310438 Z" id="Path" stroke="#005CFF" stroke-width="2.03072211" fill="#FFFFFF" fill-rule="nonzero"></path>
                            <text id="SM" font-family="Noteworthy-Light, Noteworthy" font-size="16" font-weight="300" fill="#005CFF">
                                <tspan x="15.8105702" y="62.184571">SM</tspan>
                            </text>
                        </g>
                    </g>
                    <text id="Service-to" font-family="Noteworthy-Light, Noteworthy" font-size="14" font-weight="300" fill="#000000">
                        <tspan x="89.7684011" y="115">Service </tspan>
                        <tspan x="103.908401" y="137">to</tspan>
                    </text>
                    <g id="Arrows---Service-to" transform="translate(142.499651, 0.000000)" fill="#000000">
                        <path d="M48.4587557,19.4913454 C48.4972194,19.6450683 48.5537564,19.8901852 48.6255862,20.1330416 C48.6371716,20.1714723 48.7117819,20.2111948 48.770636,20.2296028 C48.8239291,20.2463961 48.9467349,20.2451043 48.9509057,20.23477 C49.1798342,19.6524961 49.5505687,19.0870154 49.4379581,18.4630813 C49.4249824,18.391387 49.2590787,18.3213075 49.1446144,18.2728654 C48.9875157,18.2056923 48.8790759,18.2557492 48.7803678,18.3632906 C48.4870242,18.6823625 48.5889761,19.0511683 48.4587557,19.4913454 M49.3032975,20.086351 C49.2661775,20.3219392 49.2432914,20.3912299 49.2471988,20.4560502 C49.2547344,20.5870319 49.2516644,20.7640583 49.3007856,20.8302197 C49.341534,20.8847582 49.4816413,20.8543597 49.5254597,20.7810457 C49.7640886,20.3845243 49.9901581,19.9687804 50.2117621,19.5472249 C50.2809784,19.4153492 50.2396719,19.2946493 50.1565007,19.1846783 C49.7719034,18.6759508 49.4930843,18.7622288 49.3875852,19.4385951 C49.3457204,19.7086051 49.3164151,19.9835326 49.3032975,20.086351 M52.6107987,21.331697 C52.5935033,21.2757275 52.5857869,21.1928255 52.5575821,21.1671553 C52.3814354,21.0042969 52.2058208,20.8363886 52.0184986,20.7130875 C51.9668786,20.6790009 51.8391589,20.759378 51.810422,20.8422801 C51.6300179,21.3683085 51.604474,21.9498856 51.6119243,22.53525 C51.6127226,22.5853279 51.6510385,22.6530804 51.6824362,22.6779089 C51.7164948,22.7039999 51.7784921,22.7183079 51.8024395,22.6880086 C52.058411,22.3622918 52.3146487,22.0348918 52.5575821,21.6856089 C52.6044127,21.6182772 52.5945676,21.4524731 52.6107987,21.331697 M49.7725618,22.5147261 C49.7725618,22.2778375 49.7936671,22.0932807 49.672312,22.0430421 C49.6202372,22.0217605 49.5332928,22.1033982 49.4839708,22.1735228 C48.9620753,22.9148899 48.5555703,23.8554667 47.86598,24.3072646 C47.7728418,24.3679695 47.7453132,24.7695288 47.8070231,24.9132668 C47.8838736,25.0918927 47.9921526,25.0486317 48.09332,24.9802515 C48.4560087,24.7363853 48.8154858,24.481355 49.1788627,24.239931 C49.4286843,24.0745625 49.5876617,23.8153457 49.6351485,23.3928537 C49.6716238,23.069792 49.7342513,22.7533591 49.7725618,22.5147261 M20.2865573,21.6137461 C19.7026134,21.6405569 18.7048624,21.6938211 17.7071114,21.7309987 C15.7873058,21.8024942 13.8670196,21.8385994 11.9479349,21.9379781 C9.30000173,22.0752494 6.65327011,22.26364 4.00581757,22.4180702 C2.20207982,22.523526 0.397861462,22.6121804 -1.40611659,22.6947577 C-1.55198241,22.7011923 -1.71394873,22.6379188 -1.8420319,22.5353228 C-1.92325537,22.4702619 -1.99486659,22.2740068 -1.99967271,22.1310159 C-2.00471914,21.9837352 -1.95089057,21.7710362 -1.87399261,21.6927486 C-1.75432016,21.5708488 -1.59523751,21.4882716 -1.449612,21.4757599 C0.0073640146,21.3567199 1.46434003,21.2333902 2.92227727,21.1540302 C6.60641042,20.9534854 10.2907839,20.7529406 13.9761185,20.596723 C16.4709767,20.4909097 18.9672767,20.4512298 21.4630961,20.4008254 C23.1913777,20.3654352 24.9198996,20.344344 26.6484216,20.3479188 C30.2203317,20.3554258 33.7939241,20.3018042 37.3643924,20.4279937 C40.2805072,20.5309472 43.1992654,20.6785854 46.1069694,21.086467 C46.5270245,21.1450933 46.9446766,21.2437571 47.3642511,21.3109628 C47.6321924,21.3542176 47.7881511,21.1440209 47.7970424,20.7118307 C47.8141041,19.8549575 47.8160266,18.9980843 47.8299643,18.141211 C47.8335689,17.9149279 47.850871,17.6875723 47.8765837,17.4645064 C47.9037383,17.2278564 48.1505327,16.9608208 48.3127393,17.0047905 C48.4987363,17.0551948 48.6905005,17.1091739 48.8620791,17.2207068 C49.6707092,17.7476285 50.4783781,18.2784824 51.2769153,18.8379344 C52.3179214,19.5679032 53.3512378,20.3232529 54.385275,21.0761002 C54.5561327,21.2005023 54.7197811,21.354575 54.874298,21.5204445 C55.0365046,21.695251 55.0425123,22.2686447 54.8877551,22.452388 C54.7690439,22.5932341 54.6445653,22.7344377 54.5085521,22.8305991 C53.0534985,23.8629937 51.5950806,24.884664 50.1390658,25.9131263 C49.7925444,26.1576409 49.4556352,26.4328984 49.1055092,26.6638288 C48.8969235,26.8018151 48.6736791,26.8965466 48.4521169,26.9826986 C48.2312755,27.0677782 47.950598,26.8282684 47.9169551,26.5011766 C47.8645684,25.9964186 47.8316465,25.484511 47.8169878,24.9740333 C47.7989648,24.347733 47.8181893,23.7189303 47.8008873,23.0922725 C47.7941587,22.8549075 47.6901062,22.6607973 47.5170858,22.626837 C46.8324536,22.492783 46.1487827,22.3172616 45.4607863,22.2543456 C43.6979006,22.0934807 41.9318909,22.0119759 40.1690052,21.8496812 C36.1018241,21.4746874 32.0298368,21.576926 27.9592914,21.5429656 C25.5396491,21.5225894 23.1200068,21.584433 20.2865573,21.6137461" id="Fill-61-Copy-2" transform="translate(26.500000, 22.000000) rotate(-398.000000) translate(-26.500000, -22.000000) "></path>
                        <path d="M48,117.248934 C48.0384637,117.402657 48.0950007,117.647774 48.1668305,117.89063 C48.178416,117.929061 48.2530263,117.968783 48.3118804,117.987191 C48.3651735,118.003985 48.4879792,118.002693 48.49215,117.992358 C48.7210785,117.410085 49.091813,116.844604 48.9792024,116.22067 C48.9662267,116.148975 48.800323,116.078896 48.6858588,116.030454 C48.52876,115.963281 48.4203202,116.013338 48.3216122,116.120879 C48.0282685,116.439951 48.1302205,116.808757 48,117.248934 M48.0565311,117.614139 C48.019411,117.731933 47.996525,117.766578 48.0004324,117.798989 C48.007968,117.864479 48.0048979,117.952993 48.0540192,117.986073 C48.0947676,118.013343 48.2348748,117.998143 48.2786933,117.961486 C48.5173222,117.763226 48.7433917,117.555354 48.9649957,117.344576 C49.034212,117.278638 48.9929055,117.218288 48.9097342,117.163303 C48.5251369,116.908939 48.2463179,116.952078 48.1408188,117.290261 C48.098954,117.425266 48.0696487,117.56273 48.0565311,117.614139 M52,118.31332 C51.9827046,118.285335 51.9749882,118.243884 51.9467835,118.231049 C51.7706367,118.14962 51.5950222,118.065666 51.4077,118.004015 C51.3560799,117.986972 51.2283602,118.02716 51.1996233,118.068611 C51.0192193,118.331626 50.9936753,118.622414 51.0011256,118.915096 C51.0019239,118.940135 51.0402398,118.974011 51.0716376,118.986426 C51.1056961,118.999471 51.1676934,119.006625 51.1916408,118.991476 C51.4476124,118.828617 51.70385,118.664917 51.9467835,118.490276 C51.993614,118.45661 51.983769,118.373708 52,118.31332 M49.9985944,120.316749 C49.9985944,120.158823 50.0196997,120.035785 49.8983446,120.002293 C49.8462698,119.988105 49.7593254,120.04253 49.7100034,120.08928 C49.1881079,120.583525 48.7816029,121.210576 48.0920127,121.511774 C47.9988744,121.552244 47.9713458,121.819951 48.0330557,121.915776 C48.1099062,122.03486 48.2181852,122.006019 48.3193526,121.960432 C48.6820413,121.797855 49.0415184,121.627835 49.4048953,121.466885 C49.6547169,121.35664 49.8136943,121.183829 49.8611811,120.902167 C49.8976564,120.686793 49.9602839,120.475837 49.9985944,120.316749 M24.9856427,118.690997 C24.5143898,118.712446 23.7091872,118.755057 22.9039846,118.784799 C21.3546678,118.841995 19.8049632,118.87088 18.2562282,118.950382 C16.1192996,119.0602 13.9833408,119.210912 11.8468001,119.334456 C10.3911521,119.418821 8.93511627,119.489744 7.47927433,119.555806 C7.36155806,119.560954 7.23084839,119.510335 7.12748303,119.428258 C7.06193427,119.37621 7.00414275,119.219205 7.00026413,119.104813 C6.99619157,118.986988 7.03963217,118.816829 7.10169017,118.754199 C7.19826794,118.656679 7.32665043,118.590617 7.44417277,118.580608 C8.61997798,118.485376 9.79578318,118.386712 10.9723641,118.323224 C13.9455242,118.162788 16.9188782,118.002353 19.893008,117.877378 C21.9064022,117.792728 23.9209601,117.760984 25.9351302,117.72066 C27.3298838,117.692348 28.7248313,117.675475 30.1197788,117.678335 C33.002373,117.684341 35.8863247,117.641443 38.7677553,117.742395 C41.1211111,117.824758 43.4766001,117.942868 45.8231683,118.269174 C46.1621601,118.316075 46.4992127,118.395006 46.8378166,118.44877 C47.05405,118.483374 47.1799114,118.315217 47.1870868,117.969465 C47.200856,117.283966 47.2024074,116.598467 47.2136554,115.912969 C47.2165644,115.731942 47.2305274,115.550058 47.2512781,115.371605 C47.2731923,115.182285 47.4723597,114.968657 47.6032633,115.003832 C47.7533661,115.044156 47.9081232,115.087339 48.0465902,115.176565 C48.6991688,115.598103 49.3509718,116.022786 49.9954054,116.470348 C50.8355156,117.054323 51.66942,117.658602 52.5039061,118.26088 C52.6417913,118.360402 52.7738585,118.48366 52.8985563,118.616356 C53.0294599,118.756201 53.0343081,119.214916 52.9094164,119.36191 C52.8136144,119.474587 52.713158,119.58755 52.6033929,119.664479 C51.4291391,120.490395 50.2521703,121.307731 49.0771409,122.130501 C48.797492,122.326113 48.5256004,122.546319 48.2430425,122.731063 C48.0747102,122.841452 47.8945481,122.917237 47.7157434,122.986159 C47.5375206,123.054223 47.3110089,122.862615 47.2838585,122.600941 C47.2415815,122.197135 47.2150129,121.787609 47.2031831,121.379227 C47.1886383,120.878186 47.2041528,120.375144 47.1901897,119.873818 C47.1847597,119.683926 47.1007874,119.528638 46.9611569,119.50147 C46.4086468,119.394226 45.8569124,119.253809 45.3016872,119.203476 C43.8790075,119.074785 42.4538067,119.009581 41.031127,118.879745 C37.7488405,118.57975 34.4626753,118.661541 31.1776738,118.634372 C29.22498,118.618072 27.2722862,118.667546 24.9856427,118.690997" id="Fill-61-Copy-3"></path>
                        <path d="M48.4587557,206.491345 C48.4972194,206.645068 48.5537564,206.890185 48.6255862,207.133042 C48.6371716,207.171472 48.7117819,207.211195 48.770636,207.229603 C48.8239291,207.246396 48.9467349,207.245104 48.9509057,207.23477 C49.1798342,206.652496 49.5505687,206.087015 49.4379581,205.463081 C49.4249824,205.391387 49.2590787,205.321307 49.1446144,205.272865 C48.9875157,205.205692 48.8790759,205.255749 48.7803678,205.363291 C48.4870242,205.682362 48.5889761,206.051168 48.4587557,206.491345 M49.3032975,207.086351 C49.2661775,207.321939 49.2432914,207.39123 49.2471988,207.45605 C49.2547344,207.587032 49.2516644,207.764058 49.3007856,207.83022 C49.341534,207.884758 49.4816413,207.85436 49.5254597,207.781046 C49.7640886,207.384524 49.9901581,206.96878 50.2117621,206.547225 C50.2809784,206.415349 50.2396719,206.294649 50.1565007,206.184678 C49.7719034,205.675951 49.4930843,205.762229 49.3875852,206.438595 C49.3457204,206.708605 49.3164151,206.983533 49.3032975,207.086351 M52.6107987,208.331697 C52.5935033,208.275728 52.5857869,208.192825 52.5575821,208.167155 C52.3814354,208.004297 52.2058208,207.836389 52.0184986,207.713088 C51.9668786,207.679001 51.8391589,207.759378 51.810422,207.84228 C51.6300179,208.368309 51.604474,208.949886 51.6119243,209.53525 C51.6127226,209.585328 51.6510385,209.65308 51.6824362,209.677909 C51.7164948,209.704 51.7784921,209.718308 51.8024395,209.688009 C52.058411,209.362292 52.3146487,209.034892 52.5575821,208.685609 C52.6044127,208.618277 52.5945676,208.452473 52.6107987,208.331697 M49.7725618,209.514726 C49.7725618,209.277837 49.7936671,209.093281 49.672312,209.043042 C49.6202372,209.021761 49.5332928,209.103398 49.4839708,209.173523 C48.9620753,209.91489 48.5555703,210.855467 47.86598,211.307265 C47.7728418,211.367969 47.7453132,211.769529 47.8070231,211.913267 C47.8838736,212.091893 47.9921526,212.048632 48.09332,211.980252 C48.4560087,211.736385 48.8154858,211.481355 49.1788627,211.239931 C49.4286843,211.074563 49.5876617,210.815346 49.6351485,210.392854 C49.6716238,210.069792 49.7342513,209.753359 49.7725618,209.514726 M20.2865573,208.613746 C19.7026134,208.640557 18.7048624,208.693821 17.7071114,208.730999 C15.7873058,208.802494 13.8670196,208.838599 11.9479349,208.937978 C9.30000173,209.075249 6.65327011,209.26364 4.00581757,209.41807 C2.20207982,209.523526 0.397861462,209.61218 -1.40611659,209.694758 C-1.55198241,209.701192 -1.71394873,209.637919 -1.8420319,209.535323 C-1.92325537,209.470262 -1.99486659,209.274007 -1.99967271,209.131016 C-2.00471914,208.983735 -1.95089057,208.771036 -1.87399261,208.692749 C-1.75432016,208.570849 -1.59523751,208.488272 -1.449612,208.47576 C0.00736401459,208.35672 1.46434003,208.23339 2.92227727,208.15403 C6.60641042,207.953485 10.2907839,207.752941 13.9761185,207.596723 C16.4709767,207.49091 18.9672767,207.45123 21.4630961,207.400825 C23.1913777,207.365435 24.9198996,207.344344 26.6484216,207.347919 C30.2203317,207.355426 33.7939241,207.301804 37.3643924,207.427994 C40.2805072,207.530947 43.1992654,207.678585 46.1069694,208.086467 C46.5270245,208.145093 46.9446766,208.243757 47.3642511,208.310963 C47.6321924,208.354218 47.7881511,208.144021 47.7970424,207.711831 C47.8141041,206.854958 47.8160266,205.998084 47.8299643,205.141211 C47.8335689,204.914928 47.850871,204.687572 47.8765837,204.464506 C47.9037383,204.227856 48.1505327,203.960821 48.3127393,204.004791 C48.4987363,204.055195 48.6905005,204.109174 48.8620791,204.220707 C49.6707092,204.747628 50.4783781,205.278482 51.2769153,205.837934 C52.3179214,206.567903 53.3512378,207.323253 54.385275,208.0761 C54.5561327,208.200502 54.7197811,208.354575 54.874298,208.520445 C55.0365046,208.695251 55.0425123,209.268645 54.8877551,209.452388 C54.7690439,209.593234 54.6445653,209.734438 54.5085521,209.830599 C53.0534985,210.862994 51.5950806,211.884664 50.1390658,212.913126 C49.7925444,213.157641 49.4556352,213.432898 49.1055092,213.663829 C48.8969235,213.801815 48.6736791,213.896547 48.4521169,213.982699 C48.2312755,214.067778 47.950598,213.828268 47.9169551,213.501177 C47.8645684,212.996419 47.8316465,212.484511 47.8169878,211.974033 C47.7989648,211.347733 47.8181893,210.71893 47.8008873,210.092272 C47.7941587,209.854908 47.6901062,209.660797 47.5170858,209.626837 C46.8324536,209.492783 46.1487827,209.317262 45.4607863,209.254346 C43.6979006,209.093481 41.9318909,209.011976 40.1690052,208.849681 C36.1018241,208.474687 32.0298368,208.576926 27.9592914,208.542966 C25.5396491,208.522589 23.1200068,208.584433 20.2865573,208.613746" id="Fill-61-Copy-4" transform="translate(26.500000, 209.000000) rotate(52.000000) translate(-26.500000, -209.000000) "></path>
                    </g>
                </g>
            </g>
        </g>
    </g>
</svg>