<?xml version="1.0" encoding="UTF-8"?>
<svg width="48px" height="73px" viewBox="0 0 48 73" version="1.1" xmlns="http://www.w3.org/2000/svg" xmlns:xlink="http://www.w3.org/1999/xlink">
    <!-- Generator: Sketch 57.1 (83088) - https://sketch.com -->
    <title>UI / Icons / scrum_master</title>
    <desc>Created with Sketch.</desc>
    <g id="Page-1" stroke="none" stroke-width="1" fill="none" fill-rule="evenodd">
        <g id="Main-Page---Roles" transform="translate(-369.000000, -850.000000)">
            <g id="UI-/-Icons-/-scrum_master" transform="translate(369.000000, 850.000000)">
                <g id="Group-2-Copy-2">
                    <path d="M24,1.91667684 C13.9577512,1.91667684 5.81536105,10.0895099 5.81536105,20.173101 C5.81536105,25.4771258 8.07955496,30.4112381 11.9605557,33.8545297 L12.8504556,34.6440644 L11.9309141,35.3988692 C5.24290988,40.8887112 1.01536105,50.4731886 1.01536105,60.64385 C1.01536105,67.4180287 10.9725593,71.9276138 23.9967313,71.8856861 C36.9794421,71.8438918 46.9846389,67.2910956 46.9846389,60.64385 C46.9846389,50.4727809 42.756802,40.8885043 36.0685617,35.4006504 L35.1488297,34.6459893 L36.0386545,33.8562853 C39.9204606,30.41125 42.1846389,25.4771263 42.1846389,20.173101 C42.1846389,10.0895099 34.0422488,1.91667684 24,1.91667684 Z" id="Path" stroke="#005CFF" stroke-width="2.03072211" fill="#FFFFFF" fill-rule="nonzero"></path>
                    <text id="SM" font-family="Noteworthy-Light, Noteworthy" font-size="16" font-weight="300" fill="#005CFF">
                        <tspan x="13.2831579" y="58.4934211">SM</tspan>
                    </text>
                </g>
            </g>
        </g>
    </g>
</svg>