<?xml version="1.0" encoding="UTF-8"?>
<svg width="62px" height="74px" viewBox="0 0 62 74" version="1.1" xmlns="http://www.w3.org/2000/svg" xmlns:xlink="http://www.w3.org/1999/xlink">
    <!-- Generator: Sketch 57.1 (83088) - https://sketch.com -->
    <title>UI / Icons / sprint_retro</title>
    <desc>Created with Sketch.</desc>
    <g id="Page-1" stroke="none" stroke-width="1" fill="none" fill-rule="evenodd">
        <g id="Main-Page---Values-Copy" transform="translate(-977.000000, -774.000000)">
            <g id="UI-/-Icons-/-Sprint-Retrospective" transform="translate(978.000000, 775.000000)">
                <g id="Group-5">
                    <rect id="Rectangle" fill-rule="nonzero" x="6.07594937" y="22.1938776" width="52.4050633" height="52.8061224"></rect>
                    <g id="Icon" transform="translate(6.075949, 25.255102)" fill="#FFFFFF" fill-rule="nonzero" stroke="#005CFF" stroke-width="2.03072211">
                        <path d="M38.269487,1.01536105 C32.5880322,1.01536105 27.976387,5.69325606 27.976387,11.4709157 C27.976387,14.5116418 29.2599577,17.3384025 31.4593994,19.3104455 L32.3358838,20.0963109 L31.4298424,20.8479082 C29.6921312,22.2894087 28.2095223,24.2566268 27.1212474,26.5690073 L26.202658,28.5208378 L25.2838826,26.5690949 C24.1953899,24.2568239 22.7126894,22.2899508 20.9749747,20.8490202 L20.0687436,20.0975644 L20.9451528,19.3115317 C23.1451043,17.3384421 24.4286763,14.5116526 24.4286763,11.4709157 C24.4286763,5.69325606 19.817031,1.01536105 14.1355763,1.01536105 C8.45412152,1.01536105 3.84247631,5.69325606 3.84247631,11.4709157 C3.84247631,14.5116418 5.12604694,17.3384025 7.32548863,19.3104455 L8.20197308,20.0963109 L7.29593172,20.8479082 C3.45462245,24.0344267 1.01536105,29.6231423 1.01536105,35.5598386 C1.01536105,42.1227958 18.9846265,44.1899095 25.5254936,38.8066468 L26.1788646,38.2689096 L26.8255656,38.8146503 C33.2313084,44.2203553 51.3897022,42.055616 51.3897022,35.5598386 C51.3897022,29.6229191 48.950287,24.034349 45.1088854,20.8490202 L44.2026543,20.0975644 L45.0790636,19.3115317 C47.2790151,17.3384421 48.562587,14.5116526 48.562587,11.4709157 C48.562587,5.69325606 43.9509418,1.01536105 38.269487,1.01536105 Z M26.2025309,14.0164946 C25.7399244,16.2778808 24.6674985,18.3546159 23.1077867,20.0311461 C24.2790379,21.1501676 25.3219108,22.4784918 26.2024384,23.9673485 C27.0828674,22.4783118 28.1256909,21.1497288 29.2969231,20.0303741 C27.7374639,18.3543829 26.6651184,16.2778071 26.2025309,14.0164946 Z" id="Path"></path>
                        <path d="M25.1682212,5.16268728 C19.4867664,5.16268728 14.8751212,9.84058229 14.8751212,15.6182419 C14.8751212,18.658968 16.1586918,21.4857287 18.3581335,23.4577718 L19.234618,24.2436371 L18.3285766,24.9952344 C14.4872674,28.1817529 12.048006,33.7704685 12.048006,39.7071648 C12.048006,43.4262456 17.6971354,46.0118068 25.1649179,45.9875118 C32.6087952,45.9632946 38.2884364,43.3514499 38.2884364,39.7071648 C38.2884364,33.7702453 35.8490212,28.1816752 32.0076196,24.9963465 L31.1013885,24.2448906 L31.9777977,23.4588579 C34.1777492,21.4857683 35.4613212,18.6589788 35.4613212,15.6182419 C35.4613212,9.84058229 30.8496759,5.16268728 25.1682212,5.16268728 Z" id="Path"></path>
                    </g>
                    <g id="Group-2" fill-rule="nonzero">
                        <ellipse id="Oval" stroke="#FFFFFF" stroke-width="2" cx="10.2531646" cy="10.3316327" rx="10.2531646" ry="10.3316327"></ellipse>
                        <path d="M12.1173763,5.63543599 C12.6321642,5.63543599 13.0494822,6.052754 13.0494822,6.56754186 L13.0494822,12.2172448 C13.0494822,12.7320326 12.6321642,13.1493506 12.1173763,13.1493506 C12.1129369,13.1493478 12.1115902,13.1493506 12.1102428,13.1493506 L9.0174902,13.1493506 C8.49876264,13.1493506 8.07825086,12.7288389 8.07825086,12.2101113 C8.07825086,11.6913838 8.49876264,11.270872 9.0174902,11.270872 L11.1852509,11.270436 L11.1852704,6.56754186 C11.1852704,6.052754 11.6025884,5.63543599 12.1173763,5.63543599 Z" id="Combined-Shape" fill="#FFFFFF" transform="translate(10.563867, 9.392393) rotate(40.000000) translate(-10.563867, -9.392393) "></path>
                    </g>
                    <g id="Group-2-Copy" transform="translate(39.493671, 0.000000)" fill-rule="nonzero">
                        <ellipse id="Oval" stroke="#FFFFFF" stroke-width="2" cx="10.2531646" cy="10.3316327" rx="10.2531646" ry="10.3316327"></ellipse>
                        <path d="M10.2627989,5.99563361 C10.7775868,5.99563361 11.1949048,6.41295162 11.1949048,6.92773948 L11.1946735,9.12563361 L13.362685,9.12643138 C13.8814126,9.12643138 14.3019244,9.54694316 14.3019244,10.0656707 C14.3019244,10.5843983 13.8814126,11.00491 13.362685,11.00491 L11.1946735,11.0046336 L11.1949048,13.203602 C11.1949048,13.7183898 10.7775868,14.1357078 10.2627989,14.1357078 C9.74801106,14.1357078 9.33069305,13.7183898 9.33069305,13.203602 L9.33067349,11.0046336 L7.16291282,11.00491 C6.64418526,11.00491 6.22367349,10.5843983 6.22367349,10.0656707 C6.22367349,9.54694316 6.64418526,9.12643138 7.16291282,9.12643138 L9.33067349,9.12563361 L9.33069305,6.92773948 C9.33069305,6.41295162 9.74801106,5.99563361 10.2627989,5.99563361 Z" id="Combined-Shape" fill="#FFFFFF" transform="translate(10.262799, 10.065671) rotate(-46.000000) translate(-10.262799, -10.065671) "></path>
                    </g>
                </g>
            </g>
        </g>
    </g>
</svg>