<?xml version="1.0" encoding="UTF-8"?>
<svg width="57px" height="60px" viewBox="0 0 57 60" version="1.1" xmlns="http://www.w3.org/2000/svg" xmlns:xlink="http://www.w3.org/1999/xlink">
    <!-- Generator: Sketch 57.1 (83088) - https://sketch.com -->
    <title>UI / Icons / sprint_planning</title>
    <desc>Created with Sketch.</desc>
    <g id="Dynamic-Scrum" stroke="none" stroke-width="1" fill="none" fill-rule="evenodd">
        <g id="Sprint-Planning" transform="translate(-406.000000, -206.000000)" fill-rule="nonzero">
            <g id="UI-/-Icons-/-sprint_planning" transform="translate(406.000000, 206.000000)">
                <g id="Sprint-Planning">
                    <g id="Plan-Board">
                        <path d="M11.8969467,31.9149044 L14.2884515,29.2683159 C14.533063,28.9976136 14.533063,28.558749 14.2884515,28.2881331 C14.04384,28.0174308 13.6472741,28.0174308 13.4027408,28.2881331 L11.011236,30.9347217 L8.61973111,28.2881331 C8.37511964,28.0174308 7.97855374,28.0174308 7.7340204,28.2881331 C7.48940893,28.5588354 7.48940893,28.9977 7.7340204,29.2683159 L10.1255252,31.9149044 L7.7340204,34.561493 C7.48940893,34.8321953 7.48940893,35.2710599 7.7340204,35.5416757 C7.85628707,35.6770701 8.01660094,35.7446809 8.17683669,35.7446809 C8.33707244,35.7446809 8.49738631,35.6770701 8.61965298,35.5416757 L11.0111578,32.8950872 L13.4026627,35.5416757 C13.5249293,35.6769837 13.6852432,35.7446809 13.845479,35.7446809 C14.0057147,35.7446809 14.1661067,35.6770701 14.2882953,35.5416757 C14.5329067,35.2709734 14.5329067,34.8321088 14.2882953,34.561493 L11.8969467,31.9149044 Z" id="Path" fill="#137FFF"></path>
                        <path d="M13.8726184,13.7234178 L17.3511317,10.4151821 C17.7069261,10.0768042 17.7069261,9.52822347 17.3511317,9.18995364 C16.9952235,8.85157574 16.4184069,8.85157574 16.0627261,9.18995364 L12.5842128,12.4981893 L9.1056996,9.18995364 C8.74990512,8.85157574 8.17308851,8.85157574 7.81740766,9.18995364 C7.46161318,9.52833154 7.46161318,10.0769123 7.81740766,10.4151821 L11.2959209,13.7234178 L7.81740766,17.0316534 C7.46161318,17.3699233 7.46161318,17.918504 7.81740766,18.2568819 C7.99524809,18.4261249 8.22842927,18.5106383 8.46149681,18.5106383 C8.69456436,18.5106383 8.92774554,18.4261249 9.10558597,18.2568819 L12.5840992,14.9486462 L16.0626125,18.2568819 C16.2404529,18.4260168 16.4736341,18.5106383 16.7067016,18.5106383 C16.9397692,18.5106383 17.173064,18.4261249 17.3509044,18.2568819 C17.7066989,17.918504 17.7066989,17.3699233 17.3509044,17.0316534 L13.8726184,13.7234178 Z" id="Path" fill="#137FFF"></path>
                        <path d="M21.1742057,51.7021349 L23.1308032,49.9377425 C23.3309308,49.7572743 23.3309308,49.4646979 23.1308032,49.2842873 C22.9306116,49.1038191 22.6062272,49.1038191 22.4060996,49.2842873 L20.4495021,51.0486797 L18.4927768,49.2842873 C18.2925853,49.1038191 17.9682009,49.1038191 17.7680732,49.2842873 C17.5679456,49.4647555 17.5679456,49.7573319 17.7680732,49.9377425 L19.7246707,51.7021349 L17.7680732,53.4665272 C17.5679456,53.6469954 17.5679456,53.9395718 17.7680732,54.1199824 C17.868169,54.2102453 17.9992651,54.2553191 18.130425,54.2553191 C18.2615211,54.2553191 18.392745,54.2102453 18.4927768,54.1199824 L20.4493743,52.3556477 L22.4059717,54.1199824 C22.5060675,54.2101877 22.6372275,54.2553191 22.7683235,54.2553191 C22.8994196,54.2553191 23.0305796,54.2102453 23.1306753,54.1199824 C23.3308029,53.9395142 23.3308029,53.6469378 23.1306753,53.4665272 L21.1742057,51.7021349 Z" id="Path" fill="#137FFF"></path>
                        <path d="M29.9066919,30.0970051 L26.6765797,26.7547188 L26.4073722,26.4761623 C26.0130047,26.0682296 25.3739832,26.0682296 24.9797415,26.4761623 L20.9420069,30.654118 C20.5477653,31.0620507 20.5477653,31.7233942 20.9420069,32.1311967 C21.1391907,32.3350979 21.3975695,32.4371136 21.6558223,32.4371136 C21.9140751,32.4371136 22.1725798,32.3352282 22.3696377,32.1311967 L24.8469006,29.5679042 C23.8422203,39.3853899 15.7928156,47.0598932 6.04317299,47.0598932 C5.48574476,47.0598932 5.03370787,47.527498 5.03370787,48.1044147 C5.03370787,48.6812011 5.48561885,49.1489362 6.04317299,49.1489362 C16.8030362,49.1489362 25.6909127,40.7032563 26.8439215,29.8825505 L28.4788093,31.5742141 C28.6759931,31.7781153 28.9343718,31.8801311 29.1926247,31.8801311 C29.4508775,31.8801311 29.7093822,31.7782456 29.90644,31.5742141 C30.3008076,31.1661511 30.3008076,30.5048075 29.9066919,30.0970051 Z" id="Path" fill="#137FFF"></path>
                        <path d="M28.6292135,7.65957447 C24.9863279,7.65957447 22.0224719,10.523048 22.0224719,14.0425532 C22.0224719,17.5620584 24.9863279,20.4255319 28.6292135,20.4255319 C32.2720991,20.4255319 35.2359551,17.5620584 35.2359551,14.0425532 C35.2359551,10.523048 32.272224,7.65957447 28.6292135,7.65957447 Z M28.6292135,18.5106383 C26.0270983,18.5106383 23.9101124,16.506258 23.9101124,14.0425532 C23.9101124,11.5788484 26.0270983,9.57446809 28.6292135,9.57446809 C31.2313287,9.57446809 33.3483146,11.5788484 33.3483146,14.0425532 C33.3483146,16.506258 31.2313287,18.5106383 28.6292135,18.5106383 Z" id="Shape" fill="#137FFF"></path>
                        <rect id="Rectangle" stroke="#137FFF" stroke-width="2" x="1" y="1" width="40.7865169" height="58" rx="2"></rect>
                    </g>
                    <g id="Calendar" transform="translate(29.573034, 30.638298)">
                        <rect id="Rectangle" stroke="#137FFF" stroke-width="2" fill="#FFFFFF" x="0" y="3.19148936" width="26.4269663" height="22.3404255" rx="4"></rect>
                        <rect id="Rectangle" fill="#137FFF" x="8.80898876" y="9.57446809" width="3.7752809" height="3.19148936" rx="1.59574468"></rect>
                        <rect id="Rectangle-Copy-6" fill="#137FFF" x="8.80898876" y="14.6808511" width="3.7752809" height="3.19148936" rx="1.59574468"></rect>
                        <rect id="Rectangle-Copy-9" fill="#137FFF" x="3.14606742" y="14.6808511" width="3.7752809" height="3.19148936" rx="1.59574468"></rect>
                        <rect id="Rectangle-Copy-10" fill="#137FFF" x="3.14606742" y="19.787234" width="3.7752809" height="3.19148936" rx="1.59574468"></rect>
                        <rect id="Rectangle-Copy-11" fill="#137FFF" x="8.80898876" y="19.787234" width="3.7752809" height="3.19148936" rx="1.59574468"></rect>
                        <rect id="Rectangle-Copy-4" fill="#137FFF" x="13.8426966" y="9.57446809" width="3.7752809" height="3.19148936" rx="1.59574468"></rect>
                        <rect id="Rectangle-Copy-5" fill="#137FFF" x="19.505618" y="9.57446809" width="3.7752809" height="3.19148936" rx="1.59574468"></rect>
                        <rect id="Rectangle" fill="#137FFF" x="1" y="3.65957447" width="25" height="4"></rect>
                        <rect id="Rectangle" stroke="#FFFFFF" fill="#137FFF" x="4.40449438" y="0" width="2.51685393" height="5.10638298" rx="1.25842697"></rect>
                        <rect id="Rectangle-Copy-3" stroke="#FFFFFF" fill="#137FFF" x="19.505618" y="0" width="2.51685393" height="5.10638298" rx="1.25842697"></rect>
                        <path d="M21.2216547,15.4821186 C21.737647,15.4821186 22.1559414,15.900413 22.1559414,16.4164053 L22.1559414,21.0666187 C22.1559414,21.582611 21.737647,22.0009054 21.2216547,22.0009054 C21.2106881,22.0008941 21.2079879,22.0009054 21.205285,22.0009054 L18.5686339,22.0009054 C18.0436009,22.0009054 17.6179775,21.575282 17.6179775,21.050249 C17.6179775,20.5252159 18.0436009,20.0995926 18.5686339,20.0995926 L20.2869775,20.0991186 L20.2873681,16.4164053 C20.2873681,15.900413 20.7056625,15.4821186 21.2216547,15.4821186 Z" id="Combined-Shape" fill="#137FFF" transform="translate(19.886959, 18.741512) rotate(35.000000) translate(-19.886959, -18.741512) "></path>
                    </g>
                </g>
            </g>
        </g>
    </g>
</svg>