<?xml version="1.0" encoding="UTF-8"?>
<svg width="70px" height="72px" viewBox="0 0 70 72" version="1.1" xmlns="http://www.w3.org/2000/svg" xmlns:xlink="http://www.w3.org/1999/xlink">
    <!-- Generator: Sketch 57.1 (83088) - https://sketch.com -->
    <title>UI / Icons / sprint_planning</title>
    <desc>Created with Sketch.</desc>
    <g id="Page-1" stroke="none" stroke-width="1" fill="none" fill-rule="evenodd">
        <g id="Main-Page---Values-Copy" transform="translate(-375.000000, -773.000000)">
            <g id="UI-/-Icons-/-sprint_planning" transform="translate(375.000000, 773.000000)">
                <g id="Sprint-Planning">
                    <g id="Plan-Board" fill-rule="nonzero">
                        <path d="M14.4462924,38.2978853 L17.3502625,35.1219791 C17.6472908,34.7971363 17.6472908,34.2704988 17.3502625,33.9457597 C17.0532343,33.620917 16.57169,33.620917 16.2747567,33.9457597 L13.3707865,37.121666 L10.4668163,33.9457597 C10.1697881,33.620917 9.68824383,33.620917 9.39131049,33.9457597 C9.09428227,34.2706025 9.09428227,34.79724 9.39131049,35.1219791 L12.2952807,38.2978853 L9.39131049,41.4737916 C9.09428227,41.7986343 9.09428227,42.3252718 9.39131049,42.6500109 C9.53977716,42.8124841 9.734444,42.893617 9.92901598,42.893617 C10.123588,42.893617 10.3182548,42.8124841 10.4667215,42.6500109 L13.3706916,39.4741046 L16.2746618,42.6500109 C16.4231285,42.8123804 16.6177953,42.893617 16.8123673,42.893617 C17.0069393,42.893617 17.201701,42.8124841 17.3500728,42.6500109 C17.647101,42.3251681 17.647101,41.7985306 17.3500728,41.4737916 L14.4462924,38.2978853 Z" id="Path" fill="#FFFFFF"></path>
                        <path d="M16.8453224,16.4681013 L21.0692313,12.4982185 C21.5012675,12.092165 21.5012675,11.4338682 21.0692313,11.0279444 C20.6370572,10.6218909 19.936637,10.6218909 19.5047388,11.0279444 L15.2808299,14.9978272 L11.0569209,11.0279444 C10.6248848,10.6218909 9.92446462,10.6218909 9.49256645,11.0279444 C9.06053029,11.4339978 9.06053029,12.0922947 9.49256645,12.4982185 L13.7164754,16.4681013 L9.49256645,20.4379841 C9.06053029,20.8439079 9.06053029,21.5022048 9.49256645,21.9082583 C9.70851553,22.1113499 9.99166411,22.212766 10.2746747,22.212766 C10.5576853,22.212766 10.8408339,22.1113499 11.056783,21.9082583 L15.2806919,17.9383755 L19.5046008,21.9082583 C19.7205499,22.1112202 20.0036985,22.212766 20.2867091,22.212766 C20.5697197,22.212766 20.8530062,22.1113499 21.0689553,21.9082583 C21.5009915,21.5022048 21.5009915,20.8439079 21.0689553,20.4379841 L16.8453224,16.4681013 Z" id="Path" fill="#FFFFFF"></path>
                        <path d="M25.7115355,62.0425618 L28.0874038,59.925291 C28.3304159,59.7087291 28.3304159,59.3576375 28.0874038,59.1411448 C27.8443141,58.9245829 27.4504187,58.9245829 27.2074066,59.1411448 L24.8315383,61.2584156 L22.4555147,59.1411448 C22.212425,58.9245829 21.8185296,58.9245829 21.5755175,59.1411448 C21.3325054,59.3577067 21.3325054,59.7087983 21.5755175,59.925291 L23.9513858,62.0425618 L21.5755175,64.1598327 C21.3325054,64.3763945 21.3325054,64.7274862 21.5755175,64.9439789 C21.6970624,65.0522944 21.8562504,65.106383 22.0155161,65.106383 C22.1747042,65.106383 22.3340475,65.0522944 22.4555147,64.9439789 L24.8313831,62.8267772 L27.2072514,64.9439789 C27.3287962,65.0522252 27.4880619,65.106383 27.64725,65.106383 C27.8064381,65.106383 27.9657037,65.0522944 28.0872486,64.9439789 C28.3302607,64.727417 28.3302607,64.3763254 28.0872486,64.1598327 L25.7115355,62.0425618 Z" id="Path" fill="#FFFFFF"></path>
                        <path d="M36.3152687,36.1164061 L32.3929897,32.1056625 L32.0660949,31.7713948 C31.58722,31.2818755 30.8112653,31.2818755 30.3325433,31.7713948 L25.4295798,36.7849415 C24.9508578,37.2744608 24.9508578,38.0680731 25.4295798,38.557436 C25.6690173,38.8021175 25.9827629,38.9245364 26.2963556,38.9245364 C26.6099484,38.9245364 26.9238469,38.8022738 27.1631314,38.557436 L30.1712364,35.481485 C28.9512674,47.2624678 19.1769904,56.4718719 7.33813863,56.4718719 C6.6612615,56.4718719 6.11235955,57.0329976 6.11235955,57.7252976 C6.11235955,58.4174413 6.6611086,58.9787234 7.33813863,58.9787234 C20.4036868,58.9787234 31.1961082,48.8439075 32.5961904,35.8590606 L34.5814113,37.8890569 C34.8208487,38.1337384 35.1345944,38.2561573 35.4481871,38.2561573 C35.7617798,38.2561573 36.0756783,38.1338947 36.3149629,37.8890569 C36.7938378,37.3993813 36.7938378,36.605769 36.3152687,36.1164061 Z" id="Path" fill="#FFFFFF"></path>
                        <path d="M34.7640449,9.19148936 C30.340541,9.19148936 26.741573,12.6276576 26.741573,16.8510638 C26.741573,21.0744701 30.340541,24.5106383 34.7640449,24.5106383 C39.1875489,24.5106383 42.7865169,21.0744701 42.7865169,16.8510638 C42.7865169,12.6276576 39.1877005,9.19148936 34.7640449,9.19148936 Z M34.7640449,22.212766 C31.6043336,22.212766 29.0337079,19.8075096 29.0337079,16.8510638 C29.0337079,13.894618 31.6043336,11.4893617 34.7640449,11.4893617 C37.9237563,11.4893617 40.494382,13.894618 40.494382,16.8510638 C40.494382,19.8075096 37.9237563,22.212766 34.7640449,22.212766 Z" id="Shape" fill="#FFFFFF"></path>
                        <rect id="Rectangle" stroke="#FFFFFF" stroke-width="3" x="1.5" y="1.5" width="48.9550562" height="69" rx="2"></rect>
                    </g>
                    <g id="Calendar" transform="translate(35.910112, 36.765957)" fill-rule="nonzero">
                        <rect id="Rectangle" stroke="#FFFFFF" stroke-width="3" fill="#005CFF" x="0" y="3.82978723" width="32.0898876" height="26.8085106" rx="4"></rect>
                        <rect id="Rectangle" fill="#FFFFFF" x="10.6966292" y="11.4893617" width="4.58426966" height="3.82978723" rx="1.91489362"></rect>
                        <rect id="Rectangle-Copy-6" fill="#FFFFFF" x="10.6966292" y="17.6170213" width="4.58426966" height="3.82978723" rx="1.91489362"></rect>
                        <rect id="Rectangle-Copy-9" fill="#FFFFFF" x="3.82022472" y="17.6170213" width="4.58426966" height="3.82978723" rx="1.91489362"></rect>
                        <rect id="Rectangle-Copy-10" fill="#FFFFFF" x="3.82022472" y="23.7446809" width="4.58426966" height="3.82978723" rx="1.91489362"></rect>
                        <rect id="Rectangle-Copy-11" fill="#FFFFFF" x="10.6966292" y="23.7446809" width="4.58426966" height="3.82978723" rx="1.91489362"></rect>
                        <rect id="Rectangle-Copy-4" fill="#FFFFFF" x="16.8089888" y="11.4893617" width="4.58426966" height="3.82978723" rx="1.91489362"></rect>
                        <rect id="Rectangle-Copy-5" fill="#FFFFFF" x="23.6853933" y="11.4893617" width="4.58426966" height="3.82978723" rx="1.91489362"></rect>
                        <rect id="Rectangle" fill="#FFFFFF" x="0" y="3.82978723" width="32.0898876" height="5.36170213"></rect>
                        <rect id="Rectangle" stroke="#005CFF" stroke-width="3" fill="#FFFFFF" x="5.34831461" y="0" width="3.05617978" height="6.12765957" rx="1.52808989"></rect>
                        <rect id="Rectangle-Copy-3" stroke="#005CFF" stroke-width="3" fill="#FFFFFF" x="23.6853933" y="0" width="3.05617978" height="6.12765957" rx="1.52808989"></rect>
                        <path d="M25.7691522,18.5785423 C26.3957143,18.5785423 26.9036432,19.0864712 26.9036432,19.7130333 L26.9036432,25.2665955 C26.9036432,25.8931576 26.3957143,26.4010865 25.7691522,26.4010865 C25.7648876,26.4010851 25.7638717,26.4010865 25.7628555,26.4010865 L22.5340461,26.4010865 C21.9040065,26.4010865 21.3932584,25.8903384 21.3932584,25.2602988 C21.3932584,24.6302591 21.9040065,24.1195111 22.5340461,24.1195111 L24.6342584,24.1185423 L24.6346612,19.7130333 C24.6346612,19.0864712 25.1425901,18.5785423 25.7691522,18.5785423 Z" id="Combined-Shape" fill="#FFFFFF" transform="translate(24.148451, 22.489814) rotate(35.000000) translate(-24.148451, -22.489814) "></path>
                    </g>
                </g>
            </g>
        </g>
    </g>
</svg>