<?xml version="1.0" encoding="UTF-8"?>
<svg width="57px" height="72px" viewBox="0 0 57 72" version="1.1" xmlns="http://www.w3.org/2000/svg" xmlns:xlink="http://www.w3.org/1999/xlink">
    <!-- Generator: Sketch 57.1 (83088) - https://sketch.com -->
    <title>UI / Icons / sprint_review</title>
    <desc>Created with Sketch.</desc>
    <g id="Page-1" stroke="none" stroke-width="1" fill="none" fill-rule="evenodd">
        <g id="Main-Page---Values-Copy" transform="translate(-779.000000, -773.000000)">
            <g id="UI-/-Icons-/-sprint_review" transform="translate(779.000000, 773.000000)">
                <g id="Group">
                    <rect id="Rectangle" stroke="#FFFFFF" stroke-width="3" fill="#005CFF" fill-rule="nonzero" x="1.5" y="1.5" width="49" height="68.6170213" rx="2"></rect>
                    <g id="UI-/-Icons-/-Components-/-Magnifier" transform="translate(7.027027, 14.785450)" fill="#FFFFFF">
                        <g id="Task-Board" transform="translate(0.000000, 0.000000)">
                            <g id="Group-4-Copy-4" transform="translate(0.000000, 38.440044)" fill-rule="nonzero">
                                <rect id="Rectangle" x="7.96396396" y="1.83047831" width="30.4504505" height="2.74571746" rx="1.37285873"></rect>
                                <path d="M3.5060595,0.625994125 C3.89415148,0.625994125 4.2087622,0.940604841 4.2087622,1.32869683 L4.2087622,4.04186762 C4.2087622,4.4299596 3.89415148,4.74457032 3.5060595,4.74457032 C3.42613634,4.74457032 3.34932958,4.73122744 3.27774524,4.70664772 C3.20831501,4.73130077 3.13263932,4.74457032 3.05386437,4.74457032 L2.08438076,4.74457032 C1.70527629,4.74457032 1.39795139,4.43724543 1.39795139,4.05814095 C1.39795139,3.67903648 1.70527629,3.37171159 2.08438076,3.37171159 L2.80295139,3.37099412 L2.8033568,1.32869683 C2.8033568,0.940604841 3.11796751,0.625994125 3.5060595,0.625994125 Z" id="Combined-Shape" transform="translate(2.803357, 2.685282) rotate(41.000000) translate(-2.803357, -2.685282) "></path>
                            </g>
                            <g id="Group-4-Copy-9" transform="translate(0.936937, 30.202892)" fill-rule="nonzero">
                                <rect id="Rectangle" x="6.09009009" y="0" width="31.8558559" height="2.74571746" rx="1.37285873"></rect>
                                <rect id="Rectangle" x="0" y="0" width="2.81081081" height="2.74571746" rx="1.37285873"></rect>
                            </g>
                            <g id="Group-4-Copy" transform="translate(0.000000, 18.304783)" fill-rule="nonzero">
                                <rect id="Rectangle" x="7.96396396" y="1.83047831" width="26.2342342" height="2.74571746" rx="1.37285873"></rect>
                                <path d="M3.5060595,0.625994125 C3.89415148,0.625994125 4.2087622,0.940604841 4.2087622,1.32869683 L4.2087622,4.04186762 C4.2087622,4.4299596 3.89415148,4.74457032 3.5060595,4.74457032 C3.42613634,4.74457032 3.34932958,4.73122744 3.27774524,4.70664772 C3.20831501,4.73130077 3.13263932,4.74457032 3.05386437,4.74457032 L2.08438076,4.74457032 C1.70527629,4.74457032 1.39795139,4.43724543 1.39795139,4.05814095 C1.39795139,3.67903648 1.70527629,3.37171159 2.08438076,3.37171159 L2.80295139,3.37099412 L2.8033568,1.32869683 C2.8033568,0.940604841 3.11796751,0.625994125 3.5060595,0.625994125 Z" id="Combined-Shape" transform="translate(2.803357, 2.685282) rotate(41.000000) translate(-2.803357, -2.685282) "></path>
                            </g>
                            <g id="Group-4-Copy-6" transform="translate(0.000000, 8.237152)" fill-rule="nonzero">
                                <rect id="Rectangle" x="7.96396396" y="1.83047831" width="20.6126126" height="2.74571746" rx="1.37285873"></rect>
                                <path d="M3.5060595,0.625994125 C3.89415148,0.625994125 4.2087622,0.940604841 4.2087622,1.32869683 L4.2087622,4.04186762 C4.2087622,4.4299596 3.89415148,4.74457032 3.5060595,4.74457032 C3.42613634,4.74457032 3.34932958,4.73122744 3.27774524,4.70664772 C3.20831501,4.73130077 3.13263932,4.74457032 3.05386437,4.74457032 L2.08438076,4.74457032 C1.70527629,4.74457032 1.39795139,4.43724543 1.39795139,4.05814095 C1.39795139,3.67903648 1.70527629,3.37171159 2.08438076,3.37171159 L2.80295139,3.37099412 L2.8033568,1.32869683 C2.8033568,0.940604841 3.11796751,0.625994125 3.5060595,0.625994125 Z" id="Combined-Shape" transform="translate(2.803357, 2.685282) rotate(41.000000) translate(-2.803357, -2.685282) "></path>
                            </g>
                            <g id="Group-4-Copy-8" transform="translate(0.468468, 0.000000)" fill-rule="nonzero">
                                <rect id="Rectangle" x="6.55855856" y="0" width="31.8558559" height="2.74571746" rx="1.37285873"></rect>
                                <rect id="Rectangle" x="0" y="0" width="2.81081081" height="2.74571746" rx="1.37285873"></rect>
                            </g>
                        </g>
                    </g>
                    <g id="UI-/-Icons-/-Component-/-Magnifier" transform="translate(22.205203, 25.113531)">
                        <g id="Magnifier" transform="translate(21.000000, 19.500000) rotate(38.000000) translate(-21.000000, -19.500000) translate(3.054545, 9.176471)">
                            <rect id="Rectangle" stroke="#005CFF" fill="#FFFFFF" fill-rule="nonzero" x="20.3545455" y="10.4411765" width="15.0363636" height="3.58823529" rx="1.79411765"></rect>
                            <ellipse id="Oval" stroke="#FFFFFF" stroke-width="3" fill="#005CFF" fill-rule="nonzero" cx="10.3090909" cy="10.3235294" rx="10.3090909" ry="10.3235294"></ellipse>
                        </g>
                    </g>
                </g>
            </g>
        </g>
    </g>
</svg>