<?xml version="1.0" encoding="UTF-8"?>
<svg width="410px" height="503px" viewBox="0 0 410 503" version="1.1" xmlns="http://www.w3.org/2000/svg" xmlns:xlink="http://www.w3.org/1999/xlink">
    <!-- Generator: Sketch 57.1 (83088) - https://sketch.com -->
    <title>Group 2</title>
    <desc>Created with Sketch.</desc>
    <defs>
        <rect id="path-1" x="0" y="0" width="246" height="429" rx="4"></rect>
        <filter x="-10.8%" y="-6.2%" width="129.7%" height="117.0%" filterUnits="objectBoundingBox" id="filter-2">
            <feMorphology radius="0.5" operator="dilate" in="SourceAlpha" result="shadowSpreadOuter1"></feMorphology>
            <feOffset dx="10" dy="10" in="shadowSpreadOuter1" result="shadowOffsetOuter1"></feOffset>
            <feGaussianBlur stdDeviation="10" in="shadowOffsetOuter1" result="shadowBlurOuter1"></feGaussianBlur>
            <feColorMatrix values="0 0 0 0 0   0 0 0 0 0   0 0 0 0 0  0 0 0 0.542340472 0" type="matrix" in="shadowBlurOuter1"></feColorMatrix>
        </filter>
        <rect id="path-3" x="0" y="0" width="205" height="45" rx="4"></rect>
        <filter x="-3.9%" y="-13.3%" width="106.8%" height="131.1%" filterUnits="objectBoundingBox" id="filter-5">
            <feMorphology radius="0.5" operator="dilate" in="SourceAlpha" result="shadowSpreadOuter1"></feMorphology>
            <feOffset dx="-1" dy="1" in="shadowSpreadOuter1" result="shadowOffsetOuter1"></feOffset>
            <feGaussianBlur stdDeviation="2" in="shadowOffsetOuter1" result="shadowBlurOuter1"></feGaussianBlur>
            <feComposite in="shadowBlurOuter1" in2="SourceAlpha" operator="out" result="shadowBlurOuter1"></feComposite>
            <feColorMatrix values="0 0 0 0 0.215686275   0 0 0 0 0.274509804   0 0 0 0 0.37254902  0 0 0 0.12 0" type="matrix" in="shadowBlurOuter1"></feColorMatrix>
        </filter>
        <rect id="path-6" x="0" y="0" width="205" height="45" rx="4"></rect>
        <filter x="-3.9%" y="-13.3%" width="106.8%" height="131.1%" filterUnits="objectBoundingBox" id="filter-8">
            <feMorphology radius="0.5" operator="dilate" in="SourceAlpha" result="shadowSpreadOuter1"></feMorphology>
            <feOffset dx="-1" dy="1" in="shadowSpreadOuter1" result="shadowOffsetOuter1"></feOffset>
            <feGaussianBlur stdDeviation="2" in="shadowOffsetOuter1" result="shadowBlurOuter1"></feGaussianBlur>
            <feComposite in="shadowBlurOuter1" in2="SourceAlpha" operator="out" result="shadowBlurOuter1"></feComposite>
            <feColorMatrix values="0 0 0 0 0.215686275   0 0 0 0 0.274509804   0 0 0 0 0.37254902  0 0 0 0.12 0" type="matrix" in="shadowBlurOuter1"></feColorMatrix>
        </filter>
        <rect id="path-9" x="0" y="0" width="216" height="45" rx="4"></rect>
        <filter x="-3.7%" y="-13.3%" width="106.5%" height="131.1%" filterUnits="objectBoundingBox" id="filter-11">
            <feMorphology radius="0.5" operator="dilate" in="SourceAlpha" result="shadowSpreadOuter1"></feMorphology>
            <feOffset dx="-1" dy="1" in="shadowSpreadOuter1" result="shadowOffsetOuter1"></feOffset>
            <feGaussianBlur stdDeviation="2" in="shadowOffsetOuter1" result="shadowBlurOuter1"></feGaussianBlur>
            <feComposite in="shadowBlurOuter1" in2="SourceAlpha" operator="out" result="shadowBlurOuter1"></feComposite>
            <feColorMatrix values="0 0 0 0 0.215686275   0 0 0 0 0.274509804   0 0 0 0 0.37254902  0 0 0 0.12 0" type="matrix" in="shadowBlurOuter1"></feColorMatrix>
        </filter>
    </defs>
    <g id="Dynamic-Scrum" stroke="none" stroke-width="1" fill="none" fill-rule="evenodd">
        <g id="Sprint-Backlog" transform="translate(-251.000000, -160.000000)">
            <g id="Group-2" transform="translate(250.000000, 156.000000)">
                <g id="Sprint-Backlog-Panel" transform="translate(134.000000, 47.000000)">
                    <g id="Rectangle">
                        <use fill="black" fill-opacity="1" filter="url(#filter-2)" xlink:href="#path-1"></use>
                        <use fill="#F4F4F4" fill-rule="evenodd" xlink:href="#path-1"></use>
                    </g>
                    <path d="M1,52 L245,52 C245.552285,52 246,52.4477153 246,53 L246,53 L246,53 L0,53 C-6.76353751e-17,52.4477153 0.44771525,52 1,52 Z" id="Rectangle" fill="#C1C1C1" transform="translate(123.000000, 52.500000) scale(1, -1) translate(-123.000000, -52.500000) "></path>
                    <text id="Sprint-Backlog" font-family="Noteworthy-Light, Noteworthy" font-size="14" font-weight="300" fill="#000000">
                        <tspan x="89.42375" y="35">Sprint Backlog</tspan>
                    </text>
                    <g id="menu" transform="translate(226.000000, 17.000000)" fill="#137FFF" fill-rule="nonzero">
                        <circle id="Oval" cx="2.5" cy="2.5" r="2.5"></circle>
                        <circle id="Oval-Copy" cx="2.5" cy="10.5" r="2.5"></circle>
                        <circle id="Oval-Copy-2" cx="2.5" cy="18.5" r="2.5"></circle>
                    </g>
                    <g id="requirement-1-copy" transform="translate(26.000000, 134.000000)">
                        <mask id="mask-4" fill="white">
                            <use xlink:href="#path-3"></use>
                        </mask>
                        <g id="Rectangle" stroke-linecap="square">
                            <use fill="black" fill-opacity="1" filter="url(#filter-5)" xlink:href="#path-3"></use>
                            <use stroke="#0075FF" stroke-width="1" fill="#FFFFFF" fill-rule="evenodd" xlink:href="#path-3"></use>
                        </g>
                        <text id="Create-Login-API-(Ba" mask="url(#mask-4)" font-family="Noteworthy-Light, Noteworthy" font-size="11" font-weight="300" fill="#000000">
                            <tspan x="8" y="20">Create Login API (Back End)</tspan>
                        </text>
                        <text id="Create-API-to-login/" mask="url(#mask-4)" font-family="Noteworthy-Light, Noteworthy" font-size="9" font-weight="300" fill="#787878">
                            <tspan x="8" y="37">Create API to login/logout</tspan>
                        </text>
                        <g id="Menu" mask="url(#mask-4)" fill="#B1B1B1" fill-rule="nonzero">
                            <g transform="translate(178.000000, 15.000000)">
                                <rect id="Rectangle" x="0" y="0" width="10" height="1"></rect>
                                <rect id="Rectangle-Copy-2" x="0" y="3" width="10" height="1"></rect>
                                <rect id="Rectangle-Copy-3" x="0" y="6" width="10" height="1"></rect>
                            </g>
                        </g>
                    </g>
                    <g id="requirement-1-copy-2" transform="translate(26.000000, 187.000000)">
                        <mask id="mask-7" fill="white">
                            <use xlink:href="#path-6"></use>
                        </mask>
                        <g id="Rectangle" stroke-linecap="square">
                            <use fill="black" fill-opacity="1" filter="url(#filter-8)" xlink:href="#path-6"></use>
                            <use stroke="#0075FF" stroke-width="1" fill="#FFFFFF" fill-rule="evenodd" xlink:href="#path-6"></use>
                        </g>
                        <text id="Create-Login-UI-(Fro" mask="url(#mask-7)" font-family="Noteworthy-Light, Noteworthy" font-size="11" font-weight="300" fill="#000000">
                            <tspan x="8" y="20">Create Login UI (Front End)</tspan>
                        </text>
                        <text id="Login-user-interface" mask="url(#mask-7)" font-family="Noteworthy-Light, Noteworthy" font-size="9" font-weight="300" fill="#787878">
                            <tspan x="8" y="37">Login user interface</tspan>
                        </text>
                        <g id="Menu" mask="url(#mask-7)" fill="#B1B1B1" fill-rule="nonzero">
                            <g transform="translate(178.000000, 15.000000)">
                                <rect id="Rectangle" x="0" y="0" width="10" height="1"></rect>
                                <rect id="Rectangle-Copy-2" x="0" y="3" width="10" height="1"></rect>
                                <rect id="Rectangle-Copy-3" x="0" y="6" width="10" height="1"></rect>
                            </g>
                        </g>
                    </g>
                    <g id="requirement-1" transform="translate(15.000000, 81.000000)">
                        <mask id="mask-10" fill="white">
                            <use xlink:href="#path-9"></use>
                        </mask>
                        <g id="Rectangle" stroke-linecap="square">
                            <use fill="black" fill-opacity="1" filter="url(#filter-11)" xlink:href="#path-9"></use>
                            <use stroke="#0075FF" stroke-width="1" fill="#FFFFFF" fill-rule="evenodd" xlink:href="#path-9"></use>
                        </g>
                        <text id="Login-Feature" mask="url(#mask-10)" font-family="Noteworthy-Light, Noteworthy" font-size="11" font-weight="300" fill="#000000">
                            <tspan x="19" y="20">Login Feature</tspan>
                        </text>
                        <g id="Group" mask="url(#mask-10)">
                            <g transform="translate(185.000000, 29.000000)">
                                <rect id="Rectangle" fill="#137FFF" fill-rule="nonzero" x="0" y="0" width="19" height="11" rx="4"></rect>
                                <text id="5" fill="none" font-family="Noteworthy-Bold, Noteworthy" font-size="6" font-weight="bold">
                                    <tspan x="7.19" y="8" fill="#FFFFFF">5</tspan>
                                </text>
                            </g>
                        </g>
                        <text id="Create-login/logout" mask="url(#mask-10)" font-family="Noteworthy-Light, Noteworthy" font-size="9" font-weight="300" fill="#787878">
                            <tspan x="19" y="37">Create login/logout and  forgot password </tspan>
                        </text>
                        <g id="Menu" mask="url(#mask-10)" fill="#B1B1B1" fill-rule="nonzero">
                            <g transform="translate(189.000000, 15.000000)">
                                <rect id="Rectangle" x="0" y="0" width="10" height="1"></rect>
                                <rect id="Rectangle-Copy-2" x="0" y="3" width="10" height="1"></rect>
                                <rect id="Rectangle-Copy-3" x="0" y="6" width="10" height="1"></rect>
                            </g>
                        </g>
                    </g>
                </g>
                <g id="Desc---Stimation" transform="translate(320.000000, 0.000000)" fill="#000000">
                    <path d="M77.4508733,89.5589315 C77.489337,89.7895158 77.545874,90.1571913 77.6177038,90.5214758 C77.6292892,90.5791219 77.7038995,90.6387057 77.7627536,90.6663177 C77.8160467,90.6915075 77.9388525,90.6895699 77.9430233,90.6740684 C78.1719518,89.8006575 78.5426863,88.9524366 78.4300757,88.0165354 C78.4171,87.908994 78.2511963,87.8038746 78.136732,87.7312115 C77.9796333,87.630452 77.8711935,87.7055372 77.7724854,87.8668494 C77.4791418,88.3454572 77.5810937,88.8986658 77.4508733,89.5589315 M79.5798623,89.8262554 C79.5056222,90.0618436 79.4598501,90.1311343 79.4676648,90.1959546 C79.4827361,90.3269363 79.4765959,90.5039627 79.5748385,90.5701241 C79.6563352,90.6246626 79.9365498,90.5942641 80.0241866,90.5209501 C80.5014445,90.1244287 80.9535835,89.7086848 81.3967914,89.2871294 C81.5352241,89.1552536 81.4526111,89.0345537 81.2862686,88.9245827 C80.517074,88.4158552 79.9594358,88.5021332 79.7484376,89.1784995 C79.6647081,89.4485095 79.6060975,89.723437 79.5798623,89.8262554 M86.5335532,91.0489011 C86.4989625,90.9929317 86.4835297,90.9100296 86.4271201,90.8843594 C86.0748267,90.721501 85.7235975,90.5535927 85.3489531,90.4302917 C85.2457131,90.396205 84.9902737,90.4765822 84.9327998,90.5594843 C84.5719917,91.0855127 84.5209039,91.6670897 84.5358045,92.2524541 C84.537401,92.302532 84.6140328,92.3702845 84.6768283,92.3951131 C84.7449455,92.4212041 84.86894,92.435512 84.9168349,92.4052128 C85.4287779,92.079496 85.9412532,91.7520959 86.4271201,91.402813 C86.5207812,91.3354814 86.5010911,91.1696772 86.5335532,91.0489011 M82.1209431,92.7636333 C82.1209431,92.4477818 82.1737062,92.201706 81.8703186,92.1347213 C81.7401314,92.1063459 81.5227706,92.215196 81.3994656,92.3086955 C80.0947268,93.297185 79.0784644,94.5512875 77.3544886,95.1536846 C77.121643,95.2346245 77.0528216,95.7700369 77.2070962,95.9616876 C77.3992225,96.1998554 77.66992,96.1421741 77.9228386,96.0510005 C78.8295603,95.7258456 79.7282529,95.3858052 80.6366952,95.0639065 C81.2612493,94.8434152 81.6586928,94.4977928 81.7774097,93.93447 C81.868598,93.5037212 82.0251667,93.0818106 82.1209431,92.7636333 M11.6109748,90.99787 C10.2586837,91.032724 7.94810241,91.1019674 5.63752111,91.1502983 C1.1916555,91.2432424 -3.2553231,91.2901792 -7.69951922,91.4193715 C-13.8315749,91.5978242 -19.9608482,91.842732 -26.0917909,92.0434912 C-30.2688678,92.1805838 -34.4470577,92.2958345 -38.6246911,92.403185 C-38.9624856,92.4115499 -39.3375655,92.3292944 -39.6341791,92.1959196 C-39.8222756,92.1113405 -39.9881121,91.8562089 -39.9992421,91.6703206 C-40.0109285,91.4788558 -39.8862729,91.202347 -39.7081934,91.1005732 C-39.4310572,90.9421035 -39.0626553,90.834753 -38.7254173,90.8184878 C-35.3513675,90.6637359 -31.9773178,90.5034073 -28.6010421,90.4002393 C-20.0693654,90.1395311 -11.5371321,89.8788228 -3.00267284,89.6757399 C2.77489341,89.5381827 8.55579865,89.4865987 14.3355909,89.4210731 C18.3379273,89.3750657 22.3408202,89.3476472 26.3437131,89.3522944 C34.6155051,89.3620536 42.8911926,89.2923455 51.1596456,89.4563918 C57.9127535,89.5902314 64.6719829,89.782161 71.4056134,90.3124071 C72.3783726,90.3886213 73.3455668,90.5168842 74.317213,90.6042516 C74.9377087,90.6604828 75.2988761,90.3872271 75.3194666,89.82538 C75.358978,88.7114448 75.3634299,87.5975096 75.3957069,86.4835744 C75.4040543,86.1894062 75.4441222,85.893844 75.5036675,85.6038583 C75.5665519,85.2962133 76.1380757,84.949067 76.5137121,85.0062277 C76.9444419,85.0717533 77.3885276,85.1419261 77.7858674,85.2869189 C79.6584845,85.971917 81.5288756,86.6620271 83.3781197,87.3893147 C85.7888707,88.3382742 88.1818138,89.3202287 90.5764263,90.2989302 C90.9720967,90.460653 91.3510721,90.6609476 91.7089006,90.8765779 C92.084537,91.1038263 92.0984494,91.8492381 91.7400645,92.0881044 C91.4651543,92.2712043 91.1768881,92.454769 90.86191,92.5797788 C87.4923123,93.9218918 84.1149236,95.2500632 80.7430998,96.5870643 C79.9406292,96.9049331 79.1604184,97.262768 78.3496003,97.5629774 C77.8665597,97.7423596 77.3495727,97.8655105 76.8364812,97.9775082 C76.3250592,98.0881117 75.675069,97.7767489 75.5971593,97.3515296 C75.4758426,96.6953441 75.3996023,96.0298643 75.3656559,95.3662433 C75.3239186,94.5520529 75.3684384,93.7346094 75.3283705,92.9199542 C75.3127886,92.6113798 75.0718248,92.3590365 74.671146,92.3148881 C73.0856821,92.1406178 71.5024441,91.91244 69.9091893,91.8306492 C65.8267171,91.621525 61.7370105,91.5155687 57.6545383,91.3045855 C48.2358031,90.8170937 38.8059379,90.9500037 29.3794118,90.9058553 C23.7760295,90.8793662 18.1726473,90.9597629 11.6109748,90.99787" id="Fill-61" transform="translate(26.000000, 91.500000) rotate(-88.000000) translate(-26.000000, -91.500000) "></path>
                    <text id="Stimation" font-family="Noteworthy-Light, Noteworthy" font-size="12" font-weight="300">
                        <tspan x="8.4075" y="15">Stimation</tspan>
                    </text>
                </g>
                <g id="Desc---Subtask-" transform="translate(0.000000, 156.000000)" fill="#000000">
                    <path d="M161.765361,28.0825873 C161.803825,28.3131717 161.860362,28.6808471 161.932192,29.0451316 C161.943777,29.1027777 162.018387,29.1623615 162.077241,29.1899735 C162.130535,29.2151634 162.25334,29.2132257 162.257511,29.1977242 C162.48644,28.3243134 162.857174,27.4760924 162.744564,26.5401912 C162.731588,26.4326498 162.565684,26.3275305 162.45122,26.2548673 C162.294121,26.1541078 162.185681,26.229193 162.086973,26.3905052 C161.79363,26.869113 161.895582,27.4223217 161.765361,28.0825873 M162.894245,28.2537861 C162.857125,28.4893743 162.834239,28.558665 162.838146,28.6234852 C162.845682,28.7544669 162.842612,28.9314934 162.891733,28.9976548 C162.932482,29.0521933 163.072589,29.0217948 163.116407,28.9484808 C163.355036,28.5519594 163.581106,28.1362154 163.80271,27.71466 C163.871926,27.5827842 163.830619,27.4620844 163.747448,27.3521134 C163.362851,26.8433859 163.084032,26.9296639 162.978533,27.6060301 C162.936668,27.8760402 162.907363,28.1509677 162.894245,28.2537861 M167.445127,29.6487873 C167.427832,29.5928179 167.420115,29.5099158 167.391911,29.4842457 C167.215764,29.3213873 167.040149,29.153479 166.852827,29.0301779 C166.801207,28.9960913 166.673487,29.0764684 166.64475,29.1593705 C166.464346,29.6853989 166.438802,30.2669759 166.446253,30.8523404 C166.447051,30.9024183 166.485367,30.9701707 166.516765,30.9949993 C166.550823,31.0210903 166.612821,31.0353983 166.636768,31.005099 C166.89274,30.6793822 167.148977,30.3519821 167.391911,30.0026993 C167.438741,29.9353676 167.428896,29.7695635 167.445127,29.6487873 M164.301673,31.6304156 C164.301673,31.3145641 164.333331,31.0684884 164.151299,31.0015037 C164.073186,30.9731282 163.94277,31.0819784 163.868787,31.1754778 C163.085944,32.1639674 162.476186,33.4180698 161.441801,34.020467 C161.302093,34.1014068 161.2608,34.6368192 161.353365,34.8284699 C161.468641,35.0666377 161.631059,35.0089565 161.782811,34.9177828 C162.326844,34.5926279 162.866059,34.2525875 163.411125,33.9306888 C163.785857,33.7101975 164.024323,33.3645751 164.095553,32.8012524 C164.150266,32.3705035 164.244207,31.9485929 164.301673,31.6304156 M124.933425,29.99787 C124.175323,30.032724 122.879997,30.1019674 121.584671,30.1502983 C119.092292,30.2432424 116.599289,30.2901792 114.107845,30.4193715 C110.670178,30.5978242 107.23407,30.842732 103.797026,31.0434912 C101.455332,31.1805838 99.1130131,31.2958345 96.7710065,31.403185 C96.5816369,31.4115499 96.3713648,31.3292944 96.2050814,31.1959196 C96.0996334,31.1113405 96.0066644,30.8562089 96.0004249,30.6703206 C95.9938734,30.4788558 96.0637561,30.202347 96.1635885,30.1005732 C96.3189528,29.9421035 96.5254811,29.834753 96.7145388,29.8184878 C98.6060515,29.6637359 100.497564,29.5034073 102.390325,29.4002393 C107.173235,29.1395311 111.956456,28.8788228 116.740926,28.6757399 C119.979864,28.5381827 123.220675,28.4865987 126.460862,28.4210731 C128.704596,28.3750657 130.948642,28.3476472 133.192688,28.3522944 C137.829904,28.3620536 142.469305,28.2923455 147.10465,28.4563918 C150.890483,28.5902314 154.679748,28.782161 158.454662,29.3124071 C158.999997,29.3886213 159.542212,29.5168842 160.086922,29.6042516 C160.434776,29.6604828 160.637249,29.3872271 160.648792,28.82538 C160.670942,27.7114448 160.673438,26.5975096 160.691533,25.4835744 C160.696212,25.1894062 160.718675,24.893844 160.752056,24.6038583 C160.787309,24.2962133 161.107709,23.949067 161.318293,24.0062277 C161.559763,24.0717533 161.80872,24.1419261 162.031471,24.2869189 C163.081272,24.971917 164.129824,25.6620271 165.166522,26.3893147 C166.518003,27.3382742 167.859502,28.3202287 169.201936,29.2989302 C169.423751,29.460653 169.636207,29.6609476 169.836808,29.8765779 C170.047392,30.1038263 170.055191,30.8492381 169.854279,31.0881044 C169.700162,31.2712043 169.538558,31.454769 169.36198,31.5797788 C167.472963,32.9218918 165.579578,34.2500632 163.689314,35.5870643 C163.239444,35.9049331 162.802053,36.262768 162.347503,36.5629774 C162.076708,36.7423596 161.786882,36.8655105 161.499239,36.9775082 C161.212533,37.0881117 160.848145,36.7767489 160.804468,36.3515296 C160.736457,35.6953441 160.693716,35.0298643 160.674686,34.3662433 C160.651288,33.5520529 160.676246,32.7346094 160.653783,31.9199542 C160.645048,31.6113798 160.509962,31.3590365 160.285339,31.3148881 C159.396519,31.1406178 158.508946,30.91244 157.615758,30.8306492 C155.327099,30.621525 153.034385,30.5155687 150.745726,30.3045855 C145.465526,29.8170937 140.179086,29.9500037 134.894519,29.9058553 C131.753229,29.8793662 128.611939,29.9597629 124.933425,29.99787" id="Fill-61-Copy" transform="translate(133.000000, 30.500000) rotate(-223.000000) translate(-133.000000, -30.500000) "></path>
                    <text id="Product-Backlog-Item" font-family="Noteworthy-Light, Noteworthy" font-size="12" font-weight="300">
                        <tspan x="1.64" y="66">Product Backlog Item</tspan>
                    </text>
                </g>
                <g id="Desc---PB-Item" transform="translate(7.000000, 206.000000)" fill="#000000">
                    <path d="M155.765361,28.0825873 C155.803825,28.3131717 155.860362,28.6808471 155.932192,29.0451316 C155.943777,29.1027777 156.018387,29.1623615 156.077241,29.1899735 C156.130535,29.2151634 156.25334,29.2132257 156.257511,29.1977242 C156.48644,28.3243134 156.857174,27.4760924 156.744564,26.5401912 C156.731588,26.4326498 156.565684,26.3275305 156.45122,26.2548673 C156.294121,26.1541078 156.185681,26.229193 156.086973,26.3905052 C155.79363,26.869113 155.895582,27.4223217 155.765361,28.0825873 M156.894245,28.2537861 C156.857125,28.4893743 156.834239,28.558665 156.838146,28.6234852 C156.845682,28.7544669 156.842612,28.9314934 156.891733,28.9976548 C156.932482,29.0521933 157.072589,29.0217948 157.116407,28.9484808 C157.355036,28.5519594 157.581106,28.1362154 157.80271,27.71466 C157.871926,27.5827842 157.830619,27.4620844 157.747448,27.3521134 C157.362851,26.8433859 157.084032,26.9296639 156.978533,27.6060301 C156.936668,27.8760402 156.907363,28.1509677 156.894245,28.2537861 M161.445127,29.6487873 C161.427832,29.5928179 161.420115,29.5099158 161.391911,29.4842457 C161.215764,29.3213873 161.040149,29.153479 160.852827,29.0301779 C160.801207,28.9960913 160.673487,29.0764684 160.64475,29.1593705 C160.464346,29.6853989 160.438802,30.2669759 160.446253,30.8523404 C160.447051,30.9024183 160.485367,30.9701707 160.516765,30.9949993 C160.550823,31.0210903 160.612821,31.0353983 160.636768,31.005099 C160.89274,30.6793822 161.148977,30.3519821 161.391911,30.0026993 C161.438741,29.9353676 161.428896,29.7695635 161.445127,29.6487873 M158.301673,31.6304156 C158.301673,31.3145641 158.333331,31.0684884 158.151299,31.0015037 C158.073186,30.9731282 157.94277,31.0819784 157.868787,31.1754778 C157.085944,32.1639674 156.476186,33.4180698 155.441801,34.020467 C155.302093,34.1014068 155.2608,34.6368192 155.353365,34.8284699 C155.468641,35.0666377 155.631059,35.0089565 155.782811,34.9177828 C156.326844,34.5926279 156.866059,34.2525875 157.411125,33.9306888 C157.785857,33.7101975 158.024323,33.3645751 158.095553,32.8012524 C158.150266,32.3705035 158.244207,31.9485929 158.301673,31.6304156 M118.933425,29.99787 C118.175323,30.032724 116.879997,30.1019674 115.584671,30.1502983 C113.092292,30.2432424 110.599289,30.2901792 108.107845,30.4193715 C104.670178,30.5978242 101.23407,30.842732 97.7970263,31.0434912 C95.4553317,31.1805838 93.1130131,31.2958345 90.7710065,31.403185 C90.5816369,31.4115499 90.3713648,31.3292944 90.2050814,31.1959196 C90.0996334,31.1113405 90.0066644,30.8562089 90.0004249,30.6703206 C89.9938734,30.4788558 90.0637561,30.202347 90.1635885,30.1005732 C90.3189528,29.9421035 90.5254811,29.834753 90.7145388,29.8184878 C92.6060515,29.6637359 94.4975642,29.5034073 96.3903249,29.4002393 C101.173235,29.1395311 105.956456,28.8788228 110.740926,28.6757399 C113.979864,28.5381827 117.220675,28.4865987 120.460862,28.4210731 C122.704596,28.3750657 124.948642,28.3476472 127.192688,28.3522944 C131.829904,28.3620536 136.469305,28.2923455 141.10465,28.4563918 C144.890483,28.5902314 148.679748,28.782161 152.454662,29.3124071 C152.999997,29.3886213 153.542212,29.5168842 154.086922,29.6042516 C154.434776,29.6604828 154.637249,29.3872271 154.648792,28.82538 C154.670942,27.7114448 154.673438,26.5975096 154.691533,25.4835744 C154.696212,25.1894062 154.718675,24.893844 154.752056,24.6038583 C154.787309,24.2962133 155.107709,23.949067 155.318293,24.0062277 C155.559763,24.0717533 155.80872,24.1419261 156.031471,24.2869189 C157.081272,24.971917 158.129824,25.6620271 159.166522,26.3893147 C160.518003,27.3382742 161.859502,28.3202287 163.201936,29.2989302 C163.423751,29.460653 163.636207,29.6609476 163.836808,29.8765779 C164.047392,30.1038263 164.055191,30.8492381 163.854279,31.0881044 C163.700162,31.2712043 163.538558,31.454769 163.36198,31.5797788 C161.472963,32.9218918 159.579578,34.2500632 157.689314,35.5870643 C157.239444,35.9049331 156.802053,36.262768 156.347503,36.5629774 C156.076708,36.7423596 155.786882,36.8655105 155.499239,36.9775082 C155.212533,37.0881117 154.848145,36.7767489 154.804468,36.3515296 C154.736457,35.6953441 154.693716,35.0298643 154.674686,34.3662433 C154.651288,33.5520529 154.676246,32.7346094 154.653783,31.9199542 C154.645048,31.6113798 154.509962,31.3590365 154.285339,31.3148881 C153.396519,31.1406178 152.508946,30.91244 151.615758,30.8306492 C149.327099,30.621525 147.034385,30.5155687 144.745726,30.3045855 C139.465526,29.8170937 134.179086,29.9500037 128.894519,29.9058553 C125.753229,29.8793662 122.611939,29.9597629 118.933425,29.99787" id="Fill-61-Copy-2" transform="translate(127.000000, 30.500000) rotate(-223.000000) translate(-127.000000, -30.500000) "></path>
                    <text id="Subtask-to-complete" font-family="Noteworthy-Light, Noteworthy" font-size="12" font-weight="300">
                        <tspan x="0.88" y="67">Subtask to complete </tspan>
                        <tspan x="0.2275" y="86">product backlog item</tspan>
                    </text>
                </g>
            </g>
        </g>
    </g>
</svg>