<?xml version="1.0" encoding="UTF-8"?>
<svg width="84px" height="83px" viewBox="0 0 84 83" version="1.1" xmlns="http://www.w3.org/2000/svg" xmlns:xlink="http://www.w3.org/1999/xlink">
    <!-- Generator: Sketch 57.1 (83088) - https://sketch.com -->
    <title>UI / Icons / sprint_backlog</title>
    <desc>Created with Sketch.</desc>
    <g id="Page-1" stroke="none" stroke-width="1" fill="none" fill-rule="evenodd">
        <g id="Main-Page---Artifact" transform="translate(-663.000000, -777.000000)">
            <g id="Sprint-Backlog" transform="translate(664.000000, 777.000000)">
                <g id="UI-/-Icons-/-sprint_backlog">
                    <g id="Group-8">
                        <g id="UI-/-Icons-/-Agile">
                            <g id="Agile-Icon">
                                <g id="Group-7" fill-rule="nonzero">
                                    <ellipse id="Oval" stroke="#FFFFFF" stroke-width="6" cx="43.1605736" cy="39.3383516" rx="36.1142698" ry="36.3383516"></ellipse>
                                    <polygon id="Rectangle" fill="#005CFF" points="43.1605736 63.7552595 82.2748434 63.7552595 82.2748434 78.6767032 43.1605736 78.6767032"></polygon>
                                    <path d="M71.9847,81.4985685 C71.9847,81.6917312 72.049404,81.879148 72.1681964,82.0304491 C72.4587231,82.4004811 72.9909764,82.4634033 73.3583794,82.1716262 L81.9128563,75.3779956 C81.964935,75.3366367 82.0120449,75.2892569 82.0532164,75.2368186 C82.3450817,74.8650814 82.2819604,74.3250084 81.9128563,74.0318803 L73.3583794,67.2382498 C73.2086971,67.1193779 73.0238062,67.0548126 72.833468,67.0548126 C72.3653478,67.0548126 71.9847,67.437641 71.9847,67.9113074 L71.9847,81.4985685 Z" id="Path-2" stroke="#FFFFFF" fill="#FFFFFF"></path>
                                    <path d="M1.98242778,32.8616454 L15.4922922,32.8616454 C16.5139799,32.8616454 17.3410601,33.6934638 17.3410601,34.7181402 C17.3410601,35.135112 17.20127,35.5400178 16.9441018,35.8675626 L10.1891696,44.4710472 C9.55642755,45.2769452 8.39237425,45.4145577 7.59054565,44.7777769 C7.477292,44.6878353 7.37493156,44.5848884 7.28555038,44.4710472 L0.530618177,35.8675626 C-0.100785136,35.0633697 0.0354859704,33.8974181 0.835613443,33.2619882 C1.16204939,33.0027456 1.56610712,32.8616454 1.98242778,32.8616454 Z" id="Path-2-Copy-2" stroke="#005CFF" fill="#FFFFFF"></path>
                                    <polygon id="Rectangle" fill="#FFFFFF" points="41.8118057 70.5377339 71.4847 70.5377339 71.4847 78.6767032 41.8118057 78.6767032"></polygon>
                                </g>
                                <rect id="Rectangle" fill-rule="nonzero" x="1.50442478" y="3.02608696" width="83.4955752" height="83.973913"></rect>
                            </g>
                        </g>
                        <g id="Group" transform="translate(18.053097, 5.295652)" fill-rule="nonzero">
                            <rect id="Rectangle" stroke="#FFFFFF" stroke-width="2" fill="#005CFF" x="1" y="1" width="49.1504425" height="68.7347826" rx="4"></rect>
                            <g id="Group-4" transform="translate(6.912222, 13.846788)" fill="#FFFFFF">
                                <g id="Group-4-Copy-4" transform="translate(0.000000, 37.577167)">
                                    <rect id="Rectangle" x="7.37981344" y="3.0456101" width="24.8230088" height="3.02608696" rx="1.51304348"></rect>
                                    <path d="M4.01293822,0.624262125 C4.49854859,0.624262125 4.89221357,1.01792711 4.89221357,1.50353748 L4.89221357,4.96956287 C4.89221357,5.45517324 4.49854859,5.84883822 4.01293822,5.84883822 C3.91086018,5.84883822 3.81284488,5.83144358 3.72169476,5.79945674 C3.63323354,5.83164567 3.5362582,5.84883822 3.43526732,5.84883822 L2.24587484,5.84883822 C1.76496589,5.84883822 1.37511216,5.45898449 1.37511216,4.97807554 C1.37511216,4.49716659 1.76496589,4.10731286 2.24587484,4.10731286 L3.13311216,4.10726213 L3.13366286,1.50353748 C3.13366286,1.01792711 3.52732785,0.624262125 4.01293822,0.624262125 Z" id="Combined-Shape" transform="translate(3.133663, 3.236550) rotate(41.000000) translate(-3.133663, -3.236550) "></path>
                                </g>
                                <g id="Group-4-Copy-9" transform="translate(0.921630, 30.119327)">
                                    <rect id="Rectangle" x="6.45818385" y="0.668667602" width="31.3354062" height="3.02608696" rx="1.51304348"></rect>
                                    <rect id="Rectangle" x="0" y="0.756521739" width="3.00884956" height="3.02608696" rx="1.50442478"></rect>
                                </g>
                                <g id="Group-4-Copy" transform="translate(0.000000, 17.497616)">
                                    <rect id="Rectangle" x="7.37981344" y="2.69907433" width="25.8056286" height="3.02608696" rx="1.51304348"></rect>
                                    <path d="M4.01293822,0.624262125 C4.49854859,0.624262125 4.89221357,1.01792711 4.89221357,1.50353748 L4.89221357,4.96956287 C4.89221357,5.45517324 4.49854859,5.84883822 4.01293822,5.84883822 C3.91086018,5.84883822 3.81284488,5.83144358 3.72169476,5.79945674 C3.63323354,5.83164567 3.5362582,5.84883822 3.43526732,5.84883822 L2.24587484,5.84883822 C1.76496589,5.84883822 1.37511216,5.45898449 1.37511216,4.97807554 C1.37511216,4.49716659 1.76496589,4.10731286 2.24587484,4.10731286 L3.13311216,4.10726213 L3.13366286,1.50353748 C3.13366286,1.01792711 3.52732785,0.624262125 4.01293822,0.624262125 Z" id="Combined-Shape" transform="translate(3.133663, 3.236550) rotate(41.000000) translate(-3.133663, -3.236550) "></path>
                                </g>
                                <g id="Group-4-Copy-6" transform="translate(0.000000, 7.457840)">
                                    <rect id="Rectangle" x="7.37981344" y="2.90406732" width="20.2758511" height="3.02608696" rx="1.51304348"></rect>
                                    <path d="M4.01293822,0.624262125 C4.49854859,0.624262125 4.89221357,1.01792711 4.89221357,1.50353748 L4.89221357,4.96956287 C4.89221357,5.45517324 4.49854859,5.84883822 4.01293822,5.84883822 C3.91086018,5.84883822 3.81284488,5.83144358 3.72169476,5.79945674 C3.63323354,5.83164567 3.5362582,5.84883822 3.43526732,5.84883822 L2.24587484,5.84883822 C1.76496589,5.84883822 1.37511216,5.45898449 1.37511216,4.97807554 C1.37511216,4.49716659 1.76496589,4.10731286 2.24587484,4.10731286 L3.13311216,4.10726213 L3.13366286,1.50353748 C3.13366286,1.01792711 3.52732785,0.624262125 4.01293822,0.624262125 Z" id="Combined-Shape" transform="translate(3.133663, 3.236550) rotate(41.000000) translate(-3.133663, -3.236550) "></path>
                                </g>
                                <g id="Group-4-Copy-8" transform="translate(0.460815, 0.000000)">
                                    <rect id="Rectangle" x="6.91899864" y="0.527124825" width="31.3354062" height="3.02608696" rx="1.51304348"></rect>
                                    <rect id="Rectangle" x="-2.27373675e-13" y="0.756521739" width="3.00884956" height="3.02608696" rx="1.50442478"></rect>
                                </g>
                            </g>
                        </g>
                    </g>
                </g>
            </g>
        </g>
    </g>
</svg>