<?xml version="1.0" encoding="UTF-8"?>
<svg width="51px" height="61px" viewBox="0 0 51 61" version="1.1" xmlns="http://www.w3.org/2000/svg" xmlns:xlink="http://www.w3.org/1999/xlink">
    <!-- Generator: Sketch 57.1 (83088) - https://sketch.com -->
    <title>Group 5</title>
    <desc>Created with Sketch.</desc>
    <g id="Dynamic-Scrum" stroke="none" stroke-width="1" fill="none" fill-rule="evenodd">
        <g id="Sprint-Review" transform="translate(-401.000000, -219.000000)" fill-rule="nonzero">
            <g id="UI-/-Icons-/-sprint_retro" transform="translate(352.000000, 176.000000)">
                <g id="Group-5" transform="translate(50.000000, 44.000000)">
                    <rect id="Rectangle" x="4.96202532" y="18.3469388" width="42.7974684" height="43.6530612"></rect>
                    <g id="Icon" transform="translate(4.962025, 20.877551)" fill="#FFFFFF" stroke="#137FFF" stroke-width="2.03072211">
                        <path d="M31.2534144,1.01536105 C26.7197935,1.01536105 23.0335323,4.80036459 23.0335323,9.48262363 C23.0335323,11.9485978 24.0611962,14.2394971 25.8206741,15.836381 L26.6818485,16.617974 L25.7912208,17.3658317 C24.3930119,18.539904 23.1977862,20.1452234 22.3194571,22.0343607 L21.3988585,24.0144128 L20.4780725,22.0344478 C19.5995697,20.1454043 18.4042754,18.5403734 17.0060741,17.3667742 L16.1152577,16.6190553 L16.9763567,15.8372972 C18.7362667,14.2395437 19.7639361,11.9486114 19.7639361,9.48262363 C19.7639361,4.80036459 16.0776748,1.01536105 11.544054,1.01536105 C7.0104331,1.01536105 3.32417185,4.80036459 3.32417185,9.48262363 C3.32417185,11.9485978 4.35183579,14.2394971 6.11131368,15.836381 L6.97248807,16.617974 L6.08186035,17.3658317 C2.98657787,19.9649321 1.01536105,24.5365894 1.01536105,29.3961333 C1.01536105,34.6299886 15.4817166,36.3145187 20.7228514,31.9481423 L21.3809562,31.3998768 L22.0322464,31.9562203 C27.1630239,36.33902 41.7821073,34.5748765 41.7821073,29.3961333 C41.7821073,24.5364132 39.8107715,19.9648874 36.7154345,17.3667742 L35.8246181,16.6190553 L36.6857172,15.8372972 C38.4456272,14.2395437 39.4732965,11.9486114 39.4732965,9.48262363 C39.4732965,4.80036459 35.7870353,1.01536105 31.2534144,1.01536105 Z M21.398733,12.3800971 C20.964902,13.931177 20.1864666,15.357103 19.1226868,16.5518908 C19.972445,17.3937781 20.7375022,18.3709265 21.3986391,19.4550455 C22.0597165,18.3707694 22.8247476,17.3934161 23.6745011,16.55128 C22.6108976,15.3568583 21.8325384,13.9310894 21.398733,12.3800971 Z" id="Path"></path>
                        <path d="M20.5540473,4.4438174 C16.0204264,4.4438174 12.3341652,8.22882094 12.3341652,12.91108 C12.3341652,15.3770542 13.3618291,17.6679534 15.121307,19.2648374 L15.9824814,20.0464304 L15.0918537,20.7942881 C11.9965712,23.3933885 10.0253544,27.9650457 10.0253544,32.8245896 C10.0253544,35.7676827 14.5418018,37.8601364 20.5507036,37.8403482 C26.5403731,37.8206234 31.0827402,35.7061888 31.0827402,32.8245896 C31.0827402,27.9648696 29.1114044,23.3933437 26.0160674,20.7952305 L25.125251,20.0475116 L25.9863501,19.2657535 C27.7462601,17.6680001 28.7739294,15.3770678 28.7739294,12.91108 C28.7739294,8.22882094 25.0876682,4.4438174 20.5540473,4.4438174 Z" id="Path"></path>
                    </g>
                    <g id="Group-2">
                        <ellipse id="Oval" stroke="#137FFF" stroke-width="2" cx="8.37341772" cy="8.54081633" rx="8.37341772" ry="8.54081633"></ellipse>
                        <path d="M9.89585731,4.65862709 C10.3162674,4.65862709 10.6570771,4.9994368 10.6570771,5.41984688 L10.6570771,10.1089101 C10.6570771,10.5293202 10.3162674,10.8701299 9.89585731,10.8701299 C9.88608125,10.8701159 9.88336189,10.8701299 9.88063925,10.8701299 L7.37367605,10.8701299 C6.94486127,10.8701299 6.5972382,10.5225068 6.5972382,10.093692 C6.5972382,9.66487724 6.94486127,9.31725417 7.37367605,9.31725417 L9.1342382,9.31662709 L9.13463751,5.41984688 C9.13463751,4.9994368 9.47544722,4.65862709 9.89585731,4.65862709 Z" id="Combined-Shape" fill="#137FFF" transform="translate(8.627158, 7.764378) rotate(40.000000) translate(-8.627158, -7.764378) "></path>
                    </g>
                    <g id="Group-2-Copy" transform="translate(32.253165, 0.000000)">
                        <ellipse id="Oval" stroke="#137FFF" stroke-width="2" cx="8.37341772" cy="8.54081633" rx="8.37341772" ry="8.54081633"></ellipse>
                        <path d="M8.38128578,4.95639045 C8.80169587,4.95639045 9.14250558,5.29720016 9.14250558,5.71761024 L9.14166668,7.54439045 L10.903467,7.54451661 C11.3322818,7.54451661 11.6799049,7.89213967 11.6799049,8.32095446 C11.6799049,8.74976924 11.3322818,9.09739231 10.903467,9.09739231 L9.14166668,9.09739045 L9.14250558,10.9242987 C9.14250558,11.3447088 8.80169587,11.6855185 8.38128578,11.6855185 C7.9608757,11.6855185 7.62006599,11.3447088 7.62006599,10.9242987 L7.61966668,9.09739045 L5.85910453,9.09739231 C5.43028975,9.09739231 5.08266668,8.74976924 5.08266668,8.32095446 C5.08266668,7.89213967 5.43028975,7.54451661 5.85910453,7.54451661 L7.61966668,7.54439045 L7.62006599,5.71761024 C7.62006599,5.29720016 7.9608757,4.95639045 8.38128578,4.95639045 Z" id="Combined-Shape" fill="#137FFF" transform="translate(8.381286, 8.320954) rotate(-46.000000) translate(-8.381286, -8.320954) "></path>
                    </g>
                </g>
            </g>
        </g>
    </g>
</svg>