<?xml version="1.0" encoding="UTF-8"?>
<svg width="48px" height="60px" viewBox="0 0 48 60" version="1.1" xmlns="http://www.w3.org/2000/svg" xmlns:xlink="http://www.w3.org/1999/xlink">
    <!-- Generator: Sketch 57.1 (83088) - https://sketch.com -->
    <title>UI / Icons / sprint_review</title>
    <desc>Created with Sketch.</desc>
    <g id="Page-1" stroke="none" stroke-width="1" fill="none" fill-rule="evenodd">
        <g id="Main-Page---Values-Copy" transform="translate(-779.000000, -785.000000)">
            <g id="UI-/-Icons-/-sprint_review" transform="translate(779.000000, 785.000000)">
                <g id="Group">
                    <rect id="Rectangle" stroke="#FFFFFF" stroke-width="2" fill="#005CFF" fill-rule="nonzero" x="1" y="1" width="41.2" height="57.6808511" rx="2"></rect>
                    <g id="UI-/-Icons-/-Components-/-Magnifier" transform="translate(5.837838, 12.321208)" fill="#FFFFFF">
                        <g id="Task-Board" transform="translate(0.000000, 0.000000)">
                            <g id="Group-4-Copy-4" transform="translate(0.000000, 31.686652)" fill-rule="nonzero">
                                <rect id="Rectangle" x="6.53453453" y="2.17719689" width="24.984985" height="1.27586207" rx="0.637931034"></rect>
                                <path d="M2.87676677,0.52640415 C3.19520122,0.52640415 3.45334334,0.784546276 3.45334334,1.10298073 L3.45334334,3.41317574 C3.45334334,3.73161019 3.19520122,3.98975231 2.87676677,3.98975231 C2.80924332,3.98975231 2.74443088,3.9781451 2.68421587,3.95681709 C2.62430883,3.97811594 2.55938046,3.98975231 2.49173427,3.98975231 L1.72426173,3.98975231 C1.40546934,3.98975231 1.14703704,3.73132002 1.14703704,3.41252762 C1.14703704,3.09373523 1.40546934,2.83530293 1.72426173,2.83530293 L2.30003704,2.83440415 L2.30019019,1.10298073 C2.30019019,0.784546276 2.55833232,0.52640415 2.87676677,0.52640415 Z" id="Combined-Shape" transform="translate(2.300190, 2.258078) rotate(41.000000) translate(-2.300190, -2.258078) "></path>
                            </g>
                            <g id="Group-4-Copy-9" transform="translate(1.396220, 25.397887)" fill-rule="nonzero">
                                <rect id="Rectangle" x="4.36954602" y="0" width="26.1381381" height="1.27586207" rx="0.637931034"></rect>
                                <rect id="Rectangle" x="0" y="0" width="1.25490196" height="1.27586207" rx="0.62745098"></rect>
                            </g>
                            <g id="Group-4-Copy" transform="translate(0.000000, 14.754727)" fill-rule="nonzero">
                                <rect id="Rectangle" x="6.53453453" y="2.17719689" width="21.5255255" height="1.27586207" rx="0.637931034"></rect>
                                <path d="M2.87676677,0.52640415 C3.19520122,0.52640415 3.45334334,0.784546276 3.45334334,1.10298073 L3.45334334,3.41317574 C3.45334334,3.73161019 3.19520122,3.98975231 2.87676677,3.98975231 C2.80924332,3.98975231 2.74443088,3.9781451 2.68421587,3.95681709 C2.62430883,3.97811594 2.55938046,3.98975231 2.49173427,3.98975231 L1.72426173,3.98975231 C1.40546934,3.98975231 1.14703704,3.73132002 1.14703704,3.41252762 C1.14703704,3.09373523 1.40546934,2.83530293 1.72426173,2.83530293 L2.30003704,2.83440415 L2.30019019,1.10298073 C2.30019019,0.784546276 2.55833232,0.52640415 2.87676677,0.52640415 Z" id="Combined-Shape" transform="translate(2.300190, 2.258078) rotate(41.000000) translate(-2.300190, -2.258078) "></path>
                            </g>
                            <g id="Group-4-Copy-6" transform="translate(0.000000, 6.288765)" fill-rule="nonzero">
                                <rect id="Rectangle" x="6.53453453" y="2.17719689" width="16.9129129" height="1.27586207" rx="0.637931034"></rect>
                                <path d="M2.87676677,0.52640415 C3.19520122,0.52640415 3.45334334,0.784546276 3.45334334,1.10298073 L3.45334334,3.41317574 C3.45334334,3.73161019 3.19520122,3.98975231 2.87676677,3.98975231 C2.80924332,3.98975231 2.74443088,3.9781451 2.68421587,3.95681709 C2.62430883,3.97811594 2.55938046,3.98975231 2.49173427,3.98975231 L1.72426173,3.98975231 C1.40546934,3.98975231 1.14703704,3.73132002 1.14703704,3.41252762 C1.14703704,3.09373523 1.40546934,2.83530293 1.72426173,2.83530293 L2.30003704,2.83440415 L2.30019019,1.10298073 C2.30019019,0.784546276 2.55833232,0.52640415 2.87676677,0.52640415 Z" id="Combined-Shape" transform="translate(2.300190, 2.258078) rotate(41.000000) translate(-2.300190, -2.258078) "></path>
                            </g>
                            <g id="Group-4-Copy-8" transform="translate(1.011835, 0.000000)" fill-rule="nonzero">
                                <rect id="Rectangle" x="4.7539304" y="0" width="26.1381381" height="1.27586207" rx="0.637931034"></rect>
                                <rect id="Rectangle" x="0.243066596" y="-3.55271368e-14" width="1.25490196" height="1.27586207" rx="0.62745098"></rect>
                            </g>
                        </g>
                    </g>
                    <g id="UI-/-Icons-/-Component-/-Magnifier" transform="translate(18.447399, 20.927942)">
                        <g id="Magnifier" transform="translate(17.500000, 16.500000) rotate(38.000000) translate(-17.500000, -16.500000) translate(2.545455, 7.764706)">
                            <rect id="Rectangle" stroke="#005CFF" fill="#FFFFFF" fill-rule="nonzero" x="17.0454545" y="8.91176471" width="12.3636364" height="2.88235294" rx="1.44117647"></rect>
                            <ellipse id="Oval" stroke="#FFFFFF" stroke-width="2" fill="#005CFF" fill-rule="nonzero" cx="8.59090909" cy="8.73529412" rx="8.59090909" ry="8.73529412"></ellipse>
                        </g>
                    </g>
                </g>
            </g>
        </g>
    </g>
</svg>