<?xml version="1.0" encoding="UTF-8"?>
<svg width="75px" height="74px" viewBox="0 0 75 74" version="1.1" xmlns="http://www.w3.org/2000/svg" xmlns:xlink="http://www.w3.org/1999/xlink">
    <!-- Generator: Sketch 57.1 (83088) - https://sketch.com -->
    <title>Group</title>
    <desc>Created with Sketch.</desc>
    <g id="Dynamic-Scrum" stroke="none" stroke-width="1" fill="none" fill-rule="evenodd">
        <g id="Development-Team" transform="translate(-410.000000, -206.000000)" fill-rule="nonzero">
            <g id="Group-8" transform="translate(410.000000, 205.000000)">
                <g id="Group" transform="translate(0.141593, 0.686957)">
                    <g id="Agile-Icon" transform="translate(0.858407, 0.313043)">
                        <g id="Group-7">
                            <ellipse id="Oval" stroke="#137FFF" stroke-width="6" cx="38.5906305" cy="34.816702" rx="31.9727589" ry="31.816702"></ellipse>
                            <polygon id="Rectangle" fill="#FFFFFF" points="38.5906305 56.4270687 73.5633894 56.4270687 73.5633894 69.633404 38.5906305 69.633404"></polygon>
                            <path d="M64.4157318,72.130917 C64.4157318,72.2880461 64.4689644,72.4406735 64.5669641,72.5642269 C64.8085723,72.8688353 65.2536612,72.9209198 65.560041,72.6800705 L73.2087497,66.6673171 C73.2519737,66.6333381 73.2910292,66.5944569 73.3251226,66.5514735 C73.5656742,66.2481972 73.5137949,65.8088101 73.2087497,65.5690099 L65.560041,59.5562565 C65.4353381,59.4582259 65.2808791,59.4048341 65.121689,59.4048341 C64.7313003,59.4048341 64.4157318,59.7189944 64.4157318,60.10541 L64.4157318,72.130917 Z" id="Path-2" stroke="#FFFFFF" fill="#137FFF"></path>
                            <path d="M1.77252366,29.0269735 L13.8519318,29.0269735 C14.7936067,29.0269735 15.557889,29.7878454 15.557889,30.7275494 C15.557889,31.1104243 15.4282799,31.4820365 15.1901266,31.7822892 L9.15042247,39.3968675 C8.56651986,40.1330248 7.49491103,40.258425 6.75586019,39.6774471 C6.65125759,39.5952176 6.55666898,39.5010511 6.47403303,39.3968675 L0.43432894,31.7822892 C-0.15063028,31.0447998 -0.0242292864,29.974257 0.716156097,29.39223 C1.01715897,29.1556076 1.38928933,29.0269735 1.77252366,29.0269735 Z" id="Path-2-Copy-2" stroke="#FFFFFF" fill="#137FFF"></path>
                            <polygon id="Rectangle" fill="#137FFF" points="37.3846733 63.633404 63.9157318 63.633404 63.9157318 69.633404 37.3846733 69.633404"></polygon>
                        </g>
                        <rect id="Rectangle" x="1.34513274" y="2.67826087" width="74.6548673" height="74.3217391"></rect>
                    </g>
                    <rect id="Rectangle" stroke="#137FFF" stroke-width="2" fill="#FFFFFF" x="18" y="6" width="43.7345133" height="60.6043478" rx="4"></rect>
                    <g id="Group-4" transform="translate(23.180340, 17.255203)" fill="#137FFF">
                        <g id="Group-4-Copy-4" transform="translate(0.000000, 33.257952)">
                            <rect id="Rectangle" x="6.59842143" y="2.69553997" width="22.1946903" height="1.33913043" rx="0.669565217"></rect>
                            <path d="M3.5022969,0.478306081 C3.87374505,0.478306081 4.17486327,0.779424303 4.17486327,1.15087245 L4.17486327,4.42978982 C4.17486327,4.80123797 3.87374505,5.10235619 3.5022969,5.10235619 C3.45146715,5.10235619 3.40195438,5.09671752 3.35434999,5.08603158 C3.30829421,5.09674268 3.25900239,5.10235619 3.20839946,5.10235619 L1.92694452,5.10235619 C1.55715386,5.10235619 1.2573793,4.80258163 1.2573793,4.43279097 C1.2573793,4.06300032 1.55715386,3.76322576 1.92694452,3.76322576 L2.8293793,3.76230608 L2.82973053,1.15087245 C2.82973053,0.779424303 3.13084875,0.478306081 3.5022969,0.478306081 Z" id="Combined-Shape" transform="translate(2.716121, 2.790331) rotate(41.000000) translate(-2.716121, -2.790331) "></path>
                        </g>
                        <g id="Group-4-Copy-9" transform="translate(0.824045, 26.657335)">
                            <rect id="Rectangle" x="5.77437615" y="0.591809257" width="28.0175397" height="1.33913043" rx="0.669565217"></rect>
                            <rect id="Rectangle" x="0" y="0.669565217" width="1.34513274" height="1.33913043" rx="0.669565217"></rect>
                        </g>
                        <g id="Group-4-Copy" transform="translate(0.000000, 15.486396)">
                            <rect id="Rectangle" x="6.59842143" y="2.3888359" width="23.073268" height="1.33913043" rx="0.669565217"></rect>
                            <path d="M3.5022969,0.478306081 C3.87374505,0.478306081 4.17486327,0.779424303 4.17486327,1.15087245 L4.17486327,4.42978982 C4.17486327,4.80123797 3.87374505,5.10235619 3.5022969,5.10235619 C3.45146715,5.10235619 3.40195438,5.09671752 3.35434999,5.08603158 C3.30829421,5.09674268 3.25900239,5.10235619 3.20839946,5.10235619 L1.92694452,5.10235619 C1.55715386,5.10235619 1.2573793,4.80258163 1.2573793,4.43279097 C1.2573793,4.06300032 1.55715386,3.76322576 1.92694452,3.76322576 L2.8293793,3.76230608 L2.82973053,1.15087245 C2.82973053,0.779424303 3.13084875,0.478306081 3.5022969,0.478306081 Z" id="Combined-Shape" transform="translate(2.716121, 2.790331) rotate(41.000000) translate(-2.716121, -2.790331) "></path>
                        </g>
                        <g id="Group-4-Copy-6" transform="translate(0.000000, 6.600617)">
                            <rect id="Rectangle" x="6.59842143" y="2.57026648" width="18.1289963" height="1.33913043" rx="0.669565217"></rect>
                            <path d="M3.5022969,0.478306081 C3.87374505,0.478306081 4.17486327,0.779424303 4.17486327,1.15087245 L4.17486327,4.42978982 C4.17486327,4.80123797 3.87374505,5.10235619 3.5022969,5.10235619 C3.45146715,5.10235619 3.40195438,5.09671752 3.35434999,5.08603158 C3.30829421,5.09674268 3.25900239,5.10235619 3.20839946,5.10235619 L1.92694452,5.10235619 C1.55715386,5.10235619 1.2573793,4.80258163 1.2573793,4.43279097 C1.2573793,4.06300032 1.55715386,3.76322576 1.92694452,3.76322576 L2.8293793,3.76230608 L2.82973053,1.15087245 C2.82973053,0.779424303 3.13084875,0.478306081 3.5022969,0.478306081 Z" id="Combined-Shape" transform="translate(2.716121, 2.790331) rotate(41.000000) translate(-2.716121, -2.790331) "></path>
                        </g>
                        <g id="Group-4-Copy-8" transform="translate(0.412023, 0.000000)">
                            <rect id="Rectangle" x="6.18639879" y="0.466535764" width="28.0175397" height="1.33913043" rx="0.669565217"></rect>
                            <rect id="Rectangle" x="-2.27373675e-13" y="0.669565217" width="1.34513274" height="1.33913043" rx="0.669565217"></rect>
                        </g>
                    </g>
                </g>
            </g>
        </g>
    </g>
</svg>