<?xml version="1.0" encoding="UTF-8"?>
<svg width="172px" height="73px" viewBox="0 0 172 73" version="1.1" xmlns="http://www.w3.org/2000/svg" xmlns:xlink="http://www.w3.org/1999/xlink">
    <!-- Generator: Sketch 57.1 (83088) - https://sketch.com -->
    <title>arrows</title>
    <desc>Created with Sketch.</desc>
    <g id="Dynamic-Scrum" stroke="none" stroke-width="1" fill="none" fill-rule="evenodd">
        <g id="Daily-Scrum" transform="translate(-336.000000, -315.000000)" fill="#000000">
            <g id="Preview" transform="translate(278.000000, 158.000000)">
                <g id="Answer" transform="translate(0.000000, 130.000000)">
                    <g id="arrows" transform="translate(54.000000, 24.000000)">
                        <path d="M179.478089,25.1554523 C179.516553,25.3860366 179.57309,25.7537121 179.64492,26.1179966 C179.656505,26.1756426 179.731116,26.2352264 179.78997,26.2628384 C179.843263,26.2880283 179.966069,26.2860906 179.970239,26.2705891 C180.199168,25.3971783 180.569902,24.5489573 180.457292,23.6130562 C180.444316,23.5055147 180.278412,23.4003954 180.163948,23.3277323 C180.006849,23.2269727 179.89841,23.302058 179.799702,23.4633701 C179.506358,23.9419779 179.60831,24.4951866 179.478089,25.1554523 M181.110642,26.3557914 C181.073522,26.7091738 181.050636,26.8131098 181.054543,26.9103402 C181.062079,27.1068127 181.059009,27.3723524 181.10813,27.4715945 C181.148878,27.5534022 181.288986,27.5078045 181.332804,27.3978335 C181.571433,26.8030514 181.797503,26.1794355 182.019107,25.5471024 C182.088323,25.3492887 182.047016,25.1682389 181.963845,25.0032824 C181.579248,24.2401911 181.300429,24.3696082 181.19493,25.3841575 C181.153065,25.7891726 181.12376,26.2015638 181.110642,26.3557914 M184.418143,27.3003182 C184.400848,27.216364 184.393131,27.0920109 184.364927,27.0535056 C184.18878,26.809218 184.013165,26.5573556 183.825843,26.372404 C183.774223,26.3212741 183.646503,26.4418398 183.617766,26.5661929 C183.437362,27.3552355 183.411818,28.2276011 183.419269,29.1056477 C183.420067,29.1807646 183.458383,29.2823933 183.489781,29.3196361 C183.523839,29.3587726 183.585837,29.3802345 183.609784,29.3347857 C183.865756,28.8462105 184.121993,28.3551104 184.364927,27.831186 C184.411757,27.7301886 184.401912,27.4814823 184.418143,27.3003182 M182.165378,29.3718636 C182.165378,29.134975 182.197036,28.9504182 182.015003,28.9001797 C181.936891,28.8788981 181.806475,28.9605357 181.732492,29.0306603 C180.949648,29.7720275 180.339891,30.7126043 179.305505,31.1644022 C179.165798,31.225107 179.124505,31.6266664 179.21707,31.7704044 C179.332346,31.9490302 179.494764,31.9057693 179.646515,31.8373891 C180.190548,31.5935229 180.729764,31.3384926 181.274829,31.0970686 C181.649562,30.9317001 181.888028,30.6724833 181.959258,30.2499912 C182.013971,29.9269296 182.107912,29.6104966 182.165378,29.3718636 M148.632511,28.0751207 C147.987099,28.1046126 146.884322,28.1632032 145.781544,28.2040986 C143.659654,28.2827436 141.537232,28.3224593 139.416139,28.4317759 C136.489476,28.5827743 133.564141,28.790004 130.638009,28.9598772 C128.644404,29.0758786 126.650268,29.1733984 124.656397,29.2642334 C124.495177,29.2713115 124.316162,29.2017106 124.174596,29.088855 C124.084823,29.0172881 124.005674,28.8014075 124.000362,28.6441175 C123.994784,28.4821087 124.054279,28.2481398 124.139271,28.1620235 C124.271541,28.0279337 124.447369,27.9370987 124.608324,27.9233359 C126.218665,27.7923919 127.829007,27.6567292 129.440412,27.5694333 C133.512348,27.348834 137.584551,27.1282347 141.657815,26.9563953 C144.41529,26.8400007 147.174358,26.7963527 149.932896,26.740908 C151.843102,26.7019787 153.753573,26.6787784 155.664045,26.6827107 C159.611946,26.6909684 163.561706,26.6319846 167.508013,26.7707931 C170.731087,26.8840419 173.957083,27.0464439 177.170861,27.4951137 C177.635132,27.5596026 178.096748,27.6681328 178.560488,27.7420591 C178.856634,27.7896393 179.029009,27.558423 179.038836,27.0830138 C179.057694,26.1404533 179.059819,25.1978927 179.075224,24.2553322 C179.079208,24.0064207 179.098331,23.7563295 179.12675,23.510957 C179.156763,23.250642 179.429536,22.9569029 179.608817,23.0052696 C179.814393,23.0607143 180.026343,23.1200913 180.215982,23.2427775 C181.109731,23.8223913 182.002418,24.4063306 182.885012,25.0217279 C184.035597,25.8246935 185.177684,26.6555781 186.320567,27.4837102 C186.50941,27.6205525 186.690284,27.7900325 186.861066,27.972489 C187.040347,28.1647761 187.046987,28.7955091 186.87594,28.9976268 C186.744733,29.1525575 186.607151,29.3078814 186.456821,29.413659 C184.848604,30.5492931 183.236668,31.6731304 181.627389,32.804439 C181.244391,33.0734049 180.872018,33.3761883 180.485037,33.6302117 C180.254494,33.7819966 180.007751,33.8862012 179.762866,33.9809685 C179.518778,34.074556 179.208556,33.8110952 179.171371,33.4512943 C179.11347,32.8960604 179.077083,32.3329621 179.060881,31.7714367 C179.040961,31.0825063 179.062209,30.3908233 179.043086,29.7014997 C179.035649,29.4403983 178.920644,29.2268771 178.729411,29.1895207 C177.972712,29.0420613 177.217076,28.8489877 176.456659,28.7797801 C174.508206,28.6028288 172.5563,28.5131735 170.607848,28.3346493 C166.112542,27.9221562 161.611925,28.0346186 157.112901,27.9972622 C154.43856,27.9748483 151.764218,28.0428763 148.632511,28.0751207" id="Fill-61-Copy-2" transform="translate(155.500000, 28.500000) rotate(-309.000000) translate(-155.500000, -28.500000) "></path>
                        <path d="M50.4780894,26.1554523 C50.5165531,26.3860366 50.5730901,26.7537121 50.6449199,27.1179966 C50.6565053,27.1756426 50.7311156,27.2352264 50.7899697,27.2628384 C50.8432628,27.2880283 50.9660686,27.2860906 50.9702394,27.2705891 C51.1991679,26.3971783 51.5699024,25.5489573 51.4572918,24.6130562 C51.4443161,24.5055147 51.2784124,24.4003954 51.1639481,24.3277323 C51.0068494,24.2269727 50.8984096,24.302058 50.7997015,24.4633701 C50.5063579,24.9419779 50.6083099,25.4951866 50.4780894,26.1554523 M52.110642,27.3557914 C52.0735219,27.7091738 52.0506359,27.8131098 52.0545432,27.9103402 C52.0620789,28.1068127 52.0590088,28.3723524 52.1081301,28.4715945 C52.1488784,28.5534022 52.2889857,28.5078045 52.3328041,28.3978335 C52.5714331,27.8030514 52.7975026,27.1794355 53.0191066,26.5471024 C53.0883229,26.3492887 53.0470164,26.1682389 52.9638451,26.0032824 C52.5792478,25.2401911 52.3004287,25.3696082 52.1949296,26.3841575 C52.1530649,26.7891726 52.1237596,27.2015638 52.110642,27.3557914 M55.4181431,28.3003182 C55.4008478,28.216364 55.3931314,28.0920109 55.3649266,28.0535056 C55.1887799,27.809218 55.0131653,27.5573556 54.8258431,27.372404 C54.7742231,27.3212741 54.6465034,27.4418398 54.6177665,27.5661929 C54.4373624,28.3552355 54.4118185,29.2276011 54.4192688,30.1056477 C54.420067,30.1807646 54.4583829,30.2823933 54.4897807,30.3196361 C54.5238393,30.3587726 54.5858365,30.3802345 54.609784,30.3347857 C54.8657555,29.8462105 55.1219931,29.3551104 55.3649266,28.831186 C55.4117572,28.7301886 55.4019121,28.4814823 55.4181431,28.3003182 M53.1653782,30.3718636 C53.1653782,30.134975 53.197036,29.9504182 53.0150034,29.9001797 C52.9368912,29.8788981 52.8064746,29.9605357 52.7324916,30.0306603 C51.9496484,30.7720275 51.3398909,31.7126043 50.3055055,32.1644022 C50.1657981,32.225107 50.1245052,32.6266664 50.21707,32.7704044 C50.3323458,32.9490302 50.4947643,32.9057693 50.6465154,32.8373891 C51.1905485,32.5935229 51.7297641,32.3384926 52.2748294,32.0970686 C52.6495619,31.9317001 52.888028,31.6724833 52.9592581,31.2499912 C53.0139711,30.9269296 53.1079123,30.6104966 53.1653782,30.3718636 M19.6325107,29.0751207 C18.987099,29.1046126 17.8843216,29.1632032 16.7815442,29.2040986 C14.6596538,29.2827436 12.5372322,29.3224593 10.4161386,29.4317759 C7.4894756,29.5827743 4.56414065,29.790004 1.63800889,29.9598772 C-0.355595987,30.0758786 -2.34973207,30.1733984 -4.34360255,30.2642334 C-4.50482266,30.2713115 -4.68383807,30.2017106 -4.82540367,30.088855 C-4.91517698,30.0172881 -4.99432623,29.8014075 -4.99963826,29.6441175 C-5.00521589,29.4821087 -4.94572116,29.2481398 -4.86072867,29.1620235 C-4.72845913,29.0279337 -4.55263093,28.9370987 -4.39167642,28.9233359 C-2.78133451,28.7923919 -1.1709926,28.6567292 0.440411717,28.5694333 C4.51234835,28.348834 8.58455059,28.1282347 12.6578152,27.9563953 C15.41529,27.8400007 18.1743584,27.7963527 20.9328957,27.740908 C22.8431017,27.7019787 24.7535733,27.6787784 26.6640449,27.6827107 C30.6119456,27.6909684 34.5617056,27.6319846 38.5080127,27.7707931 C41.7310869,27.8840419 44.9570828,28.0464439 48.170861,28.4951137 C48.6351324,28.5596026 49.0967478,28.6681328 49.560488,28.7420591 C49.8566337,28.7896393 50.0290091,28.558423 50.0388363,28.0830138 C50.057694,27.1404533 50.0598188,26.1978927 50.0752237,25.2553322 C50.0792077,25.0064207 50.0983311,24.7563295 50.1267504,24.510957 C50.1567634,24.250642 50.4295361,23.9569029 50.6088171,24.0052696 C50.8143927,24.0607143 51.0263427,24.1200913 51.2159822,24.2427775 C52.1097312,24.8223913 53.0024179,25.4063306 53.8850117,26.0217279 C55.0355974,26.8246935 56.1776839,27.6555781 57.3205671,28.4837102 C57.5094098,28.6205525 57.6902844,28.7900325 57.8610662,28.972489 C58.0403472,29.1647761 58.0469872,29.7955091 57.8759399,29.9976268 C57.7447327,30.1525575 57.6071511,30.3078814 57.4568207,30.413659 C55.8486036,31.5492931 54.2366681,32.6731304 52.6273886,33.804439 C52.2443912,34.0734049 51.8720179,34.3761883 51.4850365,34.6302117 C51.2544944,34.7819966 51.0077506,34.8862012 50.762866,34.9809685 C50.5187782,35.074556 50.2085557,34.8110952 50.1713715,34.4512943 C50.1134703,33.8960604 50.0770829,33.3329621 50.0608812,32.7714367 C50.0409611,32.0825063 50.0622093,31.3908233 50.0430859,30.7014997 C50.0356491,30.4403983 49.9206437,30.2268771 49.7294106,30.1895207 C48.9727119,30.0420613 48.2170756,29.8489877 47.4566585,29.7797801 C45.5082059,29.6028288 43.5563004,29.5131735 41.6078478,29.3346493 C37.1125424,28.9221562 32.6119249,29.0346186 28.1129011,28.9972622 C25.4385595,28.9748483 22.764218,29.0428763 19.6325107,29.0751207" id="Fill-61-Copy-2" transform="translate(26.500000, 29.500000) rotate(-227.000000) translate(-26.500000, -29.500000) "></path>
                        <path d="M116,46.2489338 C116.038464,46.4026567 116.095001,46.6477737 116.166831,46.89063 C116.178416,46.9290608 116.253026,46.9687833 116.31188,46.9871913 C116.365173,47.0039845 116.487979,47.0026927 116.49215,46.9923584 C116.721079,46.4100845 117.091813,45.8446039 116.979202,45.2206698 C116.966227,45.1489755 116.800323,45.0788959 116.685859,45.0304538 C116.52876,44.9632808 116.42032,45.0133376 116.321612,45.1208791 C116.028269,45.439951 116.13022,45.8087567 116,46.2489338 M117.056531,47.228278 C117.019411,47.4638662 116.996525,47.5331569 117.000432,47.5979772 C117.007968,47.7289588 117.004898,47.9059853 117.054019,47.9721467 C117.094768,48.0266852 117.234875,47.9962867 117.278693,47.9229727 C117.517322,47.5264513 117.743392,47.1107074 117.964996,46.6891519 C118.034212,46.5572762 117.992906,46.4365763 117.909734,46.3266053 C117.525137,45.8178778 117.246318,45.9041558 117.140819,46.5805221 C117.098954,46.8505321 117.069649,47.1254596 117.056531,47.228278 M120,48.6266395 C119.982705,48.5706701 119.974988,48.487768 119.946783,48.4620978 C119.770637,48.2992394 119.595022,48.1313311 119.4077,48.0080301 C119.35608,47.9739434 119.22836,48.0543206 119.199623,48.1372227 C119.019219,48.6632511 118.993675,49.2448281 119.001126,49.8301925 C119.001924,49.8802704 119.04024,49.9480229 119.071638,49.9728515 C119.105696,49.9989425 119.167693,50.0132504 119.191641,49.9829512 C119.447612,49.6572344 119.70385,49.3298343 119.946783,48.9805514 C119.993614,48.9132198 119.983769,48.7474156 120,48.6266395 M117.998594,50.3167488 C117.998594,50.1588231 118.0197,50.0357852 117.898345,50.0022928 C117.84627,49.9881051 117.759325,50.0425302 117.710003,50.0892799 C117.188108,50.5835247 116.781603,51.2105759 116.092013,51.5117745 C115.998874,51.5522444 115.971346,51.8199506 116.033056,51.915776 C116.109906,52.0348599 116.218185,52.0060192 116.319353,51.9604324 C116.682041,51.797855 117.041518,51.6278348 117.404895,51.4668854 C117.654717,51.3566398 117.813694,51.1838286 117.861181,50.9021672 C117.897656,50.6867928 117.960284,50.4758375 117.998594,50.3167488 M90.3315961,49.1523715 C89.7988754,49.1765012 88.8886464,49.224439 87.9784174,49.2578988 C86.2270158,49.3222448 84.4751757,49.3547395 82.7244318,49.4441803 C80.3087735,49.5677245 77.8942113,49.737276 75.4789915,49.8762632 C73.8334763,49.9711734 72.1875227,50.0509624 70.5417884,50.1252819 C70.4087178,50.131073 70.2609591,50.0741269 70.1441113,49.9817905 C70.0700126,49.9232357 70.0046831,49.7466061 70.0002986,49.6179143 C69.9956948,49.4853617 70.0448016,49.2939326 70.1149541,49.2234738 C70.224129,49.113764 70.369257,49.0394444 70.5021084,49.0281839 C71.8312795,48.9210479 73.1604506,48.8100512 74.4904986,48.7386272 C77.8514621,48.5581369 81.2126449,48.3776466 84.5747046,48.2370507 C86.8507156,48.1418188 89.1280419,48.1061068 91.4049297,48.0607429 C92.9816077,48.0288917 94.5585049,48.0099096 96.1354021,48.0131269 C99.3939869,48.0198832 102.654106,47.9716238 105.911376,48.0851944 C108.571691,48.1778525 111.234418,48.3107268 113.88706,48.6778203 C114.270268,48.730584 114.651284,48.8193814 115.034054,48.8798665 C115.278491,48.9187958 115.420769,48.7296188 115.428881,48.3406477 C115.444446,47.5694618 115.4462,46.7982759 115.458915,46.0270899 C115.462203,45.8234351 115.477988,45.618815 115.501445,45.4180558 C115.526217,45.2050708 115.751363,44.9647387 115.899341,45.0043115 C116.069023,45.0496753 116.243965,45.0982565 116.400493,45.1986362 C117.138191,45.6728656 117.875012,46.1506341 118.603502,46.654141 C119.553191,47.3111129 120.495866,47.9909276 121.439198,48.6684902 C121.595068,48.7804521 121.744362,48.9191175 121.885324,49.0684001 C122.033302,49.2257259 122.038783,49.7417802 121.897601,49.9071492 C121.789303,50.0339107 121.675744,50.1609939 121.551662,50.2475392 C120.224244,51.1766943 118.893758,52.0961976 117.565464,53.0218137 C117.249339,53.2418768 116.941983,53.4896086 116.62257,53.6974459 C116.432281,53.8216336 116.22862,53.9068919 116.026493,53.9844288 C115.825023,54.0610004 115.568967,53.8454416 115.538275,53.5510589 C115.490483,53.0967767 115.460449,52.6360599 115.447077,52.17663 C115.430635,51.6129597 115.448173,51.0470373 115.432388,50.4830452 C115.42625,50.2694168 115.331325,50.0947176 115.173482,50.0641533 C114.548905,49.9435047 113.925205,49.7855354 113.297559,49.728911 C111.689313,49.5841327 110.078216,49.5107783 108.46997,49.3647131 C104.759559,49.0272187 101.044763,49.1192334 97.3312834,49.0886691 C95.1238904,49.0703305 92.9164974,49.1259897 90.3315961,49.1523715" id="Fill-61-Copy-2" transform="translate(96.000000, 49.500000) rotate(90.000000) translate(-96.000000, -49.500000) "></path>
                    </g>
                </g>
            </g>
        </g>
    </g>
</svg>