<?xml version="1.0" encoding="UTF-8"?>
<svg width="98px" height="43px" viewBox="0 0 98 43" version="1.1" xmlns="http://www.w3.org/2000/svg" xmlns:xlink="http://www.w3.org/1999/xlink">
    <!-- Generator: Sketch 57.1 (83088) - https://sketch.com -->
    <title>Group</title>
    <desc>Created with Sketch.</desc>
    <g id="Dynamic-Scrum" stroke="none" stroke-width="1" fill="none" fill-rule="evenodd">
        <g id="Sprint-Planning" transform="translate(-386.000000, -331.000000)" fill="#000000">
            <g id="Group" transform="translate(384.060065, 329.281479)">
                <path d="M105.595659,20.7005625 C105.634122,20.8542854 105.690659,21.0994023 105.762489,21.3422587 C105.774075,21.3806894 105.848685,21.4204119 105.907539,21.4388199 C105.960832,21.4556132 106.083638,21.4543214 106.087809,21.4439871 C106.316737,20.8617132 106.687472,20.2962325 106.574861,19.6722984 C106.561885,19.6006041 106.395982,19.5305246 106.281518,19.4820825 C106.124419,19.4149094 106.015979,19.4649663 105.917271,19.5725077 C105.623927,19.8915796 105.725879,20.2603854 105.595659,20.7005625 M106.440201,21.2955681 C106.403081,21.5311563 106.380194,21.600447 106.384102,21.6652673 C106.391638,21.796249 106.388567,21.9732754 106.437689,22.0394368 C106.478437,22.0939753 106.618544,22.0635768 106.662363,21.9902628 C106.900992,21.5937414 107.127061,21.1779975 107.348665,20.756442 C107.417882,20.6245663 107.376575,20.5038664 107.293404,20.3938954 C106.908806,19.8851679 106.629987,19.9714459 106.524488,20.6478122 C106.482624,20.9178222 106.453318,21.1927497 106.440201,21.2955681 M108.959691,21.9252526 C108.942396,21.8692832 108.934679,21.7863811 108.906474,21.7607109 C108.730328,21.5978525 108.554713,21.4299442 108.367391,21.3066432 C108.315771,21.2725565 108.188051,21.3529337 108.159314,21.4358357 C107.97891,21.9618642 107.953366,22.5434412 107.960817,23.1288056 C107.961615,23.1788835 107.999931,23.246636 108.031329,23.2714645 C108.065387,23.2975555 108.127384,23.3118635 108.151332,23.2815643 C108.407303,22.9558475 108.663541,22.6284474 108.906474,22.2791645 C108.953305,22.2118329 108.94346,22.0460287 108.959691,21.9252526 M107.217296,23.6715634 C107.217296,23.5136377 107.238401,23.3905998 107.117046,23.3571074 C107.064971,23.3429197 106.978027,23.3973448 106.928705,23.4440945 C106.406809,23.9383393 106.000304,24.5653905 105.310714,24.8665891 C105.217576,24.907059 105.190047,25.1747652 105.251757,25.2705906 C105.328607,25.3896745 105.436886,25.3608338 105.538054,25.315247 C105.900743,25.1526696 106.26022,24.9826494 106.623597,24.8217 C106.873418,24.7114544 107.032396,24.5386431 107.079882,24.2569818 C107.116358,24.0416074 107.178985,23.8306521 107.217296,23.6715634 M83.2275679,22.6909969 C82.7563149,22.7124455 81.9511124,22.7550568 81.1459098,22.784799 C79.596593,22.8419953 78.0468883,22.8708795 76.4981533,22.9503825 C74.3612248,23.0601995 72.2252659,23.210912 70.0887253,23.3344562 C68.6330773,23.4188208 67.1770414,23.4897443 65.7211995,23.5558061 C65.6034832,23.5609538 65.4727735,23.510335 65.3694082,23.4282582 C65.3038594,23.3762095 65.2460679,23.2192055 65.2421893,23.1048127 C65.2381167,22.9869882 65.2815573,22.8168289 65.3436153,22.7541989 C65.4401931,22.6566791 65.5685756,22.5906173 65.6860979,22.5806079 C66.8619031,22.4853759 68.0377083,22.3867122 69.2142893,22.3232242 C72.1874493,22.1627884 75.1608034,22.0023525 78.1349331,21.8773784 C80.1483274,21.7927278 82.1628853,21.7609838 84.1770553,21.7206604 C85.5718089,21.6923481 86.9667564,21.6754752 88.361704,21.678335 C91.2442981,21.6843407 94.1282498,21.6414434 97.0096804,21.742395 C99.3630362,21.8247578 101.718525,21.9428683 104.065093,22.2691736 C104.404085,22.3160746 104.741138,22.3950056 105.079742,22.4487702 C105.295975,22.4833741 105.421837,22.3152167 105.429012,21.9694646 C105.442781,21.283966 105.444333,20.5984674 105.455581,19.9129688 C105.45849,19.7319423 105.472453,19.5500578 105.493203,19.3716051 C105.515117,19.1822851 105.714285,18.9686566 105.845188,19.0038324 C105.995291,19.0441559 106.150048,19.0873391 106.288515,19.1765655 C106.941094,19.5981028 107.592897,20.0227859 108.237331,20.4703475 C109.077441,21.0543226 109.911345,21.6586023 110.745831,22.2608801 C110.883716,22.3604018 111.015784,22.48366 111.140481,22.6163556 C111.271385,22.7562008 111.276233,23.2149157 111.151342,23.3619104 C111.05554,23.4745873 110.955083,23.5875501 110.845318,23.6644793 C109.671064,24.4903949 108.494095,25.3077312 107.319066,26.1305011 C107.039417,26.3261127 106.767526,26.5463187 106.484968,26.731063 C106.316635,26.8414521 106.136473,26.9172373 105.957669,26.9861589 C105.779446,27.0542226 105.552934,26.8626147 105.525784,26.6009413 C105.483507,26.1971349 105.456938,25.7876088 105.445108,25.3792267 C105.430563,24.8781864 105.446078,24.3751442 105.432115,23.873818 C105.426685,23.683926 105.342713,23.5286379 105.203082,23.5014696 C104.650572,23.3942264 104.098838,23.2538093 103.543612,23.2034764 C102.120933,23.0747846 100.695732,23.0095807 99.2730521,22.8797449 C95.9907656,22.5797499 92.7046005,22.6615408 89.419599,22.6343725 C87.4669051,22.6180715 85.5142113,22.6675464 83.2275679,22.6909969" id="Fill-61-Copy-2" transform="translate(88.241925, 23.000000) rotate(-294.000000) translate(-88.241925, -23.000000) "></path>
                <path d="M31.3537336,20.8311743 C31.3921973,20.9848972 31.4487343,21.2300141 31.5205641,21.4728705 C31.5321496,21.5113012 31.6067599,21.5510237 31.665614,21.5694317 C31.7189071,21.5862249 31.8417128,21.5849332 31.8458836,21.5745988 C32.0748121,20.9923249 32.4455466,20.4268443 32.332936,19.8029102 C32.3199603,19.7312159 32.1540566,19.6611363 32.0395924,19.6126943 C31.8824936,19.5455212 31.7740538,19.5955781 31.6753458,19.7031195 C31.3820021,20.0221914 31.4839541,20.3909971 31.3537336,20.8311743 M32.1982755,21.4261799 C32.1611554,21.6617681 32.1382693,21.7310588 32.1421767,21.7958791 C32.1497124,21.9268608 32.1466423,22.1038872 32.1957636,22.1700486 C32.2365119,22.2245871 32.3766192,22.1941886 32.4204376,22.1208746 C32.6590666,21.7243532 32.8851361,21.3086093 33.10674,20.8870538 C33.1759564,20.7551781 33.1346499,20.6344782 33.0514786,20.5245072 C32.6668813,20.0157797 32.3880622,20.1020577 32.2825631,20.778424 C32.2406984,21.048434 32.2113931,21.3233615 32.1982755,21.4261799 M34.7177659,22.0558644 C34.7004705,21.9998949 34.6927541,21.9169929 34.6645493,21.8913227 C34.4884026,21.7284643 34.312788,21.560556 34.1254658,21.4372549 C34.0738458,21.4031683 33.9461261,21.4835454 33.9173892,21.5664475 C33.7369851,22.0924759 33.7114412,22.674053 33.7188915,23.2594174 C33.7196898,23.3094953 33.7580057,23.3772478 33.7894034,23.4020763 C33.823462,23.4281673 33.8854593,23.4424753 33.9094067,23.4121761 C34.1653782,23.0864593 34.4216158,22.7590592 34.6645493,22.4097763 C34.7113799,22.3424447 34.7015348,22.1766405 34.7177659,22.0558644 M32.9753705,23.8021752 C32.9753705,23.6442494 32.9964757,23.5212116 32.8751207,23.4877192 C32.8230458,23.4735315 32.7361015,23.5279566 32.6867795,23.5747063 C32.164884,24.0689511 31.758379,24.6960023 31.0687887,24.9972009 C30.9756504,25.0376708 30.9481219,25.305377 31.0098317,25.4012023 C31.0866823,25.5202863 31.1949613,25.4914456 31.2961287,25.4458588 C31.6588174,25.2832814 32.0182944,25.1132612 32.3816714,24.9523118 C32.631493,24.8420662 32.7904704,24.6692549 32.8379571,24.3875936 C32.8744325,24.1722191 32.9370599,23.9612639 32.9753705,23.8021752 M8.98564273,22.8216087 C8.51438978,22.8430573 7.7091872,22.8856686 6.90398463,22.9154107 C5.35466783,22.9726071 3.80496316,23.0014913 2.25622815,23.0809943 C0.119299642,23.1908113 -2.01665921,23.3415238 -4.15319986,23.4650679 C-5.60884786,23.5494326 -7.06488373,23.6203561 -8.52072567,23.6864179 C-8.63844194,23.6915656 -8.76915161,23.6409468 -8.87251697,23.55887 C-8.93806573,23.5068213 -8.99585725,23.3498172 -8.99973587,23.2354245 C-9.00380843,23.1175999 -8.96036783,22.9474407 -8.89830983,22.8848107 C-8.80173206,22.7872909 -8.67334957,22.721229 -8.55582723,22.7112197 C-7.38002202,22.6159877 -6.20421682,22.517324 -5.02763589,22.453836 C-2.05447581,22.2934001 0.91887821,22.1329643 3.89300795,22.0079902 C5.90640225,21.9233396 7.92096014,21.8915956 9.93513016,21.8512721 C11.3298838,21.8229599 12.7248313,21.806087 14.1197788,21.8089468 C17.002373,21.8149524 19.8863247,21.7720552 22.7677553,21.8730068 C25.1211111,21.9553695 27.4766001,22.0734801 29.8231683,22.3997854 C30.1621601,22.4466864 30.4992127,22.5256174 30.8378166,22.579382 C31.05405,22.6139858 31.1799114,22.4458285 31.1870868,22.1000764 C31.200856,21.4145778 31.2024074,20.7290792 31.2136554,20.0435806 C31.2165644,19.8625541 31.2305274,19.6806696 31.2512781,19.5022169 C31.2731923,19.3128969 31.4723597,19.0992684 31.6032633,19.1344442 C31.7533661,19.1747676 31.9081232,19.2179509 32.0465902,19.3071773 C32.6991688,19.7287146 33.3509718,20.1533977 33.9954054,20.6009593 C34.8355156,21.1849343 35.66942,21.7892141 36.5039061,22.3914919 C36.6417913,22.4910136 36.7738585,22.6142718 36.8985563,22.7469674 C37.0294599,22.8868126 37.0343081,23.3455275 36.9094164,23.4925222 C36.8136144,23.6051991 36.713158,23.7181619 36.6033929,23.795091 C35.4291391,24.6210067 34.2521703,25.438343 33.0771409,26.2611129 C32.797492,26.4567245 32.5256004,26.6769305 32.2430425,26.8616748 C32.0747102,26.9720638 31.8945481,27.047849 31.7157434,27.1167707 C31.5375206,27.1848344 31.3110089,26.9932265 31.2838585,26.7315531 C31.2415815,26.3277466 31.2150129,25.9182206 31.2031831,25.5098384 C31.1886383,25.0087982 31.2041528,24.505756 31.1901897,24.0044298 C31.1847597,23.8145378 31.1007874,23.6592496 30.9611569,23.6320814 C30.4086468,23.5248382 29.8569124,23.384421 29.3016872,23.3340882 C27.8790075,23.2053964 26.4538067,23.1401925 25.031127,23.0103567 C21.7488405,22.7103617 18.4626753,22.7921526 15.1776738,22.7649843 C13.22498,22.7486833 11.2722862,22.7981582 8.98564273,22.8216087" id="Fill-61-Copy-2" transform="translate(14.000000, 23.130612) rotate(-244.000000) translate(-14.000000, -23.130612) "></path>
            </g>
        </g>
    </g>
</svg>