<?xml version="1.0" encoding="UTF-8"?>
<svg width="14px" height="14px" viewBox="0 0 14 14" version="1.1" xmlns="http://www.w3.org/2000/svg" xmlns:xlink="http://www.w3.org/1999/xlink">
    <!-- Generator: Sketch 57.1 (83088) - https://sketch.com -->
    <title>UI / Icons / world</title>
    <desc>Created with Sketch.</desc>
    <g id="Page-1" stroke="none" stroke-width="1" fill="none" fill-rule="evenodd">
        <g id="Main-Page---Values" transform="translate(-1091.000000, -21.000000)" fill="#005CFF">
            <g id="Translation_btn" transform="translate(1083.000000, 14.000000)">
                <g id="UI-/-Icons-/-world" transform="translate(8.000000, 7.000000)">
                    <g id="iconmonstr-globe-5">
                        <path d="M7.29039845,4.4837855 C7.25539845,4.4177855 7.63239845,4.3817855 7.69939845,4.3817855 C7.77339845,4.3907855 7.50339845,4.8337855 7.29039845,4.4837855 Z M6.22493453,3.34932972 L6.33293453,3.32469777 C6.39693453,3.36839963 6.26093453,3.40018279 6.28193453,3.43276054 C6.36793453,3.55592032 6.30293453,3.62981619 6.28993453,3.69656084 C6.27593453,3.76410008 6.18593453,3.73470064 6.14093453,3.77045671 C6.08793453,3.82289894 6.39893453,3.83005015 6.40293453,3.83799594 C6.41393453,3.86421706 6.02793453,3.90871349 6.09893453,3.97386899 C6.19493453,4.08193176 6.92293453,3.81892604 6.80693453,3.83402305 C7.03193453,3.7442356 6.83593453,3.73470064 6.70993453,3.683053 C6.66693453,3.51221846 6.63093453,3.24841816 6.49693453,3.14273913 L6.58493453,3.06169205 C6.37893453,2.82411286 6.22493453,3.34932972 6.22493453,3.34932972 L6.22493453,3.34932972 Z M14,7 C14,10.86575 10.86575,14 7,14 C3.13366667,14 0,10.86575 0,7 C0,3.13425 3.13366667,0 7,0 C10.86575,0 14,3.13425 14,7 Z M9.31160575,3.33978378 C9.3083652,3.21432321 9.20898854,3.0957372 9.10529115,3.31314489 C9.03237893,3.46266639 9.0453411,3.69038591 9.00591449,3.79178555 C8.94974508,3.94216637 9.31214584,4.08309468 9.31214584,3.94130705 C9.3256481,3.7032757 9.70749212,3.88716995 9.78202462,3.91982407 C9.91596708,3.97911708 10.1293028,3.72561799 9.89598373,3.59242355 C9.70425158,3.48071209 9.60325465,3.36126675 9.58597175,3.14299974 C9.58597175,3.14299974 9.68750877,2.9917596 9.64322135,3.00035279 C9.52548161,3.0235544 9.31160575,3.67577749 9.31160575,3.33978378 L9.31160575,3.33978378 Z M13,6.99549166 C13,6.37334068 12.8929401,5.74517858 12.7840656,5.41336472 C12.7489838,5.30877123 12.6697473,5.22581776 12.5669214,5.18614437 C12.4120777,5.12603316 11.7582258,5.54500827 11.6596339,5.33882683 C11.5949141,5.20117217 11.4636598,5.42658919 11.3136549,5.34363573 C11.2410719,5.30396233 11.0390493,5.03406302 10.9477156,5.06712418 C10.7608144,5.13384762 11.2344185,5.6465962 11.3638582,5.71392075 C11.4854347,5.62255172 11.8791975,5.43440365 11.9638777,5.6910785 C12.1259797,6.17437259 11.5180971,6.70395231 11.2071999,6.98286831 C10.7426687,7.40004007 10.8297683,6.71296899 10.5134274,6.47072083 C10.3470913,6.34388619 10.3489059,6.07398688 10.1807553,5.98081451 C10.1057528,5.93873666 9.76158844,5.54500827 9.76461274,5.4921104 L9.75433014,5.59189501 C9.69747346,5.63457396 9.57650179,5.43079697 9.56379977,5.39893804 C9.56379977,5.57626609 9.85413177,5.85878876 9.95030425,6.0006512 C10.1142209,6.24410159 10.2019253,6.5987577 10.4027383,6.79772579 C10.5104031,6.90472374 10.9217067,7.34714221 11.0287667,7.33752442 C11.1455043,7.32730552 11.5144679,7.0622151 11.5797926,7.0772429 C11.9693214,7.16861193 10.6628274,9.00380704 10.5388314,9.2310274 C10.4366104,9.42157992 10.6223019,9.89285178 10.6071804,10.1182688 C10.5896395,10.3785503 10.3833828,10.462706 10.1880136,10.6045685 C9.97873259,10.7566498 10.0277261,11.0523969 9.85171234,11.1605971 C9.53900057,11.3517507 9.31399327,11.9739017 8.87002725,11.9708962 C8.73937785,11.970295 8.18048874,12.1872965 8.10730088,11.9751039 C8.0504442,11.8212193 7.97423205,11.7046035 7.89378589,11.5525222 C7.8151543,11.4034464 7.88471301,11.2489606 7.78914539,11.117317 C7.72321584,11.025948 7.50183768,10.8185643 7.48187736,10.7103642 C7.48066764,10.6171918 7.55264578,10.334068 7.65123769,10.2847768 C7.78975025,10.2144467 7.67785146,10.0094675 7.66091543,9.89044733 C7.63188223,9.67765366 7.49941825,9.50212894 7.34034051,9.37890097 C7.10505061,9.19916846 7.22662714,9.05610379 7.28166925,8.79942894 C7.28166925,8.67680208 7.20666681,8.51570405 7.04093563,8.56379302 C6.69979552,8.66237539 6.8032263,8.29930371 6.55462952,8.31553374 C6.37559145,8.32815709 6.22921573,8.44116616 6.06287969,8.49105846 C5.8535987,8.55357411 5.63947885,8.44176727 5.4326173,8.41591945 C4.58158161,8.3089215 4.30395164,7.34233332 4.52593465,6.64504333 C4.5483144,6.53083204 4.4569808,6.3192406 4.49690145,6.23087712 C4.59246906,6.01928568 4.78723345,5.78184642 4.9578035,5.6213495 C5.05337112,5.53118269 5.17615736,5.55402495 5.28866101,5.48369484 C5.46225536,5.37489355 5.46467479,5.15127987 5.63463998,5.01422632 C5.87658332,4.8188649 6.20683598,4.82307268 6.52257203,4.78099484 C6.69072265,4.75875369 7.33066277,4.62109903 7.43167412,4.74492812 C7.43167412,4.76777038 7.54720206,5.1079998 7.42018181,5.08876421 C7.68208547,5.10258979 8.05528306,5.53899714 8.30387984,5.43680809 C8.43150495,5.38391023 8.38493086,4.99438962 8.64683452,5.18253769 C8.80530741,5.29554676 9.5154111,5.34604017 9.66299653,5.22401443 C9.75372529,5.14947653 9.80453339,4.66498021 9.69444917,4.61027902 C9.76461274,4.6794069 9.32488072,4.68481691 9.28375035,4.669188 C9.21116735,4.64273907 9.14342322,4.73771477 9.02668556,4.6842158 C9.09684913,4.71727696 8.63594707,4.47142213 8.89482644,4.28327406 C8.7865568,4.36201974 8.68554546,4.26103291 8.5688078,4.34759305 C8.48836164,4.41251315 8.60630901,4.45579322 8.49138593,4.51229775 C8.30871871,4.6042679 8.17081101,4.19671392 8.10185716,4.15042829 C8.03169359,4.10474378 7.4885308,3.72604318 7.63611623,3.97310024 L8.11334947,4.4449732 C8.08975999,4.460001 7.98814379,4.27305515 7.98814379,4.40950759 C8.02020128,4.32835746 8.00024096,4.75755147 7.92523852,4.61809347 C7.89197131,4.5645945 7.97967577,4.5345389 7.92886767,4.45699544 C7.92886767,4.40590092 7.79095997,4.35600862 7.7643462,4.32114412 C7.68873891,4.22797175 7.48792594,4.02239142 7.37905144,3.97310024 C7.34880852,3.95927466 6.91693967,4.02539698 6.88064817,4.03922256 C6.83830808,4.09813154 6.80201658,4.16004609 6.77237852,4.22616841 C6.68285949,4.25922957 6.59878418,4.30190853 6.51894288,4.35480639 L6.42398012,4.56699895 C6.38284975,4.60366678 5.96126349,4.74192256 5.95884406,4.74733257 C5.97638495,4.70224916 5.66427804,4.6445424 5.68484323,4.55437559 C5.70782784,4.45519211 5.81367805,4.1456194 5.78645943,4.03261033 C5.75742623,3.91419125 6.43607729,4.20332615 6.47962709,3.891349 C6.49716798,3.75609878 6.50745057,3.59860742 6.29030643,3.57576517 C6.33143679,3.58057406 6.71068297,3.4278916 6.77358824,3.35936482 C6.86189756,3.258378 7.0645251,3.0936733 7.21150568,3.0936733 C7.38328545,3.0936733 7.34638909,2.84541402 7.42562553,2.72398938 C7.50486197,2.75584832 7.38328545,2.95000751 7.47824821,3.02875319 C7.47219962,2.96683865 7.74741017,3.06301658 7.77402394,3.04858989 C7.8369292,3.01612984 8.18774704,3.03536543 8.13330979,2.87186295 C8.07282396,2.70535491 8.16415757,2.7546461 8.24278915,2.7197816 C8.22948227,2.7251916 8.44844099,2.34769323 8.4859422,2.47152232 C8.45993329,2.34408656 8.23129684,2.51600461 8.15145554,2.50939238 C7.96697375,2.49496569 8.04500047,2.19681411 8.11455918,2.10965286 C8.16839157,2.04052497 7.96757861,1.95576817 7.96515917,2.08801282 C7.96153002,2.28577869 7.77644337,2.46491008 7.81938831,2.72759605 C7.88471301,3.1237289 7.37481743,2.63201924 7.33005791,2.65906928 C7.16069758,2.76125833 7.02218502,2.5304313 7.10988948,2.39217552 C7.19940851,2.25091419 7.41534294,2.25752642 7.50425712,2.10604619 C7.56716238,1.99904824 7.64035024,1.87461804 7.73712758,1.79346792 C8.06072679,1.5235686 8.15024582,1.73936783 8.47263532,1.76882232 C8.78776652,1.7976757 8.57909039,1.84336022 8.53554059,1.96358263 C8.49380536,2.07779392 8.70853007,2.11866954 8.78292765,2.02309272 C8.82526773,1.96779041 8.92144021,1.82893353 8.96317543,1.72614337 C9.01700783,1.59269649 9.5081528,1.60772429 9.16519812,1.4039473 C8.9389811,1.26989931 7.953062,1 7.2925567,1 C7.14981013,1 7.0500085,1.15809247 6.941134,1.24765817 C6.72580443,1.42498622 6.17417362,1.77303011 5.86751045,1.66723438 C5.55358897,1.55963533 4.88159135,2.06396834 4.77392657,2.06757501 C4.73461077,2.06997946 4.776346,1.68646997 4.99046585,1.6582177 C4.89792253,1.67204328 5.7447242,1.23323148 5.72173959,1.14186245 C5.6939161,1.03366228 4.02874109,1.63597656 4.10313867,1.75680008 C4.13882531,1.81210239 4.28399131,1.81210239 4.09346093,1.93352702 C3.98458643,1.99904824 3.86845363,2.41501778 3.76623257,2.41501778 C3.46077911,2.54786355 3.44142364,2.15353404 3.10149325,2.66087261 L2.5607499,2.87727295 C1.75749802,3.72544207 1.20163321,4.79962931 1.00021538,5.99283675 C0.99235222,6.0403246 1.20223806,6.12868807 1.22945669,6.16114812 C1.29720082,6.24169714 1.29720082,6.58913991 1.33046803,6.70275009 C1.41393848,6.99008165 1.62019518,7.14997746 1.7780632,7.4114612 C1.87121139,7.56714923 2.02605512,7.96087762 1.9770616,8.1243801 C2.0423863,8.01738216 2.62426002,8.61428643 2.73071509,8.73871663 C2.98112644,9.0314582 3.17407625,9.38611431 2.76761145,9.67585032 C2.63635719,9.7696238 2.9672147,10.3545058 2.79664465,10.4981716 L2.57829079,10.554075 C2.36296122,10.6857186 2.46034341,11.0085158 2.59099281,11.1443671 C3.69062528,12.2870811 5.24027235,13 6.95807003,13 C10.2950735,13 13,10.3118269 13,6.99549166 L13,6.99549166 Z M6.36180719,3.72792035 C6.48680719,3.67292035 6.65480719,3.67492035 6.67280719,3.50792035 C6.68780719,3.35992035 6.71680719,3.46192035 6.75280719,3.40792035 C6.78780719,3.35492035 6.68580719,3.26992035 6.64280719,3.26192035 C6.57880719,3.24792035 6.53480719,3.33092035 6.49380719,3.36592035 L6.42180719,3.38492035 L6.35380719,3.47192035 L6.36180719,3.51992035 L6.27480719,3.62592035 C6.18980719,3.70992035 6.27680719,3.76492035 6.36180719,3.72792035 L6.36180719,3.72792035 Z" id="Shape" fill-rule="nonzero"></path>
                    </g>
                </g>
            </g>
        </g>
    </g>
</svg>